<svg xmlns="http://www.w3.org/2000/svg" viewBox="0 0 932.37 965.84"><defs><style>.cls-1{fill:#4dffae;}.cls-2,.cls-6{fill:#fa48ff;}.cls-3{fill:#94fcff;}.cls-4{fill:#ff0;}.cls-5,.cls-6{font-size:104.13px;font-family:SFProDisplay-HeavyItalic, SF Pro Display;font-weight:800;font-style:italic;}.cls-5{fill:none;stroke:#94fcff;stroke-miterlimit:10;stroke-width:2px;}</style></defs><title>logo_top</title><g id="Layer_2" data-name="Layer 2"><g id="voorstuk"><path class="cls-1" d="M143.8,538.63c-24.77,3.15-49.67,7.08-73.45,14.91a180.19,180.19,0,0,0-33.92,14.93c-9.25,5.35-18.75,11.62-25.44,20.1-15.51,19.69-3,41.79,12,57.34C39.86,663.4,60,677.54,81.62,688.64,128.85,713,181.7,722.39,234,728.34c52.73,6,106.78,12.11,159.79,6.43,27.39-2.94,54.5-9.39,79.49-21.18,10.55-5,22.88-11,28.23-22.11,4.06-8.38,3.05-19.11-4.62-25-.59-.45-1.39.57-.8,1,10.43,8.38,6.28,23.28-2.1,31.38s-20.16,13-30.76,17.4c-22.12,9.12-45.69,14.33-69.44,16.87-47.43,5.07-95.34.29-142.58-4.56-51.2-5.27-103.11-12.45-150.79-32.84-21-9-41-20.39-58.74-34.79C25.37,647.75.49,626.5,5.61,602.72c2.88-13.38,14.91-22.55,25.77-29.56a169.59,169.59,0,0,1,36.11-17.3c24.7-8.63,50.63-12.63,76.42-16.35.5-.07.38-.94-.11-.88Z"/><path class="cls-2" d="M547.34,146.79a716.8,716.8,0,0,0-197.21-51.1c-65.2-7.23-132.58-6-196.94,7.41-30.27,6.29-60.19,16-86.95,31.67C42,149,19.18,168.56,7.35,194.62-19.25,253.19,32,307.33,71.14,345.05,114.2,386.54,164,420.67,217.08,448c52.83,27.18,108.92,47.77,166.27,63.14a1064.73,1064.73,0,0,0,193,33c70.3,5.44,141.58,3.23,210.8-10.85,56.09-11.4,117.2-34.79,138.73-92.9,9.61-25.95,8.78-54.58-3.63-79.45-12.24-24.54-33.46-43.2-55.7-58.55-11.58-8-23.69-15.17-35.89-22.18a.75.75,0,0,0-.75,1.29c46.74,26.86,102.21,63.73,101,124.43-.56,28.66-13.79,56.49-34.18,76.39-21.84,21.32-50.67,33.87-79.65,42.13-31.92,9.08-65.16,14.14-98.14,17.33a788.65,788.65,0,0,1-103.11,3c-66.08-2.27-132.07-11.57-196.5-26.33C363,505.49,307.58,487.9,254.77,464.32s-103.26-53.26-148.19-89.91a545.33,545.33,0,0,1-62.49-59.65C23.69,291.86,3,264.25,1.35,232.42-.22,202.68,16.51,176,38,156.79c22.83-20.32,51.13-34,80.06-43.17,30.09-9.57,61.48-14.66,92.84-17.73a665.61,665.61,0,0,1,95.87-2.35,712.46,712.46,0,0,1,194.2,37q23.31,7.88,46.07,17.27c.61.25.87-.74.27-1Z"/><path class="cls-3" d="M472.88,208A1248.19,1248.19,0,0,0,348.3,97.8q-32.9-25.42-67.4-48.64c-22.75-15.3-45.9-31-71.45-41.24C191.86.85,164.74-7.06,151,11.31c-13.41,17.87-2,44.32,5.12,62.24,20.46,51.18,50.38,98.34,80.83,144.07,58.54,87.93,125.7,170.2,200.85,244.46A1437.41,1437.41,0,0,0,556.52,567.21c41.94,33.15,85.74,65.64,135.09,86.93,23.41,10.11,50.48,20.67,76.45,17.35,19.79-2.53,40.51-16.44,42.84-37.69,1.37-12.46-4.26-24.28-9.8-35.06q-9.54-18.59-20.15-36.62a765.14,765.14,0,0,0-46.15-69.68q-12-16.12-24.85-31.56c-.57-.69-1.54.29-1,1a774.8,774.8,0,0,1,89.15,134.43c6.36,12.21,13.69,25.88,10.85,40.12-2.32,11.6-10.78,21.09-20.8,26.9-24,13.93-53.85,5.3-78.09-3.47-49-17.73-92.47-47.71-133.64-79.12a1422.21,1422.21,0,0,1-116-98.87A1537.92,1537.92,0,0,1,262.51,252.25c-29.83-42.3-58.68-85.92-82.86-131.73-6.3-12-12.22-24.11-17.59-36.51-5.1-11.82-10.31-24-13.37-36.52-2.61-10.7-3.9-23.34,2.08-33.21,6.75-11.13,20-13.71,32-12.33,13,1.48,25.72,6.79,37.46,12.4A332.08,332.08,0,0,1,254.5,33.71c22.37,14.14,44.21,29.16,65.59,44.76a1269.51,1269.51,0,0,1,123.4,102.7Q458,194.82,472,208.91a.64.64,0,0,0,.91-.91Z"/><path class="cls-4" d="M743.43,55.94c3.61-8.48,7.91-18.4,16.12-23.39,11.5-7,24,1.38,32.64,9.12,15.33,13.75,25.71,32.07,32.94,51.16,7.34,19.4,11.72,39.83,15.14,60.24a437.3,437.3,0,0,1,6.4,75.07,339.3,339.3,0,0,1-2.54,40.18q-1.36,10.9-3.51,21.71c-.59,3-1.18,6-1.94,9s-4.87,13.72-9.85,7.75c-.47-.56-1.22.23-.79.79a4.39,4.39,0,0,0,6.19,1.25c4.06-2.27,5.26-7.05,6.22-11.21a299.2,299.2,0,0,0,6.33-40.39c2.59-29,1.33-58.31-2.5-87.15-6-45.37-16.21-99.44-53-130.71-8.27-7-19.73-14-30.66-8.66-9.45,4.66-14.3,15.68-18.08,24.88-.2.5.67.87.88.37Z"/><text class="cls-5" transform="translate(259.07 920.1)">DEVINYL</text><text class="cls-6" transform="translate(250.07 908.1)">DEVINYL</text></g></g></svg>