<svg xmlns="http://www.w3.org/2000/svg" viewBox="0 0 830.58 772.53"><defs><style>.cls-1{fill:#ededed;}.cls-2{fill:#d3d3d3;}.cls-3{fill:#fff;}</style></defs><title>logo_middle</title><g id="Layer_2" data-name="Layer 2"><g id="voorstuk"><path class="cls-1" d="M266.54,274.42c-12.2,13.12-18.18,32-24.11,48.6-6.35,17.72-11.37,35.88-13.54,54.61-4,34.75,5.53,68.88,22.76,98.95,9.61,16.78,21.56,32.2,34.54,46.49,2,2.17,6.5,3.06,9,1.16a387.38,387.38,0,0,1,74.68-44.77l-11.26-8.65c-3.55,8.86-14,13.54-22.09,17.25-11,5.06-23.75,11.14-36.22,9.32-19.65-2.86-30.95-24.28-39.38-40l-13.44,7.85c10.76,14.11,23.91,25.84,40.67,32.23,16.58,6.33,35.46,5.64,51.12-2.84,6.91-3.75,3.66-14.6-3.95-14.59a92.05,92.05,0,0,1-70-32.2,88.47,88.47,0,0,1-17.84-35.4c-3.42-13.47-3.14-27.08-1.57-40.8,1-8.37-12.36-9.78-14.46-2-8.16,30.45,2.33,65,22.12,88.8S304.38,496,335.3,495.72l-3.95-14.58c-25.88,14.29-54.58-2.64-70.45-23.72-5.89-7.84-18.24-1.24-13.44,7.85,11.56,21.91,27.13,46.12,54.26,48.34,15.41,1.26,30.54-6.08,44-12.62,12-5.81,22.59-13.35,27.62-26.11,2.72-6.9-5.91-11.13-11.26-8.65a394.41,394.41,0,0,0-75.92,46.36h10.48c-20.87-22.72-39.34-49.07-48.68-78.74-10.45-33.22-6.31-66.82,4.09-99.49,3-9.44,6.46-18.73,9.87-28,3.3-9,6.95-17.88,12.62-25.72,3.41-4.72-4.12-10.39-8-6.19Z"/><path class="cls-1" d="M360.45,483.39c18.36-8.79,35.28-20.39,52.32-31.45,15.81-10.26,33-19.82,46.35-33.36,6.38-6.49,11.61-14,17.37-21s12.43-13.53,18.94-20c12.84-12.81,23.64-26.77,31.87-43a285.33,285.33,0,0,0,11.75-27c3.51-9.17,9.33-20,7.93-29.93-.81-5.72-8.68-6.64-12.22-3.22-6,5.76-7.64,16.17-10.46,23.79-2.89,7.83-6,15.58-9.57,23.12A151.68,151.68,0,0,1,485.87,363c-6.24,6.36-12.73,12.49-18.55,19.24s-10.81,13.9-16.56,20.58c-11.95,13.87-27.47,23.51-42.4,33.82-18.2,12.58-37,24.73-53.47,39.58-4.1,3.69,1.1,9.35,5.56,7.22Z"/><path class="cls-1" d="M440.83,587.59c6.89,3.11,15.37,1.47,22.58.18a182.84,182.84,0,0,0,23.72-6.17c15.38-4.93,31.06-10,45-18.23,13.38-7.85,25-18.49,36.43-28.85a156,156,0,0,0,15.23-15.41c4.44-5.32,9.73-11.48,10.9-18.48.68-4.07-4.11-7.84-7.44-4.33-4.49,4.74-7.48,10.67-11.87,15.56a173.38,173.38,0,0,1-14.4,13.9c-11,9.74-22.16,19.75-35,27.07S498.77,564.61,484.63,569c-7.2,2.23-14.46,4.37-21.81,6-7.05,1.61-15.54,1.53-22,4.8-2.83,1.44-3,6.4,0,7.77Z"/><path class="cls-1" d="M447.37,585.79a163.75,163.75,0,0,0,32.5-25.25c9.87-9.65,18.5-19.86,29.76-28,11.55-8.37,21.25-17.8,30.76-28.4,9.66-10.78,20.47-20.87,29.07-32.51,3.41-4.61-3.66-9.12-7.51-5.8-10.86,9.38-20,21-29.92,31.3A197.35,197.35,0,0,1,516.7,512c-5.17,4.31-10.88,7.91-16.3,11.88-10.56,7.74-19.12,17.11-28.12,26.53-9.64,10.08-19.57,19.79-29.11,30-2.66,2.83.72,7.48,4.2,5.45Z"/><path class="cls-1" d="M464.52,574.08c11.37,4,24.44,3.34,36.15,1.13a89.3,89.3,0,0,0,17.5-5.41c5.23-2.18,12.11-4.65,15.72-9.2s.41-11.67-5.88-10.1c-5.28,1.31-9.91,5.11-14.91,7.27A87.31,87.31,0,0,1,498,562.55c-10.76,2.46-21.31,2.11-32.26,2.23-5.52.06-6.19,7.55-1.26,9.3Z"/><path class="cls-1" d="M478.66,561.71c7.54,2.85,15.47,4.72,23.24,6.85l1.72-12.71c-5.07-.33-7.93-5.53-7.51-10.13.52-5.67-7.06-7.91-10.69-4.43-4.81,4.6-8.68,11-7.08,18,1.54,6.67,6.65,10.69,13.26,11.43,7,.8,8.07-10.19,1.63-12-2.74-.79-8.26-1.79-6.78-5.68H475.28c2.54,11,11.48,19.29,23.06,19.12,3.58-.06,7-3.77,5.69-7.48-2.92-8.14-7.69-20.05.23-26.84l-7.87-7.87c-4.26,5.37-8.39,11.09-8.54,18.26a16.75,16.75,0,0,0,8.35,15.19c5.61,3.2,12.61,3.45,18.91,3.28,7.86-.21,16.2-1.32,23.56-4.16,7.82-3,4.86-15.28-3.54-12.83-9.15,2.65-18.76,5.5-28.42,4.29-11.19-1.39-5.55-11.1-1.58-17.29,3.51-5.46-4.23-11-8.74-6.74-11.07,10.34-8.32,25.11-3.75,37.85l5.7-7.47c-5.22.29-11.47-3-11.68-8.85a5.84,5.84,0,0,0-10.79-2.92c-6.83,11,4.73,19.23,14.09,22l1.64-12.05c-4.32-.51,1.78-7.54,2.68-8.26l-10.47-6.1a20.73,20.73,0,0,0,19.81,24.74c7.13.27,9-11.7,1.72-12.71-8.45-1.17-17-2.68-25.51-3-5.27-.21-5.56,7-1.17,8.66Z"/><path class="cls-1" d="M330,224.68c16.59-7.25,32.38-14.2,50.38-17.36,17.56-3.08,35.63-2.41,53.12,1,18.1,3.5,35.3,10.44,51.71,18.7,8.67,4.37,17.18,9.06,25.68,13.76,7.07,3.92,14.51,7.9,18.79,15.06,4.47,7.5,5.47,16.81,3.65,25.27-2.19,10.15-7.69,18.21-13,26.88-4.14,6.74,5.58,14.44,11,8.53,13.19-14.27,20.32-35.65,15.8-54.8A42.78,42.78,0,0,0,533,238.54c-7.87-6.52-17.46-10.9-26.46-15.62-18.81-9.88-38.3-19.39-59.13-24.17-19.61-4.5-39.26-4.65-59.15-2.07-21.07,2.74-44.51,9.08-61.82,21.93a3.52,3.52,0,0,0,3.55,6.07Z"/><path class="cls-1" d="M488.94,219c11.36,6.52,22.58,13.56,33.41,20.93,5.33,3.63,11,7.31,15.71,11.75,4.89,4.63,5.54,10.42,4.87,16.87-1.33,12.95-7.85,24.64-14.45,35.6-3.51,5.84-7.22,11.55-10.79,17.36s-8.5,11.51-10.47,18c-1.31,4.3,3.95,8.64,7.85,6,6.26-4.19,10.7-11.8,15.09-17.82A227.1,227.1,0,0,0,543,307.48c7.32-12.64,14.46-27.2,14.06-42.17-.18-6.89-2-13.72-6.4-19.13-4.66-5.7-11.71-9.66-17.86-13.55a188.46,188.46,0,0,0-41.33-19.7c-3.61-1.22-5.8,4.22-2.57,6.08Z"/><path class="cls-1" d="M255.41,402a100.18,100.18,0,0,0,11.91,51.95,103.22,103.22,0,0,0,15.34,21.36c5.83,6.27,13.62,14.14,21.87,16.92,4.77,1.61,7.84-4.74,4.7-8.07-2.75-2.91-6.55-4.71-9.75-7.1a87.23,87.23,0,0,1-9.34-8.15,93.48,93.48,0,0,1-15-19.54,96.15,96.15,0,0,1-13-47.37c0-4.36-6.56-4.32-6.75,0Z"/><path class="cls-1" d="M262.33,287.26c4,0,4-6.19,0-6.19s-4,6.19,0,6.19Z"/><path class="cls-1" d="M270,287.6c8.49-16.15,21.15-29.19,34.68-41.22a235.06,235.06,0,0,1,20.78-17,79.87,79.87,0,0,1,11.33-6.75c4.13-2,8.6-3.06,12.74-5,4.54-2.17,1.91-8.57-2.39-8.83-9.12-.53-18.61,5.2-25.88,10.14-8.16,5.56-15.71,12.09-23.1,18.62-14.61,12.9-28.06,27.46-36.83,45-2.87,5.75,5.64,10.82,8.67,5.07Z"/><path class="cls-2" d="M232,418.6c.08,7.33,2.61,14.94,4.86,21.86s4.73,13.46,7.46,20a279.29,279.29,0,0,0,19.92,39.4c6.06,9.85,14.59,20.52,27.22,20.77,14.24.28,27.41-10.15,38.87-17.25,3.74-2.31.48-7.7-3.4-5.83-6.15,3-12.5,4.76-19,6.73-5.28,1.6-11.54,5.06-17.16,4.63-10.53-.8-17-14.39-21.55-22.29a283.32,283.32,0,0,1-16.82-33.89c-2.51-6-4.69-12.22-6.9-18.38-2.11-5.87-3.69-12.15-6.68-17.63-1.74-3.2-6.86-1.73-6.81,1.84Z"/><path class="cls-2" d="M485.34,212.83c18.52,9.9,39.59,19.44,54.45,34.68,7.5,7.69,9.6,16.34,9.73,26.87,0,3.18.19,6.54-.6,9.61a51.58,51.58,0,0,1-3.19,8.34c-2.36,5.22-5.16,10.26-7.75,15.38a3.38,3.38,0,0,0,5.83,3.4,123.84,123.84,0,0,0,9.67-17.37c2.41-5.43,5-11.29,6.43-17.06,2.81-11.61-1.17-23.31-8.65-32.3-6.79-8.15-16-13.39-25.25-18.29-12.34-6.55-24.75-13-37.55-18.6-3.55-1.56-6.71,3.43-3.12,5.34Z"/><path class="cls-2" d="M555,256.3l1.88,11.58,8.41-2.32a40.57,40.57,0,0,0-4.89-10.51c-2-3.06-4.45-6.66-7.7-8.49-3.47-1.95-7.61,2-5.51,5.52,1.58,2.66,4,4.74,5.68,7.38a41.68,41.68,0,0,1,4,8.42c1.9,5.24,9.64,3.22,8.41-2.32l-2.51-11.41c-1.14-5.14-8.59-2.87-7.78,2.15Z"/><path class="cls-2" d="M235.77,328.51c-3.45,18.82-4,38.49-4.92,57.58-.83,17.45-3.28,36.28,3.68,52.8s17.65,32.33,27.6,47.35c4.12,6.22,8.23,13.06,14.62,17.22,6.68,4.36,15.05,5.6,22.86,6.05a72.22,72.22,0,0,0,27.88-3.6c8.25-2.87,17.46-7.59,23.47-14,3.21-3.44-.8-7.94-4.77-6.18-6.83,3-13,6.38-20.25,8.34s-14.6,3.57-22.16,3.79c-6.84.21-14.78,0-21-3.13-6.54-3.29-10.34-10.65-14.26-16.5-8.94-13.36-18.34-27.16-25.09-41.79-6.86-14.87-4.57-32.46-4-48.37.65-19.53,3-39.07,3.29-58.6.06-3.86-6.18-4.91-6.91-.93Z"/><path class="cls-2" d="M309.93,508.31c20.52-9.28,41.22-18.8,60.75-30.05,18.79-10.82,36.31-23.63,53.38-36.95,16.71-13,34.93-25.89,48.88-42,6.76-7.79,12.16-16.58,18.21-24.9A238.17,238.17,0,0,1,511,351.17c15.1-16,31.92-31.43,42.77-50.8,1.91-3.41-3.13-6.33-5.22-3.06-10.74,16.82-24.22,30.93-38,45.26-6.66,6.94-13.25,14-19.27,21.47-6.17,7.69-11.41,16-17.25,23.93-12.7,17.23-30.64,30-47.17,43.29C410,444.9,392.65,458.17,374.17,469.7c-21.22,13.23-44,23.75-65.88,35.81-1.85,1-.22,3.64,1.64,2.8Z"/><path class="cls-2" d="M486.53,385.62c6.43-9.07,12.58-18.35,19.28-27.22,6.84-9,14.27-17.53,21.71-26.07,6.54-7.52,12.83-15.27,18-23.84s10.77-18.86,12.18-28.7c.4-2.84-3.65-5.34-5.14-2.17-2.21,4.7-3.51,9.81-5.61,14.59a125.83,125.83,0,0,1-6.73,13.19c-5.57,9.47-12.63,17.79-19.72,26.14-13.77,16.22-27.24,33.29-36.92,52.33a1.73,1.73,0,0,0,3,1.75Z"/><path class="cls-2" d="M443.66,586.79c5.91-7.84,14.36-13,21.93-19,8.42-6.71,14.22-15.43,21.23-23.45,15.22-17.41,35.41-29.68,52.5-45.06,1.71-1.55-.57-4.6-2.5-3.24-10,7-19.32,14.87-28.87,22.37-9,7-18,14.17-25.39,22.92-7,8.34-13,17.08-21.64,23.93-7.49,5.93-15.38,11.34-20.38,19.7-1.22,2,1.76,3.63,3.12,1.82Z"/><path class="cls-2" d="M442.68,586.71c14.37,2.6,29.23-.76,42.95-5.05,14.48-4.54,28.34-10.72,42.22-16.7,1.65-.71.47-3.54-1.22-2.92-13.38,5-27.08,9.3-40.65,13.72-14.12,4.59-27.85,7.63-42.77,7-2.2-.09-2.77,3.5-.53,3.91Z"/><path class="cls-2" d="M447.68,582.84a9.8,9.8,0,0,0,7.64,4.39c2.39.26,3.05-3.26,1.17-4.34-.55-.32-5.18-2.72-3-4.11l-3.22-1.31c2.46,6.49,8.27,10.67,15.33,10.15a2.68,2.68,0,0,0,0-5.36c-4.17-.45-6.75-5.81-4.66-9.35l-4.21-.55A20.43,20.43,0,0,0,466.38,585c4.2,2.44,10.67,4.3,15.13,1.69,2.15-1.27,1-4.14-1.18-4.37-4.1-.43-7.5.36-11.4-1.68a15.44,15.44,0,0,1-7.72-9.46,2.34,2.34,0,0,0-4.22-.55,10.92,10.92,0,0,0,8.64,17l-.71-5.27a9.86,9.86,0,0,1-10.39-6,2.23,2.23,0,0,0-3.22-1.31c-6.06,3.36-1.63,9.72,2.83,11.92l1.18-4.35a4.85,4.85,0,0,1-4.77-1.94c-1.4-1.46-4.1.49-2.87,2.21Z"/><path class="cls-2" d="M463.79,566.2c-5.46,1.37-7.22,7.53-5.42,12.43,2.09,5.7,10,9.68,15.9,9a2.5,2.5,0,0,0,.66-4.88c-3.81-1.43-8.32-1-11.1-4.6-2-2.61-1.81-7,1.4-8.56,2-1,.56-3.94-1.44-3.43Z"/><path class="cls-2" d="M272.82,470.73a57.89,57.89,0,0,0,12.37,24c5.23,6.14,13.79,14.38,22,15.82a2.28,2.28,0,0,0,1.76-4.15c-3.07-2.3-6.87-3.62-10.09-5.76a55.69,55.69,0,0,1-10-8.61,59.94,59.94,0,0,1-12.75-22.25,1.74,1.74,0,0,0-3.35.93Z"/><path class="cls-2" d="M299.58,465.2c7.81,13.3,19.18,25.31,33.25,32,3.19,1.53,5.95-3,2.81-4.81-13-7.63-24.28-16.58-32.94-29-1.31-1.88-4.31-.21-3.12,1.82Z"/><path d="M667.67,215.3c22.86-22.82,45.39-47.18,54.62-78.93,3.27-11.24-4-24.88-15.63-27.53-12-2.73-24,3.59-27.53,15.63-.46,1.57-.93,3.14-1.47,4.69-.2.61-2.64,6.61-1.21,3.41s-.94,1.89-1.24,2.49c-.72,1.46-1.48,2.9-2.26,4.32-1.71,3.09-3.57,6.1-5.54,9q-1.38,2-2.82,4l-1,1.33c-1.47,2-1.31,1.76.5-.6.15,1.64-5.17,6.3-6.34,7.64-2.18,2.51-4.42,5-6.69,7.41-4.91,5.25-10,10.35-15.07,15.43-8.3,8.28-8.91,23.48,0,31.65s22.8,8.84,31.65,0Z"/><path d="M513.58,181.64c28.9-18.7,58-37.13,87.59-54.82,28.94-17.32,58.21-34.68,88.31-49.91,1.87-.94,3.74-1.86,5.63-2.75.53-.24,4.37-2,2.5-1.18a98.43,98.43,0,0,1,11.67-4.1q2.54-.72,5.11-1.28c1.14-.25,2.28-.47,3.43-.67-.37.06-2.14.23-.13,0,1.75-.19,3.51-.3,5.27-.34,1.11,0,2.21,0,3.32,0,.3,0,3.55.19,1.82,0s.82.14,1,.18c.79.17,1.58.35,2.36.56s1.55.44,2.32.69c-2.44-.78-.16-.12.41.21,1,.6,3.47,2.81,1.72.95.51.54,1.06,1.12,1.61,1.63.78.88.68.75-.31-.39l.77,1.3c-.21-.2-.66-2.46-.19-.57.17.72.41,1.44.59,2.16-.06-.23-.36-2.77-.24-.77.15,2.54.57-2.47-.06,0-.46,1.81.17-.18.33-.5-.35.68-.72,1.35-1.12,2S736.45,75.4,736,76c1.36-1.92-.08,0-.82.79-2.37,2.61-4.9,5.08-7.5,7.46-1.21,1.12-2.45,2.21-3.71,3.29l-1.9,1.58c-.36.29-3.2,2.49-1.16.95a136.13,136.13,0,0,1-18.12,11.49c-1.7.9-3.43,1.76-5.17,2.59-.74.36-1.5.7-2.25,1,0,0-2.52,1.12-1,.47s-1,.4-1.05.42c-1,.4-2.06.8-3.09,1.18-1.81.66-3.64,1.29-5.47,1.87-1.33.43-8.21,3.45-9.51,2.59-.13-.09,3.46-.13,1.36-.17-.82,0-1.69.07-2.51.13a7.71,7.71,0,0,1-1.87,0c.68,1.13,3.15-.45.87.1l-.56-.15c-.89-.27-.76-.17.39.29l1,.43c-1.24-.74-1.27-.7-.09.13,1.34,1.61,2.71,2.77,2.83,5.07a18.52,18.52,0,0,0-.21,2c-.18-.31.88-3,.9-3-.92,2.53.87-1.42,1.32-2.19s.79-1.27,1.18-1.9c.05-.09,1.43-2.12.49-.81s.85-1,1.11-1.29c.5-.55,1-1.1,1.52-1.64,1.05-1.06,2.15-2.06,3.28-3-1.82,1.56,2.21-1.48,2.93-1.92q1.92-1.14,3.93-2.11c-2.17,1.06,2-.68,2.66-.89a19.43,19.43,0,0,0,2.13-.65c0,.2-1.56,0-1.69-.1a34.43,34.43,0,0,1-6.6-6.4c-.11-1.69-.17-2-.18-.86,0,.82,0,.83,0,0-.8-.79.63-.14-.33.67.11-.09.94-1.82.12-.35s-1.79,2.91-2.77,4.31a42.1,42.1,0,0,1-5.38,6.43,56.61,56.61,0,0,1-13.45,10.9,77.66,77.66,0,0,1-8.61,4.54c-2.25,1,1.55-.57-.76.31q-1.05.41-2.1.78c-1.66.58-3.32,1.08-5,1.49s-3.42.75-5.14,1.06c-.12,0-2.55.45-.93.14s-.56,0-.77,0c6.23,2-7.65-7.93,7.79,11.4-.31-.39,1.16-2,.34-1s.58-.81.65-.9c.59-.84,1.06-1.77,1.62-2.63,1-1.5,2.06-3,3.1-4.44.44-.63.88-1.27,1.36-1.87-.22.27-1.21,1.49,0,.16a83.26,83.26,0,0,1,7.55-7.71c.58-.51,1.17-1,1.76-1.51-.51.43-2.08,1.46.49-.37,1.26-.9,2.53-1.76,3.84-2.58s2.64-1.6,4-2.33c.82-.44,1.64-.82,2.46-1.24-1.16.6-2,.69-.3.21l3.66-1c2.8-.75.19,0-.46,0,.62,0,1.24-.06,1.85-.09s1.24.11,1.82,0c-.3,0-2.78-.8-1.27-.19a20,20,0,0,0,2.18.6c.49.14,2.64,1.2.71.19s-.27-.06.09.14c-.06,0-2.23-1.7-.92-.6s-.65-1.1-.82-1.26c.21.2-.38,3,.16.72.5-2.1-.29.29-.52.65-1.18,1.81-2.16,3.74-3.47,5.47a58.39,58.39,0,0,1-13.18,12.6c-1.51,1.05-16.1,8.33-16.2,7.16,0-.5,2.44,3.31,2.08,3-3.21-2.85-.29-5.19-.3-2.92,0-.73,0-1.46,0-2.19s.37-4.94.09-2.81a54.74,54.74,0,0,1,2.2-9.37c.18-.57,1.67-4.6.9-2.76.67-1.59,1.47-3.14,2.29-4.66a69.25,69.25,0,0,1,5.18-8.15c-1.15,1.56,1.52-1.74,1.93-2.19,1.16-1.28,2.38-2.52,3.64-3.71.54-.5,1.1-1,1.66-1.48.22-.19,2.59-2.1,1.39-1.19-.43.33,2.09-1.41,2.76-1.84.47-.29,4.52-2.39,4.51-2.59,0,.46-4.09.09-2.47.17A9,9,0,0,1,672,86.89a8.77,8.77,0,0,1-1.24-2.19c.57,1.19-.4,1.76,0-.47a11.21,11.21,0,0,0,0,1.74c0,1.63,0-.65.1-.84-.21.47-1.12,3-.37,1.44a46.52,46.52,0,0,1-2.82,4.76c-1.21,1.91.33-.11-1.18,1.57-1.07,1.19-2.13,2.38-3.28,3.49-1,1-2,1.89-3.06,2.78-.52.45-1,.9-1.6,1.32,1.56-1.19-.87.54-1.15.73A80.63,80.63,0,0,1,649.5,106c-1.27.68-2.56,1.32-3.85,1.94-.65.32-4.82,2.14-3.33,1.53a134.48,134.48,0,0,1-18.59,5.95c-1.3.33-2.61.62-3.92.92-.63.14-1.26.25-1.9.36.63-.11,2.75-.13-.07,0-1.3,0-2.61.07-3.91.12-.25,0-2.44-.1-.57.06,2.14.19-1.08,0-1.05-.28l-.58-.15c1.56.78,1.86.91.89.41-1.39-1,.7.72.74.77.28.37.94,2.26.57.89s-.28.44,0,.65-.67,3.43,0-.57c-.06.37-.24,1.81.15.07a10.23,10.23,0,0,1,1.33-3,28.22,28.22,0,0,1,11.11-10.41c.65-.35,1.31-.69,2-1-1.67.8.49-.2.73-.28,1.4-.48,2.8-.92,4.24-1.27.71-.18,1.43-.33,2.16-.46,2.35-.44-1.68,0,.72-.08a49.17,49.17,0,0,1,5.15.09L628.21,84.85a20.5,20.5,0,0,1-.6,2.69c.62-1.93-.36.48-.69,1-1.2,1.72,1.1-1.06-.47.41a34.85,34.85,0,0,1-2.63,2.38c1.14-.85-.39.17-.75.38-.84.49-1.65,1-2.49,1.52-2,1.18-4.13,2.24-6.23,3.28a248.11,248.11,0,0,1-28.55,12,359.36,359.36,0,0,1-62.52,15.67l12.2,21c8.89-8.87,18.76-15.87,28.3-23,5.86-4.37,9.27-7.36,14.5-11.25s10.81-7.85,16.34-11.59A501.43,501.43,0,0,1,659.87,62q8.31-4,16.77-7.58c-2.77,1.19,2.28-1,2.25-.93q2.33-1,4.65-1.88,4.66-1.86,9.36-3.61C705.34,43.34,718,38.88,731,36a58.42,58.42,0,0,1,17.38-1.89c1.55,0,3.08.15,4.63.28-.71-.06-3.06-.59.21,0,1.52.3,3,.61,4.54,1,.59.16,6.39,2.17,3.31.88a50.64,50.64,0,0,1,6.7,3.67c3.64,2.22-1.47-2,1.43,1.18,1.07,1.16,2.24,2.17,3.23,3.41-1.56-1.94.08.19.28.55.8,1.42,1.62,2.82,2.4,4.23,2.31,4.14-.56-2.5.87,2,.57,1.84,1.19,3.64,1.67,5.5a78.93,78.93,0,0,1,1.78,8.86c-.43-3,.25,2.75.24,2.67.1,1.18.18,2.36.25,3.54a134.45,134.45,0,0,1-.63,21.14c-.56,5.61.65-3-.36,2.55-.31,1.74-.58,3.48-.94,5.22-.59,2.89-1.29,5.77-2.05,8.63a195.46,195.46,0,0,1-6.71,20.45c-3.85,9.94-10.71,23.73-17,35.29s-13.14,22.95-20.11,34.18q-20.58,33.19-43.73,64.69-5.58,7.61-11.32,15.11s-3.45,4.47-1.49,1.94c-.7.91-1.4,1.81-2.11,2.71q-3.69,4.74-7.45,9.43Q653.93,308.37,641.28,323q-28.65,33.09-60.13,63.6-15.72,15.24-32.09,29.76c-5.57,4.94-11.22,9.77-16.86,14.62s-10.32,10.75-16,15.38c-6.45,5.22-5.43,16.28,0,21.71,6.37,6.38,15.24,5.23,21.71,0-1.77,1.43,2.8-1.63,2.51-1.43l4.2-2.9c3.52-2.45,7-4.9,10.34-7.62,5.31-4.34,10.47-8.89,15.64-13.41Q586,429.11,601,414.89q29.84-28.42,57.25-59.23A1025.64,1025.64,0,0,0,758.94,222.05c31.3-49.51,62.8-106.06,52.38-166.8-2.4-14-8.37-28.51-19.21-38.1-11.41-10.08-25.61-15-40.66-16C736.19.05,720.72,4,706.29,8.61c-12.76,4-25.32,8.69-37.67,13.85-28.66,12-56,26.31-81.58,44Q567.57,80,549.42,95.33c-11.53,9.74-21,21.45-31.67,32.07-7.33,7.3-2.24,22.11,8.86,21.4a249.24,249.24,0,0,0,72.57-15.66,272.54,272.54,0,0,0,33.44-15.06c10-5.5,20.08-14,22.06-25.94C656.2,83,651,75.34,641.44,74.77c-21.05-1.27-43,9.74-53.13,28.62-6,11.3-6.85,26.52,3.69,35.54,8.83,7.55,20.06,8,31,6,8.15-1.52,16.25-4.83,24-7.82,8.88-3.44,17.69-7.38,25.46-12.95,14.44-10.37,31.85-29.69,25.37-49.08a20.74,20.74,0,0,0-13.48-13.45c-6.85-2-13.57.24-19.59,3.48a74.11,74.11,0,0,0-23.18,20.07,75.48,75.48,0,0,0-13.6,27.55c-2.62,10.32-4.19,23,1,32.71,12.94,24.16,43.42,7.75,58.8-4.34,15.69-12.32,36.14-39.33,17.26-57.74-16.86-16.44-42.46-4-57.64,8a76.31,76.31,0,0,0-19.9,23.55c-2.75,5.19-5.47,11-5.35,17,.16,8.34,4.82,15.82,12.65,18.92,10.12,4,22.05-.32,31.66-4.17a100.22,100.22,0,0,0,26.76-15.81c13.68-11.21,36.16-37.64,18.29-54.46-10.09-9.48-25.47-4.92-36.46.37a62.61,62.61,0,0,0-23.76,20.79c-7.21,10.29-10.71,23.75-3.66,35.08,6.29,10.09,19,13.45,30.22,12.3s21.89-5.31,32.18-9.79a138.36,138.36,0,0,0,26.5-15.11c17.75-13,41.05-32.18,33.9-57.07-7.94-27.61-38.83-32.91-63.28-28.22-22,4.22-42.32,16.74-61.58,27.64-40.45,22.88-80.73,46.93-118.92,73.43q-14.17,9.85-28.21,19.9c-6.58,4.72-9.75,13.07-5.38,20.52,3.95,6.76,13.69,9.8,20.52,5.38Z"/><path d="M772,41.35a8,8,0,0,1,1.75,0c-1.7-.29-2.08-.34-1.15-.14q1.67.45-1.43-1c-4.63-2.69.5.78,1.31,1.29.61.39,1.3.72,1.93,1.07,1.82,1-.68-.14-.81-.66a6,6,0,0,0,1.24,1.28c-.83-.48-2-2.62-.58-.5a22.44,22.44,0,0,0,3.29,4c4.76,4.36,12.47,6.05,18.2,2.35a15.49,15.49,0,0,0,6.91-17c-2.1-8-9.58-13.44-17.25-15.63-6.49-1.86-13.49-.16-19.38,2.83-10.37,5.25-5.6,22.69,6,22.05Z"/><path d="M761.56,29.74c-.7-4.41.23,1.27.48,2.12a14.77,14.77,0,0,0,3.32,5.7c.49.53,4.71,4,2.89,2.52,1.18,1,2.34,1.93,3.51,2.89,3.75,3.05-.78-1,1.66,1.4.82.81,1.66,1.57,2.45,2.41s1.54,1.72,2.29,2.61c-3.44-4.1,3.85,5.62.79,1.09,1.31,1.94,2.41,3.94,3.61,5.93,1.63,2.72-.34-1.46.24.37.34,1.1.78,2.17,1.09,3.28.39,1.34.6,2.71,1,4-.58-2.16-.19-2.14-.05.11.16,2.54-.19,5.07,0,7.6.51,8.93,6.4,16.31,15.47,17.53,8.3,1.12,17.72-4.06,19.58-12.78,3.56-16.68-4.29-36-16.12-47.79-5.4-5.39-13.39-10.63-20.9-12.37-5.15-1.2-10.48-1.71-15.2,1.11-4.53,2.7-6.86,7-6,12.22Z"/><path d="M773.3,39.93a23,23,0,0,1,2.23,2.18q-1-1.48.49.75c1.1,1.86,2,3.75,2.86,5.7q1.08,2.65.32.63c.41,1,.79,2.09,1.13,3.16.7,2.14,1.16,4.32,1.66,6.51s.39,2.22.12.43c.11,1.12.2,2.23.25,3.36.12,2.26.08,4.52,0,6.78s-.24,4.55-.42,6.82-.24,2.27,0,.33q-.21,1.28-.45,2.52A102.78,102.78,0,0,1,778,92c-.77,2.3-1.64,4.57-2.51,6.84-.82,2-.91,2.26-.29.75-.49,1.12-1,2.23-1.49,3.33-5.37,11.75-15.46,24-8.29,37.1,2.49,4.53,8.76,8.83,14.17,8.12,6.13-.8,11-2.12,14.91-7.17a47.85,47.85,0,0,0,4.91-8.23q4.19-8.43,7.85-17.1a131.59,131.59,0,0,0,10-36c2.68-22.46-4.65-51.5-26.85-61.91-6.36-3-13.78-2.32-18.23,3.64-4,5.38-4.19,13.74,1.11,18.55Z"/><path d="M751.62,110.79a450.86,450.86,0,0,1-28.23,48.05,363.62,363.62,0,0,1-32.74,42.34l22.8,22.8c19.94-24.15,40.66-51.09,55.73-80.63a270.09,270.09,0,0,0,19.1-47.09c5.18-17.79,6.47-38.83-5.47-54.29-11.45-14.82-34.62-22.94-51.1-11l25.65,19.72c.29-.92.58-1.82.91-2.72-1.19,3.26-.39,1,.05.28s1-1.64,1.47-2.46c1.6-2.69.33-.46-.16.08,1.29-1.42,2.73-2.68,4-4.08-2,2.12-1,.67-.11.1s2-1.28,3.06-1.86c.5-.27,3.25-1.42,1.16-.65s.79-.16,1.31-.3c.92-.25,1.86-.41,2.79-.63,2.43-.6-2.85-.13-.38.14.93.09,1.92,0,2.86,0,.64,0,3.59.52,1.21,0s.59.21,1.16.36c1.16.29,2.28.77,3.43,1-3-.71-1.37-.68-.31-.11.84.46,1.69.89,2.51,1.38s1.59,1.06,2.4,1.58c-2.9-1.84-1-.82-.31-.13.93.94,4.06,4.84,1.89,1.66.54.79,1.07,1.57,1.56,2.4.24.4,2.11,4.37,1.25,2.24s.32,1.16.47,1.65c.32,1,.59,2.1.83,3.17.12.55.72,4,.37,1.59s.06,1.08.1,1.65a90.45,90.45,0,0,1-.44,14.25c-.36,3.74-.07.63,0-.12-.17,1.09-.33,2.18-.51,3.26-.36,2.17-.8,4.31-1.23,6.46-.9,4.56-1.89,9.08-3.1,13.56-1.13,4.21-2.41,8.36-3.83,12.48-.71,2-1.45,4.1-2.23,6.13-.39,1-.78,2-1.18,3-.66,1.64-1.33,3.18-.24.66a294.34,294.34,0,0,1-26.55,47.59C746.47,172,741,179.5,735.43,186.85c-.33.43-2.49,3.23-1,1.37l-1.06,1.36q-2.09,2.65-4.18,5.28-4.46,5.59-9,11.11c-12.85,15.62-25.92,31.05-38.91,46.55l-84,100.16c-26.77,31.95-53.35,64.12-81.82,94.6-13.83,14.81-28.17,29.17-43.29,42.66q-11.07,9.87-22.7,19.07l-2.77,2.18c-2.44,1.92,2.42-1.81-.07,0-1.64,1.23-3.26,2.48-4.91,3.71q-6.33,4.71-12.82,9.25c-31.71,22.22-65.72,41.27-100.46,58.3C311,591,293.3,599,275.47,606.68c-.71.31-3.69,1.51-.07,0l-3.4,1.39q-3.42,1.39-6.87,2.7c-4.6,1.73-9.26,3.34-14,4.72S241.74,618,237,618.86c-4,.76-.64.12.17,0-1.18.14-2.37.29-3.56.4a85,85,0,0,1-8.89.37,64.24,64.24,0,0,1-7.07-.48c4.43.56-2.31-.66-3.42-.95q-2.43-.65-4.78-1.49c-.68-.25-3.49-1.51-.92-.31,2.79,1.31-.92-.49-1.48-.78-3.16-1.61-7-3.49-9.58-6,3.47,3.43-.55-.6-1.52-1.5a61.82,61.82,0,0,1-5-5.09c-.35-.41-1.8-1.84-1.83-2.21,0,.13,2.61,3.7.4.44-.94-1.4-1.91-2.78-2.81-4.21-1.94-3.09-5.06-7.27-5.8-10.87.91,4.43-.25-.73-.75-2.15-.64-1.82-1.23-3.66-1.75-5.52s-1-3.72-1.39-5.6c-.26-1.21-.47-2.43-.71-3.65-1.13-5.81.23,3.66-.34-2.22a135.64,135.64,0,0,1,.46-29.6c-.42,3.38,0,.21.09-.41.21-1.23.4-2.46.62-3.68q.67-3.69,1.48-7.35c1.22-5.48,2.67-10.92,4.28-16.3,2.78-9.24,5.93-18.41,9.4-27.4.85-2.23,1.74-4.44,2.64-6.65,1.42-3.46.51-1.19.19-.46l1.44-3.29q3.28-7.38,6.93-14.6a275.06,275.06,0,0,1,14.26-24.9l-31.36-18.33-32.4,56.37c-10.44,18.17-21.49,36.13-31.1,54.75-9.45,18.33-17.35,38.86-15.9,59.86a90,90,0,0,0,22.59,53.4c12.72,14.52,31.28,24.8,50.21,28.4,21.85,4.16,42.93,1.21,63.26-7.54,17.56-7.57,33.65-18.43,49.64-28.81q24.41-15.85,47.94-32.95C403.83,551.65,463,500.42,519.1,446c55.48-53.81,108-110.59,159.22-168.45,26.45-29.89,52.32-60.85,65.74-99,11.74-33.4,10.93-73.32-7-104.43A96.8,96.8,0,0,0,720.8,53.26l-24,31.15a46.81,46.81,0,0,1,5.53,3.1c2.85,1.78-1.64-2.1-.55-.35A19.66,19.66,0,0,0,704,89.38a13.1,13.1,0,0,1,1.65,1.91c-.13.23-2.29-3.58-.51-.34.51.93,1,1.87,1.57,2.77,1.76,2.92-.57-2.68-.17-.55.34,1.85,1.21,3.64,1.6,5.5.14.62.25,1.25.34,1.88q.25,1.58-.09-.66c-.21-1.71-.26-1.71-.16,0v1.27c0,.73.07,4.44,0,1.23-.05-2.88-.14.33-.36,1.17s-.49,1.61-.72,2.42c-1.16,4.09,1.86-3.74-.1.06l35.13,14.81c1.13-4.22,2.23-8.45,3.41-12.66a19.37,19.37,0,0,0-35.34-14.9C672.55,158.8,636,225,598.13,290.42,581.62,319,565.34,347.74,548,375.83c-8.2,13.31-16.66,26.46-25.54,39.32q-6.75,9.78-13.84,19.3-1.47,2-2.95,3.92l-2,2.59c.18-.23,1.72-2.19.4-.54-2.53,3.18-5,6.39-7.62,9.53a390.34,390.34,0,0,1-35.42,37.77q-9.15,8.55-18.93,16.42c-.84.68-1.7,1.34-2.53,2-2.25,1.83,2.39-1.79.07-.05-1.73,1.29-3.45,2.6-5.19,3.88-3.73,2.71-7.54,5.3-11.35,7.89-8.46,5.74-13,17.47-7,26.77,5.42,8.42,17.71,13.18,26.77,7,53.59-36.39,94-89,128.26-143.25,17.37-27.48,33.37-55.79,49.52-84q28.55-49.86,57.57-99.43c21.8-37.39,43.82-74.67,65.41-112.2L708.3,97.89c-1,4.25-2.12,8.48-3.19,12.72a19.32,19.32,0,0,0,11.13,22.68c8.28,3.49,19.72.73,24-7.87,13-26,4.22-62.39-23.45-75.26C707.73,46,697.61,47,691.21,55.27a19.82,19.82,0,0,0,1.55,26c1.37,1.35,2.71,2.73,4,4.18.25.28,1.78,2.2,1.86,2.18-.08,0-2.2-3-.92-1.2a98.66,98.66,0,0,1,6,9.61c.9,1.68,1.67,3.4,2.5,5.11,1,2-.65-1.4-.63-1.49a14.81,14.81,0,0,0,1,2.67,91.76,91.76,0,0,1,3.2,11c.43,1.88.74,3.78,1.12,5.67.26,1.33,1.2,3.18-.1-1a15.13,15.13,0,0,1,.32,2.89,111.45,111.45,0,0,1,.51,11.7q0,5.15-.54,10.28a14.11,14.11,0,0,1-.31,2.93c1.34-3.55.4-2.57.11-1-.38,2.17-.74,4.35-1.2,6.51a135,135,0,0,1-7.15,22.81c1.51-3.7-.48,1-1,2.19q-1.46,3.1-3,6.13c-2.09,4.05-4.34,8-6.7,11.91-4.62,7.59-9.65,14.92-15,22-.69.92-1.39,1.83-2.09,2.75.47-.61,2.4-3,0,0q-1.87,2.38-3.78,4.74-4.35,5.39-8.85,10.65c-47.39,55.8-97.36,109.79-149,161.71S407.34,497.8,349.54,542.86L346.76,545c-2.4,1.88,2.15-1.64-.27.21l-4.9,3.75q-5.61,4.28-11.26,8.49Q319,565.9,307.54,574.09C292.69,584.67,277.68,595,262.41,605c-7.65,5-15.31,10-23.24,14.58-3.83,2.2-7.73,4.29-11.73,6.17-1.06.5-2.13,1-3.21,1.46.36-.15,2.38-.86.37-.2-2.51.83-5,1.83-7.5,2.58-1.87.55-3.77,1-5.67,1.46-1.07.23-2.14.45-3.22.64-.55.09-4,.5-1.6.27,2.2-.22-.54,0-.81,0-1.09.07-2.18.16-3.28.21q-3.68.16-7.37,0c-1.91-.08-3.81-.26-5.71-.45,3.78.37-2-.43-3.22-.68a75.23,75.23,0,0,1-12.47-3.84c3.31,1.36-2.39-1.27-3.07-1.64q-2.52-1.36-4.9-2.94c-1-.66-4.49-3.45-1.94-1.26-1.74-1.49-3.48-3-5.11-4.58q-2.17-2.15-4.16-4.47c-.5-.58-1-1.17-1.47-1.76,2.17,2.64.48.6.08,0A97.08,97.08,0,0,1,147,600.05c-1.52-3-.26-.53,0,.13-.37-.95-.73-1.89-1.06-2.85-.58-1.68-1.1-3.37-1.54-5.09-.52-2-.85-4-1.27-5.94s.12.81.13,1c-.08-1.52-.26-3-.31-4.55-.06-2,0-4,.09-5.93.07-1.16.19-2.32.29-3.48.18-2.16,0,.14-.05.48A111.42,111.42,0,0,1,147,559.49q1-2.93,2.16-5.79c-1.17,2.91,1.5-3.29,1.74-3.81,2-4.31,4.26-8.54,6.55-12.72,4.69-8.53,9.64-16.92,14.5-25.36l30.49-52.92,15.24-26.47c4.74-8.23,2.19-20.24-6.52-24.84a18.56,18.56,0,0,0-24.84,6.51c-24.42,37.84-43.84,80.07-48.78,125.22-4.53,41.53,10.54,86,47,109.07,42.23,26.69,90.81,3.81,131.31-14.18,37.88-16.83,75-35.56,109.74-58.2a576.31,576.31,0,0,0,100.51-82.85c30.57-31.7,58.11-66.16,86.52-99.76l90.86-107.51c27.69-32.76,56.53-65,80.68-100.53a297.55,297.55,0,0,0,28.06-50.52A225.3,225.3,0,0,0,823.19,104c1.18-4.48,2.22-9,3-13.59.3-1.75,1.18-8.64.7-5-.52,4,.6-4.46.77-5.81.33-2.74.63-5.49.81-8.24,1.57-23.16-5.35-46.41-25.55-59.59-18.86-12.31-43.49-10.36-61,3.17a53.6,53.6,0,0,0-18.25,26.48c-2.13,6.64,1,14.26,6.26,18.35,5.13,4,13.74,5.38,19.39,1.36a16.82,16.82,0,0,1,2.08-1.35q-3.54,1.32-.83.45c1.91-.41,1.54-.37-1.12.1a17.49,17.49,0,0,1,2.4,0q-3.95-.59-1,0c.8.22,1.59.49,2.37.79-3.44-2.51-.74,0,.34.56q2.37,1.65-.47-.42c.65.57,1.26,1.17,1.85,1.8,1.26,1.46,1.15,1.27-.35-.56a21.11,21.11,0,0,1,1.31,2.19c-.74-2-.74-2,0,.13a32.8,32.8,0,0,1,.88,3.27c1,3.61.35-1.42.19,2.06-.1,2.29,0,4.57-.23,6.87.3-3.35-.64,3.28-.78,4-.83,4-1.88,7.89-3,11.78q-2,6.6-4.32,13.06c-1.18,3.26-3.45,9.07-4.16,10.73a324.89,324.89,0,0,1-23.8,44.29,341.77,341.77,0,0,1-30,40.32c-5.5,6.39-6.74,16.62,0,22.8,6.24,5.73,16.67,6.6,22.8,0a257.37,257.37,0,0,0,36.24-48.77A254.21,254.21,0,0,0,773,119.82c3.68-12.51-15.37-21.08-21.42-9Z"/><path d="M485.24,196.57c10.54,9.84,23.92,15.57,36.06,23.12,6.14,3.82,12.13,7.89,18.14,11.89,2.65,1.77,5.27,3.57,7.85,5.44.67.48,1.34,1,2,1.47q-2.17-1.71-.58-.45c1.27,1.05,2.56,2.08,3.81,3.17a82.24,82.24,0,0,1,6.52,6.28c1.1,1.2,2.19,2.43,3.2,3.72-2.6-3.33.51,1,.77,1.43.87,1.39,1.6,2.85,2.4,4.28,1.9,3.43-.43-2.37.67,1.7.81,3,1.54,6,2.26,9,.52,2.21-.11-3,.07.77.08,1.71.24,3.41.3,5.13.1,3.46,0,6.93-.2,10.39-.45,7.79-2.9,16.45-.59,24,4.72,15.43,25.8,18.47,34.27,4.48,4.66-7.71,4.62-19.51,5.08-28.5a115.37,115.37,0,0,0-1.59-25.71C602.86,242,594,227.45,582,216.38a171.4,171.4,0,0,0-39.07-26.55c-14.92-7.47-31.43-15.93-48.5-15.47-10.85.3-17.71,14.27-9.2,22.21Z"/><path d="M524.68,182.54a168.55,168.55,0,0,1,27.11,15.07c4.15,2.8,8.39,5.41,12.43,8.36,1,.7,2.84,2.14.9.63,1,.79,2,1.61,3,2.44q3,2.49,5.9,5.12c7.61,6.91,15,13.82,21.54,21.79.31.38,3,3.84,1.43,1.77s1.33,1.83,1.32,1.82c1.56,2.16,3.11,4.35,4.47,6.64.57,1,1,2,1.62,2.94-1.85-2.93-.21-.6.15.68.63,2.26.63,2.89.24.18l0,1.53q.59-4-.42-.72L640,246.13c-9.4-19.9-28.17-35.34-46.56-46.63-9.22-5.65-18.89-10.52-28.23-15.95-5-2.89-9.89-5.9-14.61-9.2-2.12-1.47-4.18-3-6.23-4.58-1-.73-.91-.69.15.14l-1.34-1.09c-.9-.78-3.34-4.13-1.69-1.1l2.36,8.73L534.82,189l-2.22.23c.36-.34,2.44.06,2.87.08,2.32.13,4.7.27,7,.62-1.82-.28,0,.09.76.26,1.42.32,2.85.59,4.27.92q3.4.78,6.78,1.73c4.51,1.25,9,2.7,13.34,4.31,2.21.81,4.39,1.67,6.57,2.55,2.73,1.1-1.9-.84.8.33,1.35.58,2.69,1.18,4,1.79a377.75,377.75,0,0,1,51.06,28.86c7.64,5.06,18.4,2.13,23.7-4.73a18.45,18.45,0,0,0-1.43-24.13c-25.88-27.12-63.81-44.49-100.5-50.21L564.32,164q-20.64,15.93-9.18,15.24c1.84.18,2.21.2,1.12.06l1.43.2,4,.54,11.87,1.63c8.89,1.22,17.75,2.61,26.61,4,17.22,2.75,35.1,4.42,52,8.64a18.86,18.86,0,0,0,22.14-10.86c3.25-7.7.92-19.78-7.68-23.43-8.87-3.77-18-6.66-27-9.94-4-1.45-8-3-12-4.57-2.06-.85-2-.81.28.14-1-.42-1.95-.84-2.91-1.27q-3.06-1.37-6.16-2.62,3,1.29,1,.43A167.73,167.73,0,0,1,598.35,131q-2.62-1.66-5.15-3.47c-.85-.6-1.68-1.21-2.5-1.84q3.87,3-2.45-1.9c3.38,2.72-1.75-1.54-2.31-2-1.58-1.38-3.09-2.83-4.59-4.3L564,147.25c19.07,2.75,37.9,7.63,56.85,11.15q14,2.61,28,4.94,6.76,1.13,13.55,2.18c2.59.41,5.17.84,7.76,1.19-1.32-1-1-1.05.87,0l3.36,1.45c7,3,13.78,4,20.7,0a20.81,20.81,0,0,0,4.15-32.21c-5.69-5.69-12.43-6.31-20-5.27l-3.61.49c1.93-.17,1.7-.28-.67-.33q-3.39-.45-1-.12l-2.92-.4q-7.3-1-14.6-2.09-13.6-2-27.18-4.29c-18.61-3.12-37.72-5.77-55.86-11.07-7.28-2.13-16.52,1.34-20.14,8.19-4,7.55-2.42,15.18,2.79,21.61,11.51,14.23,27,24.91,43.29,33.06a221.61,221.61,0,0,0,52.73,18.66l5-36.85c-11.19-.51-22.45-2.64-33.56-4.1S601.17,150.72,590,149c1.75.26-.91-.2-1.27-.25-1.31-.22-2.63-.41-3.94-.61L576.94,147c-5.92-.91-11.84-1.88-17.78-2.68-8.22-1.11-16.26.37-22.62,6a23.09,23.09,0,0,0-6.68,23.25c1.47,5.58,6.56,11.43,12.48,12.48a177.88,177.88,0,0,1,25.32,6.43q5.43,1.83,10.73,4c-3.71-1.52,2.48,1.14,3.11,1.43q3,1.38,5.87,2.87a197.74,197.74,0,0,1,21,12.57c1.8,1.23,3.55,2.52,5.33,3.78s1.74,1.3.14.07c.86.67,1.71,1.35,2.56,2,3.38,2.75,6.6,5.71,9.91,8.55l22.27-28.87c-16.54-8.7-32.72-18.16-49.84-25.71-17.91-7.9-36-13.68-55.33-16.67-12.15-1.88-26.67-2-32.35,11.46-6.09,14.42,5.72,24.94,16.14,32.87,14.42,11,31,18.58,46.35,28,3.8,2.34,7.48,4.84,11.12,7.41,2.77,2,.74.51.17.06,1,.81,2,1.64,3,2.48q2.7,2.25,5.24,4.69c.74.72,1.48,1.45,2.2,2.19.3.32,3.21,3.38,1.66,1.65-1.32-1.47.26.37.44.62.87,1.27,1.72,2.52,2.52,3.83,1.07,1.75,2,3.56,2.94,5.37,1.65,3.09.2.33-.06-.35.55,1.43,1,2.88,1.52,4.35a19.67,19.67,0,0,0,16.22,14c7.12,1,16.15-2.34,19.44-9.31,4.25-9,5.66-18.51,2-28.06-3.15-8.3-7.88-14.74-13.39-21.64a157.86,157.86,0,0,0-25-24.95,142,142,0,0,0-70.15-29.63c-5.67-.77-11.22.87-13.54,6.65-1.93,4.77-.62,12,4.7,14.34Z"/><path d="M588,267s-.32,2.55-.08,1.21-.37,1.13-.36,1.1c-1,3.15-.21,1.09,0,.4-.61,1.69-1.45,3.26-2,5s-1.08,3.27-1.46,4.88c-.62,2.7,1.08-2-.15.51-.51,1-1,2.09-1.54,3.12-3.59,6.93-7.78,13.62-11.66,20.4q-11.7,20.44-24.86,40-6.33,9.4-13,18.6-3.31,4.6-6.73,9.14-1.83,2.44-3.69,4.87c-.1.13-1.86,2.41-.63.82l-1.18,1.51q-14.54,18.52-30.27,36.09-8.73,9.75-17.85,19.15c-6.89,7.1-14.42,13.89-19.15,22.68-3.44,6.39-3,15.3,2.63,20.45,5.88,5.4,13.38,6,20.45,2.64,8.21-3.88,14.79-10.61,21.14-17q8.91-9,17.48-18.29Q532,426,547.25,406.32a686.31,686.31,0,0,0,56.59-84.41c10.2-18.1,23.95-42.24,9.7-61.81-3.63-5-9.2-8-15.48-6.3C592,255.45,588.33,261,588,267Z"/><path d="M278.83,551.44c6.9,5.87,14.78,8.24,23.76,5.88,6.94-1.83,13.51-6.06,19.48-9.92a156.14,156.14,0,0,1,17.37-10.14s2.58-1.11,1.08-.5,1.11-.4,1.13-.41c1.6-.58,3.21-1.16,4.82-1.71,3.51-1.18,7-2.28,10.53-3.5,7.75-2.71,15.58-5.84,22.25-10.7s12.58-10.49,18.53-16.23c2.46-2.36,5-4.67,7.55-6.88q2.28-1.93,4.62-3.8c-1.9,1.52,2-1.48,2.62-1.94,6-4.39,12.18-8.48,18.42-12.5,13-8.42,26.09-16.7,38.36-26.24s22.77-20.61,32.84-32.28c10.81-12.52,21.4-25.25,32.09-37.88,11-13,22.24-25.77,32.3-39.48,10.76-14.66,18.5-31,24.8-48.06s12.16-35,14.35-52.95c1.07-8.7-7.55-16.33-15.34-17.38-9.34-1.26-16.06,4.37-19.42,12.67-5.46,13.51-7.88,28.37-12.56,42.21q-1.68,5-3.56,9.91c-.63,1.63-1.27,3.26-1.94,4.88,1.39-3.36-.87,1.93-.95,2.1a162.57,162.57,0,0,1-10.73,20c-2,3.12-4.09,6.17-6.28,9.16.08-.1-3.57,4.74-1.66,2.27-1.14,1.47-2.31,2.91-3.47,4.36-4.77,5.9-9.68,11.69-14.54,17.51q-15.61,18.69-31.23,37.37c-9.56,11.43-19.2,22.88-30.26,32.91q-3.23,2.93-6.6,5.68c-.08.06-4.5,3.51-1.83,1.48-1.36,1-2.74,2.05-4.13,3.06-6,4.36-12.23,8.46-18.46,12.52-12.73,8.3-25.41,16.59-37.27,26.14-5.32,4.28-10.24,8.95-15.11,13.74-2,2-4,4-6.1,5.85-1.25,1.12-2.51,2.27-3.84,3.29,2.24-1.72-2.93,1.81-3.45,2.11-6.16,3.58-11.16,4.77-19.59,7.71-8.14,2.83-16.1,6-23.16,11-5.82,4.12-11.21,8.85-17.25,12.66-2.84,1.8-5.89,3.2-8.78,4.9a45.34,45.34,0,0,0-5.06,3.75q2.2-2.07-1.89,1.32c.94-.55.8-.43-.43.36-4.89,3.31-7.22,11.22-2,15.64Z"/><path d="M274.15,550.39c5,11.14,21.06,10.78,29,3.42a20.59,20.59,0,0,0,6.89-14.39c.22-6.07-2.14-10.14-5.83-14.86l-7.38,28c17.18-6.4,34.27-13.49,51-21a221.52,221.52,0,0,0,21.69-11c7.87-4.61,18.81-10.46,22.93-18.83,5.94-12.09-3.88-27-17.87-23.24-8.26,2.21-15.36,9.27-22.75,13.52a222.86,222.86,0,0,1-21,10.49c-5.83,2.58-12,5-19.66,8.15C302.13,514.36,293,518,284,521.94c-10.52,4.64-9.75,19-3.39,26.27l.74.84-4.29-7.36a6.88,6.88,0,0,1,2.35-6.6q4.85-6.39,1.12-3.48c-1.92.89-3.65,2.89-4.93,4.53-3.42,4.38-3.73,9.17-1.44,14.25Z"/><path d="M198.65,640.12c8.55-3.14,17.59-4.18,26.12-7.24,9.21-3.31,18.59-6.73,27.33-11.14,14.61-7.39,28.42-16.49,41.9-25.75,27-18.57,52.7-39.15,82.93-52.5,7.23-3.18,14.68-6,21.38-10.26C409,526.49,421.64,515.14,417,501c-2-6.16-8.49-12.82-15.7-12-6.78.81-11.72,2.85-16.54,7.82-1,1-2,2-3,3-2.42,2.27-.21.15.36-.22-.81.53-1.59,1.1-2.41,1.61-5.85,3.73-12.31,6.38-18.66,9.13a275.51,275.51,0,0,0-41.78,23c-26.73,17.58-51.4,38.3-78.88,54.73-8.06,4.81-16.15,9.63-24.42,14.09-9.08,4.9-17.35,11-26.81,15.21-5.57,2.47-7.32,10.41-5.08,15.51,2.31,5.26,8.76,9.37,14.65,7.19Z"/><path d="M195.5,436.6c.17.18,3.15,3.92,1.35,1.4a42.47,42.47,0,0,1,2.35,3.73c1.22,2.16,2.27,4.43,3.27,6.7-1.45-3.29.43,1.31.55,1.65.51,1.43,1,2.87,1.46,4.32.93,2.91,1.73,5.86,2.65,8.78A179.57,179.57,0,0,0,247,532.24a172.91,172.91,0,0,0,12.87,12.53c1.87,1.65,3.67,3.5,5.64,5l.9,1q-5.26-5.76-2-13.49c1.41-1.79,1.43-1.94.06-.43l-2.42,2.36c-4.45,4.32-8.93,8.62-13.56,12.75-2.1,1.88-4.24,3.73-6.4,5.54-1.3,1.09-2.6,2.16-3.92,3.22-.88.71-1.76,1.42-2.65,2.11,1.6-1.22,1.54-1.18-.19.14-10.44,7.78-21.37,14.62-32.5,21.35-2.41,1.45-4.85,2.87-7.3,4.26s-6.82,2.75-8.94,4.77c2.39-2.28,20.27,2,12,2.83l1.16,1.36q-1.29-2.64-.05.16a95.34,95.34,0,0,1-3.4-9.28,137.05,137.05,0,0,1-4.21-17.55q-.44-2.42-.78-4.86c.57,3.91-.14-1.47-.18-1.86q-.51-4.9-.7-9.84a158.4,158.4,0,0,1,.61-21.34c.15-1.63.33-3.27.54-4.89-.48,3.66.36-2,.48-2.69q.93-5.26,2.19-10.46a162.64,162.64,0,0,1,6.5-20.31c1.24-3.19.44-1.1.15-.42.87-2,1.8-4,2.76-6,1.69-3.45,3.52-6.81,5.46-10.12H179.39a602.62,602.62,0,0,0,67.3,104.81L255,551.4c-10,3.85-20.34,7.07-30.71,9.94-5.18,1.44-10.58,2.27-15.7,3.82-1.33.25-1.24.27.25.06,2.56-.53,4.76.54,6.59,3.24,3.07.49,5,1.95,5.87,4.36.48,1.24.57,1.35.26.34-.12-2.61-1.46-5.72-2.1-8.25-5.46-21.49-11-42.92-17.09-64.21L169.9,514.39c9.07,12.17,17.31,25,25.8,37.56s17,25.13,24.88,38.1c5.13,8.42,17.13,12.36,25.81,6.77,7.7-5,13.21-17.45,6.77-25.81-9.3-12.08-18-24.52-26.75-37s-17.71-24.71-25.82-37.55a17.9,17.9,0,0,0-22.2-7.27c-8.44,3.57-12.09,12.17-10.29,21,2.64,12.8,5.32,25.51,8.36,38.24l4.54,19c1.6,6.69,2.69,13.81,5.37,20.16,3.92,9.3,12.52,16,23,15.78,6.84-.12,14-2.06,20.6-3.67,13.69-3.31,26.67-8.27,39.61-13.81,12-5.15,10.81-21.52,3.81-29.62q-4.74-5.5-9.36-11.11-2.29-2.82-4.56-5.65l-2.25-2.85c-.56-.71-1.67-2.13-.49-.6q-9.18-11.91-17.64-24.36a461.64,461.64,0,0,1-29.91-51c-6-11.76-23.48-10.63-29.76,0a174.33,174.33,0,0,0-18.08,133.1c2,7.58,4.06,16.34,8.21,23.06,6.67,10.77,19.58,14.54,31.19,9.82,29.48-12,55.78-30.25,78.78-52.16,5.72-5.46,12-11.43,16.16-18.2a25.15,25.15,0,0,0-4.29-31.41c-1.75-1.66-3.77-3-5.66-4.5s1.89,1.72-.14-.14c-.61-.55-1.25-1-1.87-1.59-2.67-2.32-5.27-4.74-7.78-7.23s-4.94-5.07-7.28-7.73c-1.08-1.22-2.15-2.46-3.19-3.72-.52-.63-1-1.28-1.55-1.9-1.94-2.22,2.3,3.16-.77-1a165.83,165.83,0,0,1-12.78-19.94c-2-3.59-3.72-7.26-5.43-11,0-.12-1.13-2.58-.42-.94s-.57-1.43-.68-1.71q-1-2.61-2-5.24c-5.6-15.69-11.2-32.62-24.64-43.45-6.45-5.2-15.41-6.31-21.71,0-6,6-5.69,15.64,0,21.71Z"/><path d="M189.35,416.27c-11.63,10.08-24,20.21-33.79,32.1-10.42,12.67-20.38,25.75-29.74,39.22q-13.32,19.17-25,39.42c-8.08,14-16,28.46-21,43.93-5.65,17.45-6,35.81,1.46,52.73,6.51,14.78,19.51,26.59,32.82,35.24,25.07,16.28,57.62,22.39,87.12,19.36,38.37-4,73.48-19.17,108.08-35.39,6.8-3.19,10-12.14,9.11-19-1-7.28-6.31-14.05-13.67-15.88-18.1-4.5-35.15.6-52.36,6a187.78,187.78,0,0,1-22.91,5.66c-1.79.32-3.59.6-5.39.88,2.91-.46-1.46.17-2.34.26q-6.33.66-12.68.81c-3.61.08-7.23,0-10.84-.16-1.79-.1-3.59-.23-5.39-.4l-2.68-.29c-3-.27,2.38.51-.56-.08-7.42-1.5-14.74-2.94-21.89-5.48-1.61-.57-3.2-1.17-4.78-1.83,2.85,1.18,0-.07-1.18-.63q-4.31-2.07-8.41-4.54c-2.73-1.65-5.3-3.49-7.92-5.29,2.35,1.61-.33-.27-1.18-1q-2-1.63-3.84-3.39a90.48,90.48,0,0,1-7.54-7.88c-.47-.56-.91-1.13-1.38-1.68-1.59-1.89,1.27,2-.06-.13-.91-1.42-1.95-2.76-2.86-4.19a92.64,92.64,0,0,1-4.88-8.84c-1.35-2.76-.37-.77-.12-.14-.36-.9-.7-1.81-1-2.72-.66-1.83-1.26-3.67-1.75-5.55-3.54-13.6-21.8-15-28.92-3.78-18.16,28.62-11.72,66,9,91.35s56.25,36.29,88.1,33.51c9.55-.84,18.85-7.86,18.37-18.38-.41-9.35-8.11-19.15-18.37-18.38-15.44,1.15-31.1,2.59-46.55,1,3.16.33-2.29-.37-2.71-.44-1.49-.28-3-.59-4.45-.94-2.71-.65-5.4-1.43-8-2.35-.52-.18-5-2-2.74-1s-2.12-1.07-2.6-1.31c-2.71-1.4-5.13-3.14-7.75-4.68-1.84-1.08,2.15,2-.4-.29-1.11-1-2.24-2-3.31-3s-2-2.18-3-3.28c-2.78-3,1.25,2.22-.7-1-.73-1.22-1.5-2.38-2.16-3.63-.33-.61-.63-1.22-.91-1.84-.57-1.25-.39-.82.54,1.27-.19.09-2.09-7.13-2.25-7.9-.93-4.32,0,3.85,0-.57,0-1.37-.1-2.72-.06-4.09l.06-1.36q.29-3.09-.19.79c-.21-1.06.58-3,.85-3.94.35-1.29.79-2.55,1.25-3.8-.78,2.12-1,1.93.18.09.27-.44,2.59-4.23,1.16-2.09s1.72-1.81,2.15-2.24L79.58,583.69c-16.17,27.77-16.84,65.93.51,93.36,16.85,26.63,49.59,44.22,81.35,40.81,9.66-1,19.11-7.82,18.63-18.63-.42-9.3-8.24-19.63-18.63-18.63-13.89,1.33-27.87,2.65-41.82,1.55-1.53-.13-3.07-.26-4.59-.46,3.59.47-1.61-.33-2.32-.47a83.26,83.26,0,0,1-10.32-2.7c-.51-.17-4.38-1.53-1.83-.6s-1.25-.59-1.75-.84a64.56,64.56,0,0,1-7.57-4.36c-.43-.29-3.73-2.73-1.65-1.11s-1.6-1.43-2-1.79c-1.95-1.78-3.74-3.68-5.51-5.63-3-3.36,1.83,3.08-.55-.75-.62-1-1.28-2-1.86-3-.27-.45-2.48-4.56-1.27-2.19s-.41-1.18-.59-1.74c-.42-1.35-.73-2.7-1.07-4.08-1-4.22-.1,3.78-.1-1A47.76,47.76,0,0,1,77,643.6c-.62,3.94.32-.66.55-1.49.06-.25,1.68-5.06.39-1.84A31.53,31.53,0,0,1,80,636c-1.35,2.3.89-.93,1.41-1.48L53.52,618.3c-4.47,25.46-9.43,53.45,0,78.45,8.18,21.58,25,41.57,48.67,46l4.87-36a57.48,57.48,0,0,1-11,.4c-.91-.06-1.83-.14-2.74-.24q3.9.56.8,0c-1.79-.43-3.59-.75-5.37-1.26s-3.5-1.13-5.24-1.73q-2.86-1.14.57.25c-.84-.38-1.67-.78-2.5-1.2a75.64,75.64,0,0,1-9.44-5.84c4,2.81-.92-.85-1.64-1.49q-2.08-1.85-4-3.84c-1.28-1.34-2.47-2.74-3.65-4.16,3.06,3.66-.65-1.08-1.17-1.9q-1.48-2.33-2.76-4.77c-.42-.82-.82-1.64-1.2-2.47.9,2.23,1,2.41.24.52a66.82,66.82,0,0,1-2.76-10.71C54,661,45,654.82,37.78,655.14s-16.32,5.3-17.41,13.25c-2.23,16.46-4.53,33-.33,49.39,3.74,14.58,12.69,27.8,25.77,35.46V722.07l-1.21.64a5.76,5.76,0,0,1,4-1.07c-.42.24-2.55-.19-2.68.06.33-.63,3.9.91.18-.14s-.19.22-.1.1a19.42,19.42,0,0,1-2.4-1.42c-3.63-2,1.42,1.78-.06-.11-.64-.82-2.54-3.23-.39,0-.9-1.34-1.62-2.68-2.42-4.07,1.81,3.15.19.45-.17-.68s-.67-2.56-1-3.84c-.91-3.33-.23-.65-.12.2-.21-1.6-.31-3.22-.37-4.83-.1-2.52,0-5,.1-7.56.09-1.52.23-3,.36-4.55.35-4-.51,2.07.35-2.26a175.18,175.18,0,0,1,10.85-34.93c-1.11,2.6.14-.26.31-.65.64-1.41,1.25-2.82,1.88-4.23q1.71-3.78,3.47-7.55,4.35-9.33,8.76-18.63c10.47-22.13,21.27-44.15,33.83-65.18q9.39-15.72,20.08-30.61,5.28-7.4,10.83-14.6c-.49.64-1.83,2.33.44-.56l2.82-3.57q3.1-3.92,6.28-7.79c17.33-21.14,35.9-41.21,54.64-61.09,6.65-7.06,7.52-19.29,0-26.19-7.21-6.62-19.08-7.53-26.18,0-37.28,39.55-74.07,80.36-101.91,127.3C51.84,568,40,593,28.2,618,15.85,644.19,3.28,670.79,1.84,700.23c-.78,16.2,3,33.95,14.82,45.77A40.44,40.44,0,0,0,64,753.24c12.15-6.4,11.3-24.55,0-31.17-.41-.24-3.83-2.48-1.84-1s-1.4-1.37-1.49-1.46c-.69-.69-1.32-1.44-2-2.17,1.63,1.85.74,1-.2-.52-.66-1.06-1.23-2.14-1.83-3.23-.91-1.63-.58-1.29,0,.22a57.29,57.29,0,0,1-2.19-7.15c-.22-1-.4-1.94-.57-2.92.49,2.8-.05-1.15-.09-1.69a83.87,83.87,0,0,1-.1-8.39c.11-3.13.36-6.25.69-9.36.13-1.24.27-2.49.42-3.73,0,0,.77-5.81.34-2.65H20.37c3.25,20.73,15.93,38.46,32.53,50.75,17.18,12.71,38.21,16.83,59.07,14,7.54-1,13.76-10.45,13.44-17.66-.34-7.55-5.37-16.21-13.44-17.66a42.56,42.56,0,0,1-6.11-1.5c-.88-.3-1.74-.63-2.59-1-2.27-.92,2.58,1.54.59.12-1.64-1.18-3.56-2.2-5.29-3.28,1.19.74,1.91,1.63.38.24-.7-.63-1.4-1.24-2.08-1.89-1.54-1.48-2.89-3.1-4.31-4.68-1.67-1.85,1.49,2.37.2.22-.49-.81-1.09-1.57-1.6-2.38A63.37,63.37,0,0,1,88,687.7c-.43-.86-.83-1.73-1.24-2.6,1,2.19.52,1.27-.1-.43-6.37-17.72-3.57-39.19-.87-57.48,1.06-7.18-.63-15.15-7.68-18.88-6.32-3.33-15.21-3-20.26,2.62-2,2.24-3.77,4.64-5.59,7,2.29-3-2.09,2.73-2.8,3.83a59.23,59.23,0,0,0-5.94,12.57c-3,8.55-3.14,17.45-1.78,26.29C44,675.28,52.63,689.17,64,698.53c27.9,23,63.26,22.61,97.46,19.33V680.6a87.74,87.74,0,0,1-8.87.51c-1.47,0-2.95-.05-4.42-.15-1.9-.12-4.17-.51-1,0a79.67,79.67,0,0,1-8.67-1.89q-2.15-.62-4.23-1.35c-.63-.22-5-2.18-1.19-.37-2.68-1.28-5.33-2.57-7.89-4.1-1.26-.76-2.51-1.56-3.73-2.4-.52-.36-4-3.35-1.14-.77-2.21-2-4.45-3.88-6.49-6-1-1.08-1.93-2.23-2.93-3.32,2.49,2.7-.48-.68-.84-1.2a64.64,64.64,0,0,1-4.62-7.92c-.34-.7-1.93-4.83-.73-1.53-.52-1.45-1-2.89-1.5-4.36a89.07,89.07,0,0,1-2.14-9c-.71-3.59,0,2.36-.18-1.64-.06-1.54-.21-3.08-.24-4.62s.09-3.08,0-4.62c-.1-3.49-.63,2,.12-1.69.56-2.77,1.15-5.5,2-8.21.45-1.47,1-2.9,1.48-4.37.45-1.14.36-1-.27.55.3-.7.63-1.4,1-2.08a70,70,0,0,1,5-8.63c4.9-7.28,2-17.66-4.53-22.7-7.21-5.58-16.41-4.45-23.11,1.37C56,603,62.38,646.05,86.85,667.45c28.52,24.95,66.43,25.2,102.07,21V651.72a103.83,103.83,0,0,1-19.86.75c-1.52-.1-3-.25-4.57-.4-5-.49,3.59.77-1.33-.22-3-.61-6-1.19-8.93-2q-2.56-.71-5.08-1.58c-.48-.16-4.78-1.76-2.88-1s-3-1.39-3.44-1.64q-2-1-4-2.15a72.63,72.63,0,0,1-7.53-5c2.69,2-.73-.72-1.27-1.2-1.31-1.17-2.58-2.38-3.79-3.66-1-1.05-1.89-2.17-2.85-3.25-.74-.91-.61-.74.39.5-.57-.78-1.12-1.58-1.65-2.38a83.7,83.7,0,0,1-4.28-7.55c-2.13-4.07.94,2.91-.65-1.4-.5-1.36-1-2.72-1.42-4.1a92.2,92.2,0,0,1-2.16-9.12c-.19-1.2-.15-.95.1.75-.08-.72-.14-1.43-.19-2.15-.12-1.66-.18-3.33-.17-5,0-1.43.12-2.85.19-4.27.2-4.48-.72,3,.14-1.36.56-2.8,1.37-5.48,2.14-8.22,1-3.44-1,1.47.55-1.45.88-1.71,1.76-3.38,2.76-5l-28.92-3.78c7.56,28.89,27.63,53,53.9,67,31.39,16.8,68,18,102.24,10.93,8.94-1.84,17.62-4.56,26.43-6.93,2.36-.63,4.72-1.24,7.11-1.74.89-.19,1.78-.37,2.68-.53s4.67-.32,1.19-.21c2.08-.06,4.12-.26,6.2-.2.54,0,4.23.27,1.86,0s2.71.65,2.71.65L290,609.91c-6.63,3.12-13.27,6.22-20,9.2l-5,2.22c-.19.08-5.75,2.43-2.19.95q-5.93,2.47-11.92,4.75a241.54,241.54,0,0,1-42,12.08c-1.8.33-3.6.61-5.4.91-5.9,1,3.88-.28-1.51.18-3.19.27-6.38.56-9.58.75a149,149,0,0,1-19.25,0c-1.59-.12-3.18-.3-4.78-.42-5.26-.4,3.78.73-1.43-.17-3.14-.54-6.28-1.09-9.39-1.82S151.42,637,148.4,636c-1-.33-2-.66-3-1-.68-.24-6.67-2.79-3-1.12A121.36,121.36,0,0,1,126,624.52c-4.22-2.79,2.4,2.25-1.56-1.17-1.25-1.08-2.52-2.14-3.72-3.28s-2.38-2.31-3.49-3.53c-.75-.81-1.47-1.64-2.14-2.51q1.55,1.94-.21-.51c-.68-1.19-1.45-2.31-2.11-3.52-.35-.66-1.79-3.87-.68-1.11A38.65,38.65,0,0,1,110.5,604c-.07-.28-.93-5.69-.54-2.13a55,55,0,0,1,0-10.18c.39-5.15-.9,2.8.39-2.26.58-2.27,1-4.56,1.67-6.81,1-3.42,2.18-6.78,3.5-10.09-1.11,2.77,1.16-2.62,1.11-2.5.49-1.08,1-2.16,1.52-3.24,3.32-6.88,7-13.59,10.78-20.25q10.38-18.4,22.13-36,6.85-10.25,14.15-20.19c5.08-6.92,7.38-9.9,12.41-16.15,10.49-13,19.57-26.82,30-39.65,4.38-5.41,5.29-12.94,0-18.23s-13-4.57-18.23,0Z"/><path d="M24.07,731.48c-1.28,7.52-2.19,15.5,2.49,22.11l-1.34-10.3c-2.36,10.9,3.32,19.41,14.62,20.8,4.88.6,9.79,1,14.7,1.25A212.34,212.34,0,0,0,84,764.69c20.58-1.9,40.59-6.28,59.75-14.09a226.55,226.55,0,0,0,54.78-31.66c8.44-6.62,16.24-14,24.2-21.15,8.73-7.87,13.89-12.11,23.23-18.26a292.82,292.82,0,0,1,30.66-17.38c10.72-5.35,22.27-9.77,32.54-15.91A16.82,16.82,0,0,0,316,625.31c-3.11-7.36-11.77-12.27-19.77-9.7-10.26,3.3-20.24,8.47-30,13.1-9.29,4.42-18.41,9.27-27.25,14.55-18.6,11.13-34.53,25.1-50.46,39.67-3.54,3.23-7.11,6.43-10.81,9.48-.84.7-1.69,1.38-2.54,2.07-.33.26-2.53,1.94-.45.36q-3.27,2.48-6.63,4.81a201.82,201.82,0,0,1-23.89,14.21c-3.9,2-7.85,3.84-11.87,5.53,2.42-1-.15,0-.55.18-1,.4-2,.81-3.05,1.2q-3.82,1.46-7.71,2.76a239.07,239.07,0,0,1-26.81,7.41c-2.67.56-5.34,1.08-8,1.53-1.07.19-2.14.35-3.22.53-5.25.84,3-.31-2.26.32-4.88.58-9.78,1-14.7,1.24-5.45.24-10.91.21-16.36,0C41.55,734.19,35,733,28.4,739l23.2,6.12L51,743.29l-1.35,10.3c3.92-7.17,3.36-14.52,1.11-22.11a14.15,14.15,0,0,0-13.33-10.15c-5.65,0-12.33,4.25-13.34,10.15Z"/><path d="M109.54,739c8.22-3.72,16.88-6.12,25.44-9,9-3,17.73-6.67,26.5-10.14,18.25-7.22,36-15.88,53.5-24.65,16.81-8.4,33.23-17.53,49.33-27.22q12.29-7.4,24.3-15.21,5.61-3.66,11.16-7.39c5.75-3.88,12.11-7.44,15.36-13.83,2.95-5.81,3.38-12.32,0-18.1-2.9-4.94-9.43-9.62-15.49-8.88-4.74.58-8.56,1.21-12.71,3.73-2.17,1.31-4.2,2.92-6.29,4.35q-5.52,3.79-11.1,7.48-12,7.92-24.2,15.41c-16,9.8-32.39,19-48.89,28s-33.37,17-49.8,26c-8.32,4.57-16.82,8.88-25,13.78s-16.21,9.83-24.94,13.77c-6.23,2.81-7.73,11.85-4.54,17.31,3.75,6.41,11.06,7.37,17.32,4.55Z"/><path d="M72.73,748c2.73,2.22,4.14,4.88,7.49,6.87,3.88,2.31,8.24,2.88,12.64,3.37a71.27,71.27,0,0,0,21.8-1.14c12.25-2.39,24.36-6.38,36.06-10.65,24.54-8.93,48.25-20.38,71-33.09,46.4-25.88,90.11-56.86,132.05-89.39q35.47-27.51,69.13-57.27c7.69-6.8,7.46-20.83,0-27.68-8.12-7.45-19.58-7.36-27.68,0q-28.33,25.77-58.05,50-7.24,5.89-14.57,11.69-3.66,2.9-7.34,5.77l-2.95,2.29c2.33-1.81-3.1,2.39-3.61,2.77-3.87,3-7.7,5.94-13.38,10.23q-8.22,6.21-16.53,12.28C239.2,663,198,690.53,153,710.61c-5.75,2.57-9.31,4-15.88,6.65s-13.37,5.15-20.17,7.38a176.06,176.06,0,0,1-19.17,5.05,50.93,50.93,0,0,1-8.45.8,32.11,32.11,0,0,0-5.27.51,14.07,14.07,0,0,0-4.56,1.63q2.72-.07-.42-.06c-7.24-.05-12.66,10.31-6.38,15.4Z"/><path d="M110,749.35C122,757,136.8,754.3,150,751.83a185.34,185.34,0,0,0,33.35-9.78c22.47-8.82,43.34-21,63.57-34.08,22-14.19,43.58-29,65.32-43.54,21.26-14.23,42.77-28.08,64-42.42q18.33-12.42,35.67-26.16c10.57-8.4,21.56-17.25,30.24-27.64,6.52-7.8,8.22-20,0-27.51a19.87,19.87,0,0,0-27.51,0c-8.72,8.09-16.94,16.6-26.06,24.29q-6.13,5.18-12.48,10.09c3.15-2.45-1.52,1.15-1.76,1.33l-2.86,2.15q-3.95,3-7.92,5.86c-20.13,14.78-40.76,28.91-61.35,43-21,14.39-41.93,28.88-63,43.17-19,12.86-38.29,25.36-59,35.27-2.84,1.36-5.7,2.67-8.57,4-1,.47-2.08.93-3.13,1.38,2.65-1.14-2.45,1-3,1.2a183,183,0,0,1-17.71,5.92,153.4,153.4,0,0,1-18.15,3.89c-3,.45-6.1,1-9.07,1.7-1.17.3-2.06.67-3.17,1.06a39.66,39.66,0,0,0-4.9,2q-4.26,3.67-2.43,1.75a12.1,12.1,0,0,0,0,20.64Z"/><path d="M462.35,191c8.76,12,20.29,17.37,33.92,22.31,2.71,1,5.42,2,8.11,3,1.23.47,2.45,1,3.67,1.45.44.18,5.28,2.28,1.43.57,5.07,2.25,10.11,4.54,15,7.1a154.52,154.52,0,0,1,14.29,8.36c2.18,1.44,4.3,3,6.42,4.49,4.21,3-2.92-2.5,1,.8,1,.83,2,1.64,3,2.48A117,117,0,0,1,560.78,253c.85,1,1.64,2,2.5,2.95,1.59,1.78-2-2.81.19.25a90.74,90.74,0,0,1,5,7.88c5.25,9.29,18.74,13.22,27.9,7.31,8.59-5.54,13.94-18.61,7.31-27.89-14.48-20.3-32.72-35.57-54.65-47.36a272.46,272.46,0,0,0-33.33-14.82c-5.11-1.92-10.27-3.71-15.43-5.49-3.28-1.12,1.26.77-.64-.2-1.13-.58-2.3-1.08-3.41-1.71-.78-.44-4.11-3.14-1.26-.52-.7-.64-3.59-3.87-1.21-.71-5.71-7.56-15.94-12.26-24.85-6.52-7.59,4.89-12.51,16.64-6.52,24.85Z"/><path d="M190.85,421l.09-.15c4.92-7.3-6.8-14-11.75-6.87l-.31-.25,8.7,6.63-.18-.59c2.42-4.73-1.78-12.71-7.83-10.18q-3.25,1.36-6.5,2.77l9.43,9.43c11.77-18.35,24.27-37.14,42.51-49.7l-10.19-7.83c-9.34,23.86-8.26,50.6,2,73.92,3.45,7.88,15,1.07,11.58-6.77-8.94-20.32-8.58-43.1-.16-63.46,2.29-5.53-5.46-11.13-10.18-7.83-20.24,14.13-33.88,34.49-47.41,54.71-3.15,4.7,2.18,12.41,7.78,10.12,1.63-.66,3.25-1.32,4.88-2l-7.83-10.18a12.78,12.78,0,0,0-1.59,7.59c.6,4.5,3.89,7.72,8.7,6.63a13.1,13.1,0,0,0,8.4-6.14l-11.75-6.87a11.23,11.23,0,0,0-1,8.74c1.85,6.89,13.12,5.71,12.7-1.72Z"/><path d="M203.65,387.68c-1.53,4.92-2.18,10.2-3.31,15.23S197.59,413,196,418l11.43,1.55.85-27.57c.19-6.23-7.87-7.52-11-3-5.32,7.73-8.52,16.59-11.61,25.38l11.13,1.51a13.93,13.93,0,0,1,3.09-9.23l-10-4.22c-2.12,7.12-5.33,14.65-5.94,22.06-.4,4.87,6.65,6.31,8.91,2.42,3.7-6.4,5.31-14.56,7.61-21.57,1.63-5-5.73-9.7-9.17-5.33a24.8,24.8,0,0,0-5.8,15.87c0,6.72,9,7.26,11.13,1.5,2.95-7.87,6-15.48,10.87-22.43l-11-3-.67,27.57c-.17,6.65,9.58,7.77,11.42,1.55,3.05-10.32,5.5-22.72,3.59-33.44-.68-3.8-6.14-3.23-7.14,0Z"/><path d="M215.26,372.12c-9.76,19.61-6,43.21,5.38,61.41,3.85,6.16,12.15,1.91,11.11-4.68-2.7-17.15-9.84-33.81-7.06-51.46l-10.79-1.46a94.28,94.28,0,0,0,4.43,40.35c2,5.85,11,5.07,11-1.5q0-12.58-.29-25.18c-.21-8.12.15-16.67-1.59-24.63-1.36-6.22-9.71-4.07-10.31,1.4-.88,7.92.28,16.24.52,24.2s.39,16.14.43,24.21l11-1.49a86.33,86.33,0,0,1-4.28-37.36c.62-6.1-9.87-7.59-10.8-1.46-2.93,19.35,2.65,38.64,5.94,57.61l11.11-4.68c-10.2-15.67-11.79-34.2-8.94-52.35.61-3.89-4.85-7.12-6.94-2.93Z"/><path d="M226.07,362.17c1.62-1.65,3.87-3.35,4.27-5.74a4.44,4.44,0,0,0-1.1-4.13,4.38,4.38,0,0,0-4.13-1.09c-2.41.45-4,2.66-5.67,4.33a4.69,4.69,0,0,0,6.63,6.63Z"/><path d="M412.27,194.09A127.93,127.93,0,0,1,450.14,191c6,.34,7.56-9.85,1.44-10.68a78.84,78.84,0,0,0-42.45,6.28c-4.35,2-1.18,8.46,3.14,7.45Z"/><path d="M420.55,195.49c9.06,1.23,18,1.89,27.1,2.73,4.59.42,9.16,1,13.72,1.71s9.07,2.23,13.75,1.21c5.16-1.13,5.43-8.15,1.4-10.71s-9.64-2.54-14.43-3q-6.72-.72-13.48-1a104.45,104.45,0,0,0-28.06,2c-3.39.74-3.68,6.64,0,7.14Z"/><path d="M423.9,191.62c29.89-16,56.77-37.37,84.77-56.38,13.35-9.06,26.92-17.76,40.81-26,6.86-4.06,13.15-8.57,20.36-12.08,7.42-3.61,16.23-6.36,23-11,6-4.15,2.42-13.64-5-11.91-7.94,1.84-15.84,7-22.92,10.89-6.93,3.85-14.12,7.13-21,10.93-14.61,8-28.49,17.75-42.19,27.21s-27.12,19.1-40.43,29c-14.43,10.72-28.78,21.13-41.95,33.4-3.24,3,.89,8,4.6,6Z"/><path d="M452.88,187c17.14-12.71,34.91-24.66,52.86-36.2q13.15-8.46,26.78-16.14,7-4,14.13-7.7c4.87-2.56,10.6-4.65,15-8,6.14-4.61,2.94-15.76-5.6-13.27-5.11,1.49-9.87,4.58-14.53,7.13q-7.44,4.08-14.76,8.39-14.25,8.4-28,17.67a386.71,386.71,0,0,0-51,41.52c-3.33,3.19,1.17,9.43,5.05,6.56Z"/><path d="M458,189c17.95-8,36.48-15.59,53.77-25l-9.12-11.82a56.22,56.22,0,0,1-25.92,12.89l7,12.07c1.82-2.32,3.66-4.6,5.58-6.85,4.56-5.35-1.68-15.55-8.16-10.57a81.32,81.32,0,0,1-24.07,13.1l6.77,8.81a18.51,18.51,0,0,1,5.9-7.22L462.54,165a34.08,34.08,0,0,1-18.66,8.75l5.74,9.87C472.4,162.2,496.84,142.57,522,124q18.71-13.76,38.22-26.34c13.26-8.56,27.14-16.1,40.44-24.57,7.59-4.82,1-15.94-7-12C579.39,68.26,565.78,77.31,552.41,86Q532.6,99,513.61,113.13c-25.54,19-49.4,40.11-72.34,62.18-4.66,4.48.36,10.66,5.75,9.87a44.79,44.79,0,0,0,24-11.71c4.9-4.51-1.61-13.3-7.23-9.36a30.89,30.89,0,0,0-10.22,11.46c-2.22,4.4,1.49,10.51,6.77,8.81a108.7,108.7,0,0,0,27.68-13l-8.16-10.57c-2.05,2.11-4.13,4.14-6.27,6.16-5.58,5.28.35,13.36,7,12.07a70.79,70.79,0,0,0,32.72-16.18c6.75-5.78-1.85-15.6-9.12-11.82-17.39,9-33.94,20.13-50.57,30.47-4.86,3-.63,9.78,4.4,7.52Z"/><path d="M74.19,755.48c5.57,1.43,11.13,2.61,16.55,4.58V750a40.87,40.87,0,0,1-13,2.6c-6.3.14-7.67,9.26-1.49,11,18.18,5.22,37.32,1.18,52.93-9.1,8.7-5.73-1.24-18.51-8.7-11.26-10.82,10.52-27,13.31-41.24,9.52l-1.5,11a40.61,40.61,0,0,0,17-4.35c3.76-1.88,3.19-8.83-1.24-9.49-6.48-1-12.81-1.53-19.31-.53-3.11.48-2.78,5.25,0,6Z"/><path d="M75.22,761.28c6.28,2.57,12.34,5.52,18.68,8l3.49-12.67a112.1,112.1,0,0,0-23-2.06L76.22,768a153.16,153.16,0,0,1,23.21-2.34c7.64-.19,15.31.58,22.88-.8,6.91-1.27,13.14-4.8,19.68-7.19A106.47,106.47,0,0,1,164.43,752c9.76-1.3,8.1-14.78-1.82-13.44a114.27,114.27,0,0,0-22.5,5.28c-6.83,2.39-13.39,6.3-20.53,7.69s-14.84.28-22.09.53a179.4,179.4,0,0,0-24.9,2.73c-7.68,1.35-5.74,13.5,1.82,13.42a158.74,158.74,0,0,1,21.24,1.29c8.31,1,8.39-12.25,0-13.13A183.06,183.06,0,0,1,77.23,754c-4.88-1-6.47,5.5-2,7.32Z"/><path d="M25.22,759.46c6.26,4.68,19.75,9.59,26.08,2.7A5.32,5.32,0,0,0,49,753.39c-3.24-1.08-6.44.14-9.77.13a19.29,19.29,0,0,1-9.12-2.39c-5.61-3-9.75,4.69-4.87,8.33Z"/><path d="M99.91,764.17c4.86.49,9.84,1.13,14.71.66,4.2-.4,8.41-1.16,12.54-2A202,202,0,0,0,154,755.6c16.65-5.62,32.92-12.42,49-19.47,32-14,62.74-30.5,90.07-52.36,2.9-2.33,2.38-7.25,0-9.68-2.82-2.88-6.81-2.3-9.68,0-26.09,20.87-55.83,36.72-86.24,50.3-15.55,7-31.32,13.61-47.46,19.11-8.18,2.78-16.5,5.23-24.91,7.24-8.57,2-17.27,4-25.9,5.79-4.6.93-3,7.23,1,7.64Z"/><path d="M269.17,703.57c3.17-2.91,7.14-4.54,10.65-7,3-2.11,6-4.39,9-6.54,7.17-5.12,14.35-10.24,21.48-15.43L331,659.5c7-5.08,15-9.76,21.18-15.77,5.55-5.39-1.51-14.14-8.12-10.53-7.89,4.31-15.08,11-22.29,16.35l-21.38,16q-10.47,7.82-20.71,15.94c-3.27,2.6-6.86,5.07-9.52,8.33a65.36,65.36,0,0,0-6.18,9.82,3.3,3.3,0,0,0,5.16,4Z"/><path d="M307.37,677.9c12.42-3.5,22.9-13.63,33.07-21.29,10.78-8.12,21.36-16.52,31.95-24.89q31.19-24.63,61.69-50.08c38.77-32.48,77.75-65.18,113.07-101.46,19.25-19.79,38.4-40.9,53.46-64.13,2.26-3.49.68-8.4-2.74-10.45-3.89-2.33-8-.54-10.45,2.74-14.64,19.37-29.52,38.16-46.26,55.8s-34.48,34.32-52.6,50.54c-38.69,34.62-78.64,67.89-118.76,100.83-11.46,9.41-23.05,18.68-34.57,28Q327,650.25,318.76,657c-5.81,4.78-11.45,9.28-15.31,15.82a3.51,3.51,0,0,0,3.92,5.1Z"/><path d="M545.2,473.36c13.43-7.45,25.16-17.51,36.75-27.51,11.26-9.71,22.57-19.43,33.48-29.54a872.41,872.41,0,0,0,63.6-65c20.18-23.06,38.48-47.69,56.43-72.5,18.11-25,36.32-49.94,50.25-77.64,15.12-30.07,26.44-61.86,37.68-93.53,3.58-10.09-12.45-14.42-16-4.41-9.76,27.46-19.5,55-32,81.35-13,27.37-29.9,52-47.56,76.48-17.86,24.82-35.92,49.51-55.69,72.86a856,856,0,0,1-61.36,64.56c-12.07,11.56-24.13,23.15-36.36,34.55-12,11.19-24.28,22.17-34.06,35.44-2.23,3,2,6.47,4.87,4.87Z"/><path d="M542.83,475.32c6.7-2.21,12.42-8.17,17.69-12.67,6-5.09,11.45-10.71,17-16.29l-10.21-7.87c-5.95,8.37-13,15.91-20,23.42-5.72,6.14,2.73,14.06,9,9a247.89,247.89,0,0,0,39.92-40.37c5.86-7.46-4.51-15.61-10.38-8a241.31,241.31,0,0,1-38.56,39.36l9,9c7.94-8.21,15.65-16.49,22.2-25.88,4.27-6.12-5.13-13.09-10.2-7.88-5.47,5.62-11.1,11.08-16.36,16.9-4.7,5.19-10.67,10.44-13.38,17-1,2.45,2,5,4.27,4.27Z"/><path d="M576.54,448.13c7.77-6.33,15.66-12.3,23.21-18.92l-10.54-6.14a40.52,40.52,0,0,1-8.1,12.91c-3.65,3.88-9,6.09-10.92,11.2-1.44,3.88,2.18,6.92,5.56,7.3,6,.68,12.52-6.59,16-10.85a53.1,53.1,0,0,0,9.57-17.2c2.08-6.18-6.21-10.31-10.54-6.14-7.18,6.94-13.75,14.29-20.65,21.47-4.1,4.27,2,10,6.36,6.37Z"/><path d="M97.65,768.63c14.29,2,29.11-3.37,42.64-7.5,14-4.29,27.79-9.32,41.32-15a482.43,482.43,0,0,0,77.7-40.95c3.83-2.49.26-8.66-3.6-6.15A494.27,494.27,0,0,1,181.51,739c-12.93,5.59-26.13,10.51-39.47,15-14.27,4.78-28.94,9.86-44,11.47-1.63.18-2.39,2.9-.42,3.18Z"/><path d="M257,710.21c9.83-3.53,18.72-9.49,27.56-15,9.25-5.74,18.38-11.7,27.41-17.78q13.17-8.87,26-18.25,6.79-5,13.48-10c3.89-2.95,8.41-5.66,11.3-9.62,1.64-2.24-1.12-5.95-3.76-4.88-4.56,1.84-8.24,5.47-12.15,8.43q-6.33,4.8-12.73,9.49-13.2,9.66-26.67,18.92c-8.72,6-17.56,11.84-26.46,17.57s-18.14,10.76-26,17.66c-1.54,1.34.08,4.18,2,3.48Z"/><path d="M359.81,642c10.22-7.41,21.61-13,31.85-20.4,10.56-7.59,17-19.44,27.6-26.81,3.89-2.69.2-9.11-3.74-6.39-11.15,7.69-17.7,20-28.8,27.81-10.21,7.15-22.83,12.24-29.38,23.32-.87,1.47,1,3.57,2.47,2.47Z"/><path d="M412,598.3c12-6.23,22.3-14.38,32.41-23.35,5-4.46,9.94-9,14.81-13.64s10.42-8.9,14.15-14.3c2-2.9-1.95-6.76-4.84-4.84-5.24,3.47-9.5,8.78-14,13.16-4.8,4.69-9.65,9.32-14.6,13.86-9.84,9-20,17.61-29.92,26.53-1.44,1.3.39,3.41,2,2.58Z"/><path d="M470.51,550.09c5.74-3.13,10.79-8.16,15.62-12.5,5.27-4.73,10.38-9.62,15.41-14.59,10.12-10,19.88-20.31,30.07-30.22A828.14,828.14,0,0,1,596.71,436c3.7-2.91-1.51-8.06-5.17-5.17a800.64,800.64,0,0,0-64.24,56.29c-9.94,9.74-19.53,19.82-29.18,29.83-4.7,4.87-9.44,9.7-14.3,14.4-5.22,5-11.36,9.61-16.09,15.11a2.31,2.31,0,0,0,2.78,3.61Z"/><path d="M561.54,465.08c15-12.57,29.69-25.09,43.92-38.55,14-13.24,28.93-26.42,41.46-41.08,3-3.54-1.66-8.34-5.14-5.14-14.27,13.13-27.24,27.85-41.16,41.37s-27.78,27.28-42,40.52c-1.95,1.81.9,4.54,2.88,2.88Z"/><path d="M644,386.42c4.68-2.57,8.16-7.24,11.73-11.12,3.75-4.07,7.54-8.13,11.25-12.25,7-7.83,14-15.78,20.28-24.28s11.31-18.08,17.92-26.46c6.74-8.55,14.52-16.24,22.22-23.92,3.1-3.09-1.69-7.88-4.81-4.8-7.73,7.66-15.46,15.36-22.2,23.93-6.41,8.15-11.33,17.23-17.28,25.69-6.27,8.92-13.54,17.06-20.74,25.23-3.89,4.42-7.7,8.9-11.55,13.35-3.39,3.94-7.37,7.81-9.37,12.68-.61,1.48,1.35,2.61,2.55,1.95Z"/><path d="M698,322.51c22.77-21.09,41.34-46.22,57-72.92,2.27-3.85-3.76-7.37-6-3.5-15.22,26.48-33.85,50.63-53.74,73.74a1.9,1.9,0,0,0,2.68,2.68Z"/><path d="M728,284c9.65-12.53,19-25.26,29.53-37.08,8.54-9.6,17.18-19.28,22.08-31.32,1.39-3.41-4.51-5.93-6-2.53-5.47,12.5-14.5,22.14-23.24,32.39-9.73,11.4-17.52,24.08-25.65,36.63-1.36,2.1,1.84,3.79,3.28,1.91Z"/><path d="M824.85,62.86a276.08,276.08,0,0,1-10.2,50.84c-4.93,16.4-12.44,31.55-19.88,46.91C780.51,190,767,220,748.28,246.94c-2.58,3.71,3.44,7.15,6,3.53,19.74-27.67,33.42-59.41,48-89.95,7.3-15.29,14.54-30.52,19-46.93,4.49-16.6,6.24-33.6,7.11-50.73.12-2.32-3.33-2.23-3.56,0Z"/><path d="M815.82,123.36c-6.92,9.64-12.15,20.83-17.67,31.31-5.75,10.92-11.44,21.86-16.68,33-1.78,3.79,3.86,7.13,5.67,3.31,5.41-11.41,11.17-22.63,16.83-33.91,5.29-10.54,11.32-21.17,15.14-32.35.71-2.06-2.18-2.94-3.29-1.39Z"/><path d="M813.26,134.07c-8.62,14.87-16.8,30-25.21,45q-6.07,10.85-12.36,21.55-3.37,5.78-6.82,11.51c-2.07,3.46-4.8,6.84-5.68,10.81a2.88,2.88,0,0,0,4.78,2.78c3.08-2.58,4.84-6.67,6.87-10.1q3.4-5.76,6.74-11.56,6.21-10.75,12.2-21.64C802.1,167.3,810,152,816.91,136.2c1.06-2.42-2.25-4.54-3.65-2.13Z"/><path d="M442.42,589.69c19.56,3.85,39.41-1,57.81-7.79a184.58,184.58,0,0,0,44.54-23.73,189.9,189.9,0,0,0,61.64-76.48c8.1-18.22,13.9-37.62,15.72-57.52.26-2.88-4.48-3.52-5.06-.69-6.73,32.86-17.11,64-37.24,91.21a179.55,179.55,0,0,1-74.91,58.65C485.61,581.4,464,588,442.9,586.1c-2-.18-2.5,3.2-.48,3.59Z"/><path d="M401,193.09c-28.62,4.17-56.9,11.51-82.13,26.07-24.15,13.93-43.43,34.34-58.5,57.61-15.54,24-27.33,50.56-31.93,78.92a191.5,191.5,0,0,0,4.65,81.79A182.12,182.12,0,0,0,251,480c8,13.84,16.82,29.08,29.55,39.15,1.87,1.48,4.54-1.11,2.66-2.66-11-9-18.44-21.77-25.8-33.74a181.05,181.05,0,0,1-17.65-37.59,186.2,186.2,0,0,1-8.22-79.81c3.15-27.83,13.27-53.84,27.48-77.84,13.92-23.5,31.82-45,54.85-60,26.29-17.15,57.35-26,88-31.47,1.93-.35,1.08-3.19-.81-2.92Z"/><path d="M401.41,195.33c58.71-.64,116.87,22.6,160.28,62.1,1.87,1.7,4.64-1,2.78-2.78-21.93-20.52-48.41-36.1-76.27-47.14-26.94-10.68-58-18.68-87.11-14.5-1.33.2-1,2.33.32,2.32Z"/><path d="M230.45,346.7c-49.26,45.06-93.14,96.52-132.11,150.66A955.05,955.05,0,0,0,44,581.56C28,609.65,10.91,639.2,3.31,670.91c-7.25,30.22-3.58,66.3,21,88,2.2,1.93,5.42-1.23,3.24-3.23C5.26,735.14.73,703.17,6.87,674.67c6.74-31.25,23.38-60.38,39-88,31.95-56.49,70-109.49,112.33-158.67,23.64-27.49,48.76-53.6,74.61-79,1.52-1.5-.78-3.77-2.34-2.34Z"/><path d="M824.93,57.4c1-13.25-4.87-26.11-12.79-36.45-8.85-11.56-20.66-17.47-35-19.72-16.42-2.57-33.38-.74-49.66,2a270.43,270.43,0,0,0-49,13.28c-31.18,11.56-60.23,27.95-88.83,44.74-30.66,18-60.84,36.47-89.7,57.29-32,23.09-62.69,47.93-93.66,72.36-2.21,1.73.9,4.8,3.08,3.08C462.36,152.26,514.82,110.51,573,76.21c55.32-32.6,112.16-67,177.84-71.54,17.2-1.2,37.83-.55,51.37,11.59,11,9.83,21,25.92,20.38,41.14-.06,1.51,2.21,1.48,2.32,0Z"/><path class="cls-3" d="M33.71,763.64c51.12,13.13,102.86-3.52,149.44-24.33,48.41-21.62,94.71-46.59,138.23-76.94,64.93-45.27,125-97.26,182.93-151.08,22.08-20.51,43.64-42,66.66-61.44.68-.58-.31-1.56-1-1-39.81,33.68-76,71.51-115.35,105.71-36.85,32-74.85,63.19-114.18,92.13a806.54,806.54,0,0,1-132.63,79.59C154.15,751.76,94.47,777.8,34,762.62a.53.53,0,0,0-.28,1Z"/><path class="cls-3" d="M492.23,524.42c25.41-24.5,51.32-48.47,77.08-72.61,28.22-26.45,56.43-53.14,81.79-82.38,27.09-31.23,54-62.86,78.61-96.07a615.48,615.48,0,0,0,34.92-52c11.11-18.67,20.76-38.1,30.19-57.66a369.12,369.12,0,0,0,21.37-53.93c5.46-18.22,9.75-37.5,8.55-56.63-.06-.88-1.43-.88-1.37,0,1,17.4-2.53,34.91-7.2,51.59a334.25,334.25,0,0,1-18.73,50.35c-17.44,37.61-37.18,73.61-61.39,107.3s-51.45,65.5-78.44,97.18c-25.29,29.69-53,56.94-81.27,83.74S519,496.17,491.61,523.8a.44.44,0,0,0,.62.62Z"/><path d="M42.43,767.65c49.2,12.94,99.3-1.78,144.51-21.45,46.62-20.29,91.62-43.81,133.8-72.25,40.83-27.54,79.22-58.56,117-90.12,23-19.23,45.29-39,67.33-59.33q20-18.42,40-36.85c9-8.22,17.63-17,26.9-24.82,2.06-1.74-.91-4.68-3-2.95C529,493.71,492.28,531.27,452.19,565c-37.59,31.63-75.33,63.18-115.31,91.79a809.73,809.73,0,0,1-127.65,74.44c-51.32,24.12-108.41,47.45-166,33.35-2-.48-2.82,2.54-.84,3Z"/><path d="M501.85,528c28.6-26.45,57-53.16,85.42-79.78Q608.9,428,629.85,407c17.09-17.14,32.89-35.34,48.56-53.77,29.55-34.75,58.84-70,83.85-108.18A593.86,593.86,0,0,0,797,183.68c7.55-15.21,15-30.36,20.6-46.4,6.29-18,11.1-36.77,12.58-55.82,1.27-16.37.12-34.44-9.91-48.14-1.54-2.11-5.09-.1-3.55,2.07,8.83,12.46,10.16,28.59,9.35,43.41-.94,17-4.87,33.85-10,50.06-4.84,15.35-11.28,29.8-18.26,44.28-10.16,21.1-21,41.77-33.54,61.55C739.91,273,711,307.88,681.74,342.47c-15.09,17.87-30.06,35.85-46.3,52.69-13.94,14.45-28.33,28.46-42.83,42.34C561.79,467,529.42,495.27,500,526.18a1.32,1.32,0,0,0,1.86,1.86Z"/><path d="M285.05,524.82c12.43-1.61,23.75-7.86,35-13.09q19.26-9,37.78-19.43a550.38,550.38,0,0,0,68.62-46,526.75,526.75,0,0,0,113.1-121.88c8.21-12.31,16.32-24.95,22.28-38.54,3.4-7.77,5.57-15.93,8.58-23.84,1.12-2.95-3.83-5.08-5.14-2.17-2.84,6.32-4.69,13-7.21,19.39-4.42,11.31-10.7,21.83-17.14,32.07a505.78,505.78,0,0,1-49.54,66,544.38,544.38,0,0,1-125,104.18q-19.54,11.87-40,22.05c-7,3.46-14.11,6.59-21.09,10-6.77,3.35-13.17,6.37-20.7,7.58-2,.33-1.58,3.9.49,3.64Z"/><path class="cls-3" d="M228.88,476.9a140,140,0,0,0-19.8,37.73c-4.31,12.65-8.69,28.27-6.39,41.72,2,11.5,11.19,19.22,22.11,22.13,13.76,3.68,28.89-.61,41.77-5.59.69-.26.43-1.34-.31-1.13-13.15,3.84-26.52,9-40.4,5.62s-22.6-13.78-22.39-28.16c.38-25.41,11.51-51.55,26.1-71.92.3-.42-.39-.81-.69-.4Z"/><path class="cls-3" d="M464.66,437.3c44.15-44.67,87.49-90.5,124.86-141.1,9.78-13.24,20.27-26.87,24.05-43.2a.62.62,0,0,0-1.2-.33c-5.08,19-18.06,34.85-29.7,50.25-12.13,16.07-24.87,31.68-38,46.94-25.76,29.95-53.08,58.52-80.57,86.89a.39.39,0,0,0,.56.55Z"/><path class="cls-3" d="M531.77,201.71c13.07-8.6,28.79-14.93,43.88-19,9.16-2.48,17.92-1.08,26.77,1.9,9.22,3.11,18.72,7.61,19.76,18.49a.66.66,0,0,0,1.32,0c.28-7.71-5.74-13.36-12.21-16.53-8.19-4-18.1-7-27.29-6.59s-18,4.54-26.46,7.77c-9.18,3.52-18.11,7.57-26.2,13.22-.46.31,0,1.05.43.74Z"/><path class="cls-3" d="M180,445.89C134.89,496.56,101.9,559.36,88.19,626c-.14.7.92,1,1.09.3C105,559.75,135.36,498,180.62,446.54c.39-.44-.25-1.09-.64-.65Z"/><path class="cls-3" d="M51.31,624c-9.2,14.5-12.72,34.12-4.84,50,8.17,16.46,26.25,22.65,43.51,23.56,20.09,1.06,40.91-2.95,60.31-7.8a299.87,299.87,0,0,0,61.22-22.68,290.54,290.54,0,0,0,61.14-40.92c.62-.54-.28-1.43-.9-.9A302,302,0,0,1,166,683.91a280.31,280.31,0,0,1-59,11.94c-17.7,1.53-38.4.62-52-12.36-16.2-15.46-13.92-41.37-2.9-59,.32-.5-.47-1-.79-.46Z"/><path class="cls-3" d="M512.2,461.71a843.92,843.92,0,0,0,165.66-175.2q19.92-28.29,37.39-58.2a.56.56,0,0,0-1-.57,857.24,857.24,0,0,1-151,188.69q-24.93,23.37-51.66,44.7c-.41.33.17.9.57.58Z"/><path class="cls-3" d="M498.71,153.22A432.28,432.28,0,0,1,637,71.73c17-6.12,34.28-10.54,51.71-15.13.71-.19.4-1.23-.31-1.09-27.16,5.13-54,14.92-79.23,26.06a426.81,426.81,0,0,0-111,71.1c-.38.33.17.88.55.55Z"/><path class="cls-3" d="M767.83,44c13.63,8.51,16.29,25.17,15.54,40-.77,15.29-3.23,30.49-8.47,44.89-.21.57.75,1,1,.42,6.5-15.35,8.89-33.5,9-50.09,0-13.89-3.94-28.5-16.54-36a.47.47,0,0,0-.47.81Z"/><path class="cls-3" d="M685.65,89.09c10-1.72,19.25,4.33,24.23,12.8s5.24,18.63,4.17,28c-2.24,19.85-8.9,39.48-17.2,57.56-.27.59.6,1.11.88.52A206.6,206.6,0,0,0,710,155.44c3.11-11,5.93-22.64,5.84-34.15-.14-16.54-11.16-36.37-30.42-33-.54.1-.31.92.23.83Z"/></g></g></svg>