<svg xmlns="http://www.w3.org/2000/svg" viewBox="0 0 397.55 400.01"><defs><style>.cls-1{fill:#fff;}.cls-2{fill:#ededed;}.cls-3{fill:#d3d3d3;}.cls-4{fill:#fa48ff;}.cls-5{fill:#574aff;}.cls-6{fill:#4dffae;}.cls-7{fill:#ff0;}.cls-8{fill:#94fcff;}</style></defs><title>logo_bol</title><g id="Layer_2" data-name="Layer 2"><g id="bol_zonder_shade" data-name="bol zonder shade"><path class="cls-1" d="M144.92,385C43.2,351.81-21.68,242.91,11.91,139.88s143.27-159.66,245-126.5S417.51,167,383.92,270,246.65,418.13,144.92,385Z"/><path class="cls-2" d="M45.28,144.44c-2.6,19.41-1.24,39.14-.23,58.63,1,18.53,3.62,37.06,10.54,54.37,5.93,14.81,14,28.61,24.71,40.46A105,105,0,0,0,98,313.37c6.75,4.72,14.9,10.23,23.37,9,6.55-.94,6.66-9.16,3.48-13.16-2.49-3.14-6.42-4.23-9.87-6a81.05,81.05,0,0,1-24.13-19,113.45,113.45,0,0,1-21.27-35.29,192.25,192.25,0,0,1-11.88-49.63c-1.77-18.25-.19-36.66-2-54.87-.67-6.78-9.52-6.59-10.4,0Z"/><path class="cls-2" d="M281.41,375.36c3.23-7.16,3.09-15.12,3-22.84s-.37-16.44-3.15-23.74c-2.28-6-11-5.23-11.33,1.54-.36,7.34,1,14.84,1.33,22.2.33,7.18-.61,14.64,1.15,21.66,1,3.83,7.22,5.13,9,1.18Z"/><path class="cls-2" d="M294.65,369.05a85.32,85.32,0,0,0,5.91-26c.64-8.25,1.08-18.52-2.36-26.18-2.1-4.68-10.07-3.44-11.05,1.45-1.56,7.83,0,16.71-.34,24.73-.33,8.26-1.15,16.46-2,24.69-.6,6.1,7.87,6,9.81,1.33Z"/><path class="cls-2" d="M368.1,267.18c1.75-9.49-2.47-18.57-8.69-25.65-6.06-6.9-15.82-14.27-24.83-16.48-5.85-1.43-10.59,5.93-6,10.34,5.59,5.41,13.25,8,19,13.3s8.67,11.06,10.61,18.49c1.21,4.68,8.95,5.11,9.9,0Z"/><path class="cls-2" d="M377.44,245.61c1.57-12-7.86-20.79-16.57-27.29-5.38-4-10.83-7.91-16-12.24-5.47-4.62-10.57-9.64-16.35-13.88-5.12-3.75-12.35,3.65-8.76,8.76,7,9.93,17.21,17.69,27,24.72,6.75,4.83,20.64,10.33,21.2,19.93.37,6.21,8.65,5.89,9.43,0Z"/><path class="cls-2" d="M297.8,141c3-9.69,6.52-19.46,7.7-29.57,1.21-10.37-3.23-18.34-9.77-26a134.38,134.38,0,0,0-21-19.57c-6.86-5.21-17.46-14.24-26.64-12.06-2.85.68-5.23,4.33-4.1,7.21,3,7.61,12.8,11.55,19.18,16.17a143.75,143.75,0,0,1,18.53,16.15c5.69,5.85,10.5,11.22,10,19.76-.53,8.92-1.66,17.82-2.22,26.75-.3,4.88,6.94,5.55,8.29,1.13Z"/><path class="cls-2" d="M236.47,379.2c11.37,4,24.44,3.34,36.14,1.12a88.72,88.72,0,0,0,17.51-5.41c5.23-2.18,12.11-4.65,15.72-9.19s.4-11.67-5.89-10.11c-5.27,1.32-9.9,5.12-14.91,7.28A88.08,88.08,0,0,1,270,367.67c-10.76,2.46-21.32,2.1-32.26,2.23-5.53.06-6.19,7.55-1.26,9.3Z"/><path class="cls-2" d="M48.12,195.44c3.69,21.48,9.07,42.35,21.77,60.36,5.69,8.08,12,15.77,18.26,23.41,5.71,7,13.09,14.6,22.2,16.74,7,1.66,9.74-8.45,3-10.75-8.43-2.87-14.14-7.87-20.06-14.42a208.2,208.2,0,0,1-17.72-22.22A95.85,95.85,0,0,1,63,223c-3-9.72-5.22-19.65-8.51-29.3-1.38-4-7-2.39-6.33,1.75Z"/><path class="cls-2" d="M27.36,207.1a100.08,100.08,0,0,0,11.91,52A103.82,103.82,0,0,0,54.6,280.41c5.84,6.27,13.62,14.13,21.88,16.92,4.77,1.61,7.84-4.75,4.7-8.07-2.75-2.91-6.55-4.72-9.75-7.11A87.1,87.1,0,0,1,62.08,274a94,94,0,0,1-15-19.55,96.1,96.1,0,0,1-13-47.36c0-4.36-6.56-4.33-6.75,0Z"/><path class="cls-2" d="M34.27,92.37c4,0,4-6.19,0-6.19s-4,6.19,0,6.19Z"/><path class="cls-2" d="M80.63,47.83c-4.86,8.49-7.22,19.39-8.46,29-1.21,9.41-1.26,20,3.25,28.62,2.37,4.52,8.45,1.17,7.71-3.25-1.5-9-2.78-17-1.36-26.11,1.33-8.6,4.8-16.64,6.31-25.13.77-4.33-5-7.39-7.45-3.14Z"/><path class="cls-2" d="M102.46,38.35c-4.34,12.08-7.38,25.06-6.37,38,.81,10.39,3.82,23.41,12.08,30.51,4.09,3.52,10.26-.85,7.58-5.85-2.31-4.3-5.06-8.1-6.63-12.78a51,51,0,0,1-2.58-14.27c-.45-11.28,1.93-22.34,4-33.37a4.17,4.17,0,0,0-8-2.22Z"/><path class="cls-2" d="M172.7,28.7a150.17,150.17,0,0,1,77.54,13.89,155.8,155.8,0,0,1,33.24,21.33,151.4,151.4,0,0,1,14.15,13.6c4.33,4.73,8,10.71,12.73,15s11.1-1,8.54-6.59c-2.77-6-8.71-11.65-13.35-16.29a159.53,159.53,0,0,0-15.83-13.79A163.53,163.53,0,0,0,254,35.06C228.4,24.2,200.43,19.4,172.7,22.42c-3.95.43-4.06,6.64,0,6.28Z"/><path class="cls-2" d="M257.48,25c7.16,13.69,13,27.56,13.69,43.23a69.58,69.58,0,0,1-2.32,22.11c-2.24,7.89-6,15.11-8.61,22.81-1.41,4.09,4.3,5.78,6.51,2.75,20.42-28,16.82-67.32-2.95-94.59-2.73-3.76-8.54-.56-6.32,3.69Z"/><path class="cls-2" d="M207.62,10.1c8.93,7.28,16.08,15.59,18.95,27,3.33,13.3-1,25.68-2.57,38.79-.49,4,5.73,5.38,7.51,2,12.77-24,5.76-60.35-19.8-73.15-3.21-1.61-7.24,2.73-4.09,5.3Z"/><path class="cls-2" d="M9.45,192.36a130.17,130.17,0,0,0,49-6,135.63,135.63,0,0,0,22.68-9.83c6.65-3.61,15.11-7.79,19.3-14.29,2-3.12-1.35-7.74-5-6.47-7,2.45-13,8.27-19.48,12a135.91,135.91,0,0,1-20.89,9.58A142.26,142.26,0,0,1,9.45,185.8c-4.26.07-4.19,6.28,0,6.56Z"/><path class="cls-2" d="M22.72,251.5c17.56-3.57,35-6.75,52.19-12.09,12.69-3.95,30.8-8.22,36.46-21.74,1.66-4-4-8.08-7.37-5.67-5.41,3.85-9.94,8.16-16,11-6.56,3.09-13.57,5.27-20.41,7.65C52.26,236,36.74,241.45,21,245.08c-4.19,1-2.4,7.27,1.77,6.42Z"/><path class="cls-2" d="M35.26,286.3c16.39-1,32.65-3.85,47.94-10a140.9,140.9,0,0,0,22-11.11q4.94-3.07,9.57-6.58c3.55-2.7,8.08-5.41,9.91-9.57s-1.18-9.46-6.14-8c-4.09,1.22-6.68,4.25-9.87,6.94-3,2.53-6.1,4.95-9.31,7.21A139.22,139.22,0,0,1,80,266.59c-14,6.85-29.17,11.64-44.74,13-4.28.37-4.37,7,0,6.75Z"/><path class="cls-2" d="M353,277.06c1.81,8,1.6,15.94,1.91,24.07a3.72,3.72,0,0,0,7.27,1c3-9.25.85-19-3.35-27.51-1.66-3.35-6.59-.93-5.83,2.46Z"/><path class="cls-2" d="M339.07,306.25a68.87,68.87,0,0,0,13.22-13.95c3.53-5,7.35-10.61,8.06-16.76.41-3.5-4.82-5.52-7-2.92-3.58,4.2-5.5,9.71-8.5,14.35A118.49,118.49,0,0,1,334,301.15c-3.15,3.53,1.53,8,5.11,5.1Z"/><path class="cls-3" d="M44.77,275.84a57.85,57.85,0,0,0,12.36,24c5.23,6.14,13.79,14.37,22,15.82a2.28,2.28,0,0,0,1.75-4.15c-3.06-2.3-6.86-3.63-10.08-5.77a55,55,0,0,1-10-8.61,60.1,60.1,0,0,1-12.75-22.24,1.73,1.73,0,0,0-3.34.92Z"/><path class="cls-3" d="M71.53,270.32c7.81,13.29,19.18,25.31,33.24,32,3.2,1.53,6-3,2.82-4.82-13-7.63-24.29-16.57-32.95-29-1.3-1.89-4.31-.22-3.11,1.82Z"/><path class="cls-3" d="M286.47,83A58.63,58.63,0,0,1,307,121.38c.37,3.06,5.12,3.23,4.92,0a53.65,53.65,0,0,0-23.55-40.77c-1.44-1-3.21,1.29-1.87,2.43Z"/><path class="cls-3" d="M279.33,55.71c16.94,12.14,29.52,28.36,38.05,47.28,1.52,3.36,6.39.44,4.94-2.89-8.49-19.53-23.33-36-41.26-47.34-1.89-1.2-3.49,1.69-1.73,3Z"/><path class="cls-3" d="M220.89,25.83c12.23,3.84,24.25,8.28,35.44,14.59a155.5,155.5,0,0,1,15.36,9.88c5.07,3.69,9.5,8.7,14.86,11.9,2.14,1.27,5.07-1.37,3.56-3.56-3.32-4.83-8.78-8.46-13.46-11.92a134.65,134.65,0,0,0-17.57-11c-11.73-6.13-24.24-10.86-37.35-12.92a1.57,1.57,0,0,0-.84,3Z"/><path class="cls-3" d="M47.12,199.59C47,222.16,57,244.77,72.23,261.4c1.62,1.77,4.68-.55,3.35-2.59C63.71,240.56,50.34,222.5,50.5,199.59a1.69,1.69,0,0,0-3.38,0Z"/><path class="cls-3" d="M99.12,48.56C97.06,56,97.06,64.22,97.63,71.88c.54,7.18,1.27,15.23,4.38,21.78.88,1.86,4.19,1,4-1.08-.77-7.27-3-14.25-3.53-21.61s.12-14.6.12-21.94a1.76,1.76,0,0,0-3.45-.47Z"/><path class="cls-3" d="M75.45,55.63a81.6,81.6,0,0,0,1.77,39.51c.85,2.78,4.93,1.63,4.34-1.2a126.85,126.85,0,0,1-2.24-37.79c.18-2.2-3.42-2.69-3.87-.52Z"/><path class="cls-4" d="M29.45,196.32c-4.71,10.58-.92,22.35,1,33.25.86,4.87,1.44,10,6.15,12.79a10.11,10.11,0,0,0,7.53,1.08c1.58-.42,3.48-1.95,4.62-2.23H44.58l.89.21c6.13,1.44,10.6-3.72,9.57-9.57-1.87-10.6-3.11-21.31-4.73-31.95-1.7-11.23-13.64-11.76-22.12-6.93-7.31,4.16-2.42,17.05,5.89,14,.1,0,4.54-1.39,4.53-1.36l-3.53-3.43.28,1.88c-.07,3.3,1.06,7.07,1.55,10.34,1,6.51,2.08,13,2.86,19.56l9.84-7.5a10.19,10.19,0,0,0-5.94-.09c-1,.37-1.88.78-2.8,1.23-1.32.67-1.26.74.16.2l4,1.09-.85-.51,2.86,2.86c-.85-1.2-.92-4.13-1.21-5.88-.5-2.92-1-5.85-1.5-8.77-.81-4.7-2.51-9.62-.59-14.2,3.4-8.1-10.71-14.13-14.31-6Z"/><path class="cls-4" d="M272.41,54c0,4.35-.65,9.38,1.17,13.44,1.6,3.57,4.86,6.43,7.16,9.56,5.13,7,9.92,14.53,16.5,20.27,2.69,2.35,7.43,3.1,10,0,7.32-8.72,8.36-18.61,1.47-27.95-6-8.11-14.73-13.16-22.85-18.83-7.76-5.42-15.27,7.41-7.43,12.71,5.44,3.68,11.39,6.86,16.37,11.16,4.68,4,7.08,7.84,2.41,12.88h10c-5.19-4.87-9.43-10.36-14-15.79-2.09-2.5-4.22-4.95-6.5-7.28-3.05-3.1-2.72-5.8-3.22-10.17-.8-6.94-11.21-7.36-11.16,0Z"/><path class="cls-4" d="M353.79,273.33c-1.39,4.33,0,9.21,1.06,13.54,1.15,4.84,2.31,9.68,3.41,14.53,1.22,5.36,8,4.13,9.7,0,1.35-3.26,2.89-6.44,4.52-9.57,1.27-2.45,3.35-5,2.68-7.89-.55-2.4-2.67-4.57-3.65-6.83a29.34,29.34,0,0,1-2.28-9.76c-.37-5.72-7-7.07-10.2-2.77q-2.75,3.66-5.48,7.34c-4.24,5.68,5.38,11.3,9.55,5.58q2.7-3.69,5.39-7.39l-10.2-2.76c.78,7.86,3.24,15.42,8.48,21.47l-.78-6.08c-2.67,4.81-5,9.74-7.22,14.79l9.19,1.2c-.76-5-1.42-10.08-2.15-15.12-.66-4.55-1.26-8.73-4.19-12.35-2.35-2.91-6.85-1-7.83,2.07Z"/><path class="cls-5" d="M59.81,243.05a45.83,45.83,0,0,1,9.3,12.09c2.17,4.13,2.55,9.69,5.3,13.35,3,3.95,7.24,3.26,11.37,1.82,6.24-2.19,12.41-4.52,18.58-6.9,2.3-.89,4.79-3.09,4.49-5.89l-3.49-31.93L93,227.27,103.49,256l8-8c-4.61-1.42-9.23-.95-13.8.42-4.38,1.32-8.43,3.31-13.1,2.79L88,263.77q8.22-5,16.86-9.25c6.83-3.35,2.54-12.11-3.48-12.83a47.84,47.84,0,0,0-20.34,2l6.85,11.77,10.43-8.7c5.46-4.55-.4-13.65-6.81-11.69a42.93,42.93,0,0,1-23.68.41v13.14a140.3,140.3,0,0,0,31.24-14.22c7.67-4.84.37-17.21-7.1-12.14a91.25,91.25,0,0,1-27.77,13.22c-6.68,1.78-6.26,11.16,0,13.14a52.61,52.61,0,0,0,31-.06l-6.81-11.69-10.49,8.63c-5.53,4.55.43,13.74,6.85,11.77a44.38,44.38,0,0,1,16.6-1.78l-3.48-12.83q-8.58,4.37-16.7,9.51c-5.92,3.76-3.13,11.94,3.4,12.55,4.28.4,8.39-.65,12.4-2.06,3.53-1.24,7.28-3.18,11-2.07,4.44,1.31,9.79-3.3,8-8l-10.9-28.64c-2.3-6.06-13.33-6-12.4,1.67l3.9,31.93,4.48-5.89c-4.78,1.92-9.56,3.83-14.3,5.87-.92.4-6.77,2.17-7,3L83.28,262l-.49-1.51c0-1.12-1-2.58-1.4-3.59a53.15,53.15,0,0,0-15.15-20.32c-4.43-3.67-10.76,2.35-6.43,6.43Z"/><path class="cls-5" d="M170.5,23.27c7.93-2.22,16.12-.07,24.07,1,4,.55,8,1.07,12,1.6,2.49.33,7.57-.28,9.47,1.59,6.08,6,14.24-2.8,9.15-9.15-6-7.53-19.12-7.1-27.79-8.14C186.55,8.91,176,7.67,165.8,12.13c-6.42,2.79-1.81,12.95,4.7,11.14Z"/><path class="cls-6" d="M49.42,287.18c4,5.66,8,11.3,12.18,16.87,3.41,4.57,6.6,10.45,10.8,14.3,5,4.59,10.92,1.2,16-1.31,4.87-2.42,9.65-4.71,10.79-10.56,1.08-5.61-2.51-11-5.33-15.51-2.91-4.68-6.25-9.12-10.67-12.48-8.5-6.47-20.5-7.16-28.6.31-2.85,2.63-2.14,6.65,0,9.37,6.75,8.59,13.63,17.07,20.47,25.59,4.68,5.82,12.3-.73,11.29-6.57A63.21,63.21,0,0,0,77,283.52l-10.67,8.24a78.11,78.11,0,0,1,15.34,20.35c4.2,7.93,16.4.85,12.06-7.05a93.21,93.21,0,0,0-17.8-22.91c-5.41-5.11-15,1.55-10.66,8.23a53.28,53.28,0,0,1,8.07,20.4l11.28-6.57c-6.86-8.48-13.69-17-20.64-25.41v9.37c4.11-4,10.31-.95,13.74,2.42a43.06,43.06,0,0,1,6.12,8.08c.74,1.16,2.22,2.78,2.46,4.09.4,2.17,1,.64-.63,2.21-1.09,1-3.55,2-4.86,2.76l-2.43,1.38c-1.28.5-1.06.73.63.67-2.36-3-4.67-6-7-8.94-5.06-6.46-10.2-12.83-15.4-19.17-3.25-3.95-10.13,1.3-7.14,5.51Z"/><path class="cls-6" d="M280.31,364.09c11.53-7.32,10.92-20.49,8.44-32.38-1.46-7-11-5.86-13.05,0a24.39,24.39,0,0,0,6.59,25.74,6.8,6.8,0,0,0,11.46-4.75A89.19,89.19,0,0,0,291,324.11c-2-7.6-12.52-5.45-13.08,1.77a91,91,0,0,1-5.82,24.7c-1.27,3.42,1.42,7.31,4.68,8.25,3.84,1.1,6.87-1.36,8.25-4.68a88.74,88.74,0,0,0,6.21-28.27l-13.08,1.77a76.59,76.59,0,0,1,2.17,25.05L291.79,348c-3.76-3.49-4.72-7.84-3-12.64H275.7c1,5.05,3.24,13.74-2.1,17.29-7.09,4.71-.57,16.12,6.71,11.49Z"/><path class="cls-6" d="M231.35,53.94c9.47,3.91,17.49,10.36,25,17.18,2.51,2.27,5.79,4.88,5,8.58-1,4.56-4.41,8.5-5.52,13.14l11.73-3.09A172,172,0,0,0,250,73.35c-3.26-2.77-10.72-9.36-5.77-13.86h-9.83a179,179,0,0,1,18.91,27.25c4.54,8,17,.73,12.3-7.19a219.92,219.92,0,0,0-21.38-29.89c-2.51-3-7.24-2.35-9.83,0-7.88,7.13-6.65,19-.68,26.93,3.16,4.16,7.22,7.25,11.17,10.6a124.81,124.81,0,0,1,12.71,12.48c3.49,3.93,10.53,1.86,11.73-3.1,1.45-6,5.79-10.79,6-17.17s-3.36-12-8-16.19C257.6,54.39,246,45.62,232.66,44.27c-6-.6-5.95,7.75-1.31,9.67Z"/><path class="cls-6" d="M228.16,52.07a74.82,74.82,0,0,1,1.71,9.15c.23,3-.41,6.18.49,9.12,1.06,3.47,6.32,4.61,8.14,1.07,3.24-6.34.72-16.67-2.37-22.7-2.36-4.6-8.91-1.27-8,3.36Z"/><path class="cls-7" d="M236.88,50.68c8.35-.87,16.61,8.93,22.57,13.72,3.22,2.58,8.74,3,10.92-1.41,9.84-19.85-18.26-29.69-31.68-35.9-5.1-2.36-11.34.4-11.39,6.53l-.09,10.76c-.08,9.56,14.45,9.5,14.82,0l.41-10.76-11.39,6.54c3.22,1.61,29.31,11.42,27.31,15.81l9.51-2.49c-9.69-7.26-19.62-16.93-32.63-14.87-6.76,1.08-5.26,12.78,1.64,12.07Z"/><path class="cls-7" d="M75.11,72.36c-1.85,6.06-.48,12.73.93,18.74.69,2.93,4.44,5.35,7.39,4.2,4.67-1.82,9.29-3.78,13.93-5.68,2.53-1,4.63-3,4.56-6A41.6,41.6,0,0,0,96,63c-1.7-2.86-5.88-4.25-8.8-2.31A128.48,128.48,0,0,0,77,68.74c-2.55,2.1-2.28,5.8-1.09,8.46a45.37,45.37,0,0,0,6.27,9.88C88,94.39,99.5,83.47,92.6,76.61a25.15,25.15,0,0,1-4.69-6.46l-1.09,8.46A110.15,110.15,0,0,0,95,70.75l-10.11-1.3A27.75,27.75,0,0,1,89.5,83.63l3.08-5.36c-4.6,2-9.22,4-13.78,6l8.83,3.6c-1.87-5.44-2.74-11.28-5.15-16.51-1.53-3.32-6.43-2.1-7.37,1Z"/><path class="cls-7" d="M24.36,187.62c.59-9.34-.56-18.75.16-28.13a129.66,129.66,0,0,1,5.41-27.86l-12-3.32c-2.31,10.14-4.64,20.28-6.91,30.43a214.11,214.11,0,0,0-4.18,31.08c-.73,9.59,15.77,8.86,13.81-1.87C18.94,178.76,22,168.3,24,159.33q3-13.85,6-27.7c1.68-7.81-9.77-11.08-12-3.32a145.11,145.11,0,0,0-5.46,30.24c-.7,9.76-1,21,2.25,30.38a5,5,0,0,0,9.67-1.31Z"/><path class="cls-7" d="M274,371.61c5.24,1.78,10.85-2.21,15.56-4.32q8.13-3.62,16.39-6.9l-7.86-10.22c-5.9,8.13-15.93,13-25.78,14.13-4.28.48-8,3.33-8,8,0,4,3.66,8.35,8,8,15.9-1.41,28.93-10,37.79-23.05,4.34-6.4-3.83-12-9.51-9.52s-11.31,5.06-16.89,7.76c-5.08,2.46-11.25,4.33-13.17,10.07-.89,2.65,1,5.28,3.47,6.11Z"/><path class="cls-6" d="M373.21,257a23.44,23.44,0,0,0-1.77-19.75c-3.39-5.62-9.3-8.93-15-11.71s-14.61,2-11.88,9.14c4.63,12.14,16.48,16.78,28.72,13.51,6.11-1.63,7.47-9,3.55-13.42-7.13-8-15.84-13.52-25.7-17.55-8-3.28-12.42,8-7.75,13.31A61.69,61.69,0,0,1,355,251.3c3.35,9.64,18.46,5.72,15.45-4.26a72.25,72.25,0,0,0-15.78-27.75l-7.74,13.31a49.31,49.31,0,0,1,18.57,13.55L369,232.73c-2.91.76-7.53,1.23-8.86-2.33l-11.88,9.13c5.95,2.93,12,5.64,9.6,13.26-3.09,9.83,12.06,13.85,15.35,4.23Z"/><path class="cls-7" d="M370.86,257.11c5.08-2.77,6-9.87,7.7-15,2-5.88,4.1-11.72,6.31-17.53H371.45c2.18,10.83-1.63,21.42-8,30.11-2.55,3.48-.59,8.89,2.85,10.9,4.11,2.41,8.28.57,10.91-2.85,9.15-11.94,11-27.5,7.65-41.86-1.67-7.07-11.31-6.13-13.42,0-2,5.87-3.93,11.76-5.72,17.7-1.61,5.34-4.57,11.49-1.66,16.74a5.05,5.05,0,0,0,6.79,1.78Z"/><path class="cls-4" d="M25.42,197.65a32.84,32.84,0,0,0,14.22,3.47,4.54,4.54,0,0,0,4-2.3c.62-1.4,1-2,2.61-1.8l-4.8-4.8c.2,7.12,2.25,14.51,3.72,21.46q2.33,10.95,4.8,21.88l3.76-6.64a36.58,36.58,0,0,0-7.12,3.8c-2.32,1.57-5.05,4.09-8.07,3.44l4.09,5.37a89.78,89.78,0,0,0-9.79-45.78c-3.2-6.37-12.73-.77-9.55,5.58a80.63,80.63,0,0,1,8.21,40.2c-.1,2.23,1.78,5,4.08,5.36a16.84,16.84,0,0,0,10.72-1.28c3.66-1.71,6.54-4.79,10.3-6.29,2.8-1.12,4.47-3.52,3.76-6.63Q58,222.24,55.79,211.77c-1.45-6.83-2.39-14.3-4.89-20.83-.71-1.86-2.41-3.7-4.63-3.52-4.64.36-8.71,2.22-10.65,6.7l4-2.31A23.33,23.33,0,0,1,30,189.88c-5.2-2.32-9.81,5.22-4.54,7.77Z"/><path class="cls-8" d="M172.6,96.53c2.45,2.65,4.48,5.68,7.06,8.21s5.47,4.74,8.22,7.05c5.45,4.6,11,9.09,16.5,13.61,9,7.35,18,15.1,22.38,26.19,8.63,22,1.56,46.32,6.55,68.91,1.69,7.66,14,6,13.72-1.85-.51-12.43-.95-24.81-1.28-37.26s-1.8-25-7-36.52C233.43,133.17,224,124.72,214,117c-5.76-4.47-11.54-8.92-17.4-13.26-3.14-2.34-6.22-4.88-9.49-7s-7-3.55-10.4-5.48-6.69,2.49-4.09,5.3Z"/><path class="cls-8" d="M155.12,88.13c1.61,4.93,5.28,9.13,8.31,13.28a163,163,0,0,0,10.9,13c7,7.74,14.5,17.19,23.85,22.18,8.17,4.36,14.24-6.85,7.1-12.14-8.39-6.22-15.55-13.42-23-20.73-3.66-3.58-7.15-7.33-10.92-10.79s-7.29-7.23-12.21-8.84a3.31,3.31,0,0,0-4,4Z"/><path class="cls-8" d="M151.78,76.54c.91,18.64,14.71,33.6,27.22,46.15a328.6,328.6,0,0,0,47.46,39.43c7.06,4.81,14.17-5.55,8.8-11.4-8.52-9.29-17-18.63-25.48-27.92s-17.63-18-26-27.42l-8.4,8.39c14.24,11.4,28.42,22.88,43,33.86,6.23,4.69,14-5.55,8.31-10.77-13.38-12.31-26.6-24.74-40.55-36.39l-8.35,8.35c12.07,10.08,25.09,19.33,39.43,25.88,7.81,3.57,14.7-7.5,6.87-11.75a123.29,123.29,0,0,1-31.18-24.33L185,98.92c9.55,6.74,18.66,14.11,28,21.16,6.15,4.63,14.35-5.88,8.29-10.75l-4.85-3.9-8.26,10.7c9.61,6.27,19.07,12.78,28.54,19.25,3.68,2.52,7,4.88,8.24,9.38,1.36,5.07,1.44,10.65,2,15.86,1.22,10.9,3,22,3.11,33,.08,8.77-1.79,18.68-9.9,23.53l7.74,13.24a48.61,48.61,0,0,0,13.75-13.55c5.59-8.19-7.74-15.91-13.27-7.76a29.38,29.38,0,0,1-8.22,8.07c-8.18,5.39-.79,18.37,7.74,13.24,24.26-14.6,16.53-46.64,13.85-69.73-1.51-13-1.46-25.71-12.77-34.25-10.71-8.09-22.77-14.58-34-22-6.35-4.21-14.29,5.77-8.26,10.71l4.82,3.94,8.29-10.75c-9-6.56-18.2-12.8-27-19.64-6.57-5.14-14.84,2.72-9.27,9.27a115.93,115.93,0,0,0,33.58,26.81L224.1,113c-13.5-6.11-26.44-13.08-37.95-22.48-5.78-4.73-13.75,2.77-8.35,8.35,12.63,13,26,25.31,39.21,37.74l8.3-10.77c-14-10.75-28.39-21-42.7-31.34-5.69-4.12-11.54,4.56-7.2,9.32,8.49,9.34,16.21,19.38,24.54,28.86s16.72,18.88,25,28.35l8.8-11.4A330.68,330.68,0,0,1,190.56,115c-12.17-11.61-23.15-23.54-28.38-39.85-1.74-5.47-10.7-4.81-10.4,1.4Z"/><path class="cls-8" d="M250.35,209c.93-3.31.84-6.77,1.41-10.17s1.54-6.44,2.27-9.67c1.61-7.16,2.55-14.14.82-21.38-1.56-6.55-5.1-12.78-8-18.82-3.4-7.1-6.34-14.84-10.53-21.5l-12.69,9.79a65.17,65.17,0,0,1,11.16,11.23c3.7,4.87,5,9.32,11.73,10.19a6.25,6.25,0,0,0,5.63-3.22c3-6.55-.84-11.29-4.75-16.49a81.24,81.24,0,0,0-12.35-13.13c-5.57-4.76-16.46-.39-13.5,7.86,4.74,13.24,13.83,24.85,17.94,38.32,2,6.67,0,13.1-.38,19.84-.31,6-.17,12.8,2.4,18.31,1.82,3.9,7.77,2.58,8.83-1.16Z"/><path class="cls-8" d="M148.24,72c5.35,6,11.65,11.25,17.66,16.55s12,10.62,18.37,15.45c5.77,4.4,13.24-5.31,7.78-10.09-6-5.21-12.57-10-19-14.62S160,69.68,152.85,66a3.82,3.82,0,0,0-4.61,6Z"/><path class="cls-8" d="M151.57,70.38c6.28,5.72,12.68,11.25,19.22,16.68,3.15,2.62,6.39,5.15,9.58,7.73,3.58,2.91,6,5.26,10.75,5.73,3.46.34,7-4,5.6-7.36-3-7.19-12.35-11.36-18.78-15.38C170.68,73.24,163.3,69,155.71,65c-3.3-1.74-7.14,2.65-4.14,5.37Z"/><path class="cls-8" d="M146.89,70.68c-.8,7.79,5,18.21,10.92,22.95,6.19,4.94,13.94-2.56,8.75-8.75-2.37-2.81-5-5.36-7.39-8.21s-3.83-5.93-6.28-8.47c-2.29-2.38-5.71-.38-6,2.48Z"/><path class="cls-8" d="M148.83,69.29a46,46,0,0,0,4.38,11.25c1.92,3.42,4.29,7.45,7.95,9.15s8.94-1.16,7.44-5.72c-1.09-3.31-3.47-5.72-5.27-8.65a46.59,46.59,0,0,1-4.28-8.85c-2.26-6.36-11.9-3.88-10.22,2.82Z"/><path class="cls-8" d="M197.32,134.82c5.42,5.82,11.14,11.3,15.83,17.77l10.23-7.9c-3.27-3.16-6.83-6-10.28-9-6-5.17-13.54,2.56-8.62,8.62a88.48,88.48,0,0,0,13.4,13.82l7.94-10.28c-4.47-2.59-9-5-13.55-7.54-5.55-3.07-12.43,4.86-7.07,9.17,6.62,5.32,13,10.91,19.61,16.28,5.22,4.27,14.12-1.14,10-7.7a26.56,26.56,0,0,0-8.16-8.12c-4.9-3.25-11.27,3.2-8.09,8.1a70.09,70.09,0,0,1,8.89,19.62c2.15,7.63,13.72,4.43,11.87-3.27-1.57-6.57-4.62-12.9-7.94-18.75-2.92-5.14-11.86-1.71-9.77,4.12,3,8.44,4.14,17.8,4.72,26.71l11.46-1.55c-2.5-8.21-6.49-16.38-8.11-24.79-.95-4.95-9.16-3.86-8.84,1.2.46,7.34,1,14.7,1.84,22l10.92-1.48A73.3,73.3,0,0,1,230.51,165h-9.64c-.36,21.44,1.5,43.27,3.07,64.65.62,8.31,13.65,8.38,13,0-1.61-21.89-3.05-44.27-6.63-65.93-.9-5.41-9.58-4.06-9.47,1.28a112.79,112.79,0,0,0,2,19.83c1.41,7.11,11.77,4,10.72-3-1.11-7.27-2.47-14.52-3.92-21.73l-8.68,2.4c2.86,8.07,3.55,17.15,5.54,25.49,1.5,6.24,12.18,5.09,11.46-1.55-1.11-10.17-3.64-19.67-6.08-29.55L222.12,161c2.39,5.38,3.77,11,5.31,16.62l11.87-3.27a88.09,88.09,0,0,0-10.54-22.32l-8.1,8.09a8.68,8.68,0,0,1,3.15,4.32l10-7.71c-6.74-5.24-13.65-10.26-20.35-15.55l-7.07,9.17c4.27,2.93,8.51,5.91,12.83,8.77,7.12,4.7,13.37-6.49,6.61-11.31a54.08,54.08,0,0,1-11.77-10.93l-9.57,7.39c3.19,3.23,6.3,6.57,9.69,9.6,6.39,5.71,14.32-2.74,9.21-9.22-5.8-7.36-13.19-13.51-22.14-16.61-4-1.38-6.5,4-3.92,6.74Z"/><path class="cls-8" d="M236.34,241a29.34,29.34,0,0,0,13-10.27c3.4-4.7,6.64-11,3.84-16.61-1.81-3.65-6.3-3.23-9-1.16-3.34,2.59-3.73,7.85-5.6,11.5a46.54,46.54,0,0,1-7,10.43c-3.22,3.38.81,7.83,4.71,6.11Z"/><path class="cls-8" d="M137.11,151.89A60.92,60.92,0,0,1,156,166.31a47.89,47.89,0,0,1,6.47,9.19c2.08,4,1.74,7.78,1.22,12.17a413,413,0,0,0-2.86,57.56l13.45-1.82c-5.72-30.08,4.47-71.25-26.37-90.89-4.39-2.8-10.41.85-10.33,5.93.35,22.53-1.09,45.14-1.61,67.66-.25,11.12-.53,22.23-.76,33.35-.17,8.55.47,18.12,7.6,24,4.84,4,11.82,1.43,12.22-5.07,2.13-34.76,4.89-69.49,6.76-104.27.54-10-14.83-9.88-15.47,0-2.25,34.73-3.61,69.53-5.61,104.27l12.22-5.06c-5.81-4.72-3.43-16.13-3.31-22.66l.58-30.4c.39-20.57-.07-41.23,1.11-61.78L141,164.38c10.28,7.87,14.77,20.53,16.39,33,2.13,16.53.59,33.22,3.71,49.68,1.44,7.64,13.62,5.8,13.45-1.82-.24-10.79-.07-21.57.57-32.34q.51-8.31,1.36-16.61c.52-5,1.61-10.18,1.45-15.23-.29-9.48-6.12-17.58-12.28-24.37a70.92,70.92,0,0,0-21.88-16.12c-7.55-3.61-14.22,7.53-6.62,11.33Z"/><path class="cls-8" d="M140.42,160.22c7.06,0,7.07-11,0-11s-7.07,11,0,11Z"/><path class="cls-8" d="M162.23,231c-1.72,5.92-3.3,11.54-6.45,16.9h9.81a38,38,0,0,1-3-22.83l-11.94-1.61.93,20.49c.14,3.25.28,6.5.45,9.75a26.64,26.64,0,0,1,.27,4.88c.75-1.37.7-1.63-.16-.8L150.56,259c-8.4,8.15-3.35,19.86,3.23,27.25l5.68-9.77a24,24,0,0,1-5.94-2c-5.35-2.69-11.45,4.15-6.67,8.65,3.48,3.28,6.88,6.67,10.3,10l7.09-9.18a75,75,0,0,0-10.62-6.61c-5.36-2.86-12.06,4.68-6.84,8.87,5.72,4.57,14.34,16.45,22.18,8.57a12.07,12.07,0,0,0,2.53-3.69c.36-.87,1.5-1.56,0-.87-1.79.8.23.48.84.56a9.3,9.3,0,0,0,9.34-4.6c3.16-5.52-2-11-7.68-10a13.87,13.87,0,0,0-8.48,5l10.7,1.38c-5.76-10.13-11.68-20.59-11.26-32.6l-11.76,4.87c2.64,3,3.47,7.52,4.95,11.18a24.87,24.87,0,0,0,8.56,11.35c5.2,3.85,11.43-2.48,10.19-7.83a101.9,101.9,0,0,1-1.74-37.68H161.83a127.47,127.47,0,0,1,2.1,30.46c-.41,8.76,13.11,8.7,13.6,0a139.53,139.53,0,0,0-2.39-34.13c-1.23-6.45-12.32-6.73-13.31,0a120.62,120.62,0,0,0,1.67,45l10.19-7.84c-2.57-1.89-3.4-6.24-4.45-9a35.06,35.06,0,0,0-6.32-11.26c-4.11-4.7-11.59-.74-11.76,4.88-.44,14.45,6.28,27.28,13.28,39.48,2,3.48,7.9,4.84,10.69,1.37,1.07-1.32.79-1.18,2.47-1.48l-7.68-10c1.2-2.11,4.56-2.08.78-1.81a16.27,16.27,0,0,0-2.79.37,10.28,10.28,0,0,0-5.69,3.9c-.85,1.11-3.68,5.45-.79,3.65q3-.6-.08-1.89l-1.56-1.21c-1.7-1.33-3.39-2.66-5-4.09l-6.84,8.86c3.59,2.16,7,4.58,10.41,7,5.43,3.75,12.07-4.81,7.08-9.19-3.6-3.17-7.24-6.3-10.79-9.53L148,284a36,36,0,0,0,8.4,3.76c4.5,1.39,9.77-4.42,6.6-8.58-1.59-2.09-7.89-8.21-4.87-11.24.19-.19,1.67-.44,2-.61a8.81,8.81,0,0,0,2.75-2.36,10.42,10.42,0,0,0,1.83-6.39c.16-11.64-1.26-23.5-1.9-35.12-.36-6.42-10.77-8.75-11.94-1.62a50.23,50.23,0,0,0,4.92,31.79c1.85,3.6,8,3.82,9.81,0,3.14-6.74,5.42-14.07,4.47-21.57-.53-4.21-6.48-5.7-7.83-1.06Z"/><path class="cls-8" d="M170,275.66a17.68,17.68,0,0,1,3.77,2.45c5,4.28,12.75-1.06,9.31-7.18-1.3-2.31-2.85-4.48-4.29-6.7l-9.57,7.39c3.8,3.06,7.6,6.12,11.38,9.22l4.8-11.61c-5.07.45-9.22,2.3-12.28,6.46-4.14,5.63,3.91,13.19,9.49,9.49,1.8-1.19,2.91-2.16,4.6-2.6,5.65-1.45,6.67-9.55,1.63-12.42A105.11,105.11,0,0,1,176.59,262c-4.85-3.71-11.66,3.51-8.34,8.34,1.8,2.61,3.54,5.25,5.51,7.73l5.76-9.91a27.31,27.31,0,0,0-7.12-1.45c-4.71-.45-6.54,6.86-2.41,8.91Z"/><path class="cls-8" d="M169.27,195.23a7.08,7.08,0,0,1,.45-3c.51-1.86-2.24-3.12-3.17-1.34a8.08,8.08,0,0,0-.58,5.24,1.73,1.73,0,0,0,2.11,1.19,1.76,1.76,0,0,0,1.19-2.1Z"/><path class="cls-8" d="M169.61,187.52c-.13,9,1.46,18,1.48,27s-2.09,18.09-1.83,27.19h6.79a75.92,75.92,0,0,1,2-28.43c2.06-7.61,4.69-14.51.82-22.08-1.69-3.29-7.54-1-6.08,2.57,3.34,8.11-1.2,15.95-2.66,24a85.94,85.94,0,0,0-.89,23.91c.42,4.26,6.92,4.45,6.79,0-.26-9.42,1.85-18.67,1.48-28.13A99.37,99.37,0,0,0,173.25,187a1.86,1.86,0,0,0-3.64.49Z"/><path class="cls-8" d="M160.85,284.42l-.49,1a1.62,1.62,0,1,0,2.79,1.64l.49-1a1.62,1.62,0,1,0-2.79-1.63Z"/><path class="cls-8" d="M159.14,291.75a75.2,75.2,0,0,0,12.06,17.79l14.41-14.41c-3.45-3.66-7.07-7.12-10.7-10.59-9.41-9-23.43,5-14.29,14.28,6.8,6.9,13.15,14.26,19.64,21.46,5.67,6.28,11.84,15.73,20.6,17.84,9.87,2.38,18.72-3.52,26-9.4a65,65,0,0,0,15.61-18.34c1.67-2.92,2.85-6.35,5.49-8.54,3.21-2.68,7-4.47,10-7.48,6.36-6.41,9.46-15,10.52-23.77,1.17-9.64-.23-19.37-1.07-29s-1.74-19.34-2.62-29c-.66-7.15-6.08-11.25-13.14-10-11.35,2-19.3,13.38-22.59,23.65-3.59,11.21-6.41,24-5.6,35.8.08,1.21-.68,5.18.62,3.11-1.36,2.16-4.28,4-6.16,5.61-3.7,3.21-7.52,7.4-12.08,9.41-4.14,1.83-4.29.62-7.12-2.37-4.74-5-10.83-7.24-17.6-5.65-5.19,1.21-9.51,7.9-7.45,13.13,5.08,12.92,13.85,26.1,26.92,32.08,15.66,7.16,28.56-7.91,37.13-19.24a93.15,93.15,0,0,0,16.3-35c2.88-12.52,4.44-27.61-.26-39.84-1.79-4.67-5.78-8-11-7.21A10,10,0,0,0,234,226c.17,9,1.43,18-.05,27a77,77,0,0,1-9.38,26.24,66.68,66.68,0,0,1-7.49,10.62q-2.22,2.55-4.67,4.89c-.9.86-1.89,1.65-2.76,2.54-.15.14-2.08,1.61-1,1.09.87-.4,2.4,1.24-.5-.76-.58-.4-1.2-.76-1.76-1.19a37.08,37.08,0,0,1-5.58-5.41,35.86,35.86,0,0,1-6.61-11.35l-7.45,13.13c-4.41.86-5.55-2.18-2.89,1a38.26,38.26,0,0,0,2.68,3.14,22.5,22.5,0,0,0,8.32,5,26.14,26.14,0,0,0,16.85-.21c5.88-2.12,10.77-5.87,15.4-10,4.4-3.93,9.26-7.81,12.92-12.45,3.86-4.88,5.13-10.28,4.59-16.42a84,84,0,0,1,.31-18.35c.66-5.2,1.25-10.84,3.5-15.63a15.3,15.3,0,0,1,3.32-4.71c.74-.61.7-.67-.12-.15l1.33-.43c1.4-.3,2.73-.72,4.16-.94l-13.13-10c1.1,16,3.08,32.27,3.22,48.35.05,5.62-.33,12.05-3.91,16.71-1.71,2.23-4.26,3.52-6.5,5.11a34.81,34.81,0,0,0-9.24,9.11c-3.62,5.35-5.95,11.16-10.48,15.9a45.94,45.94,0,0,1-6.16,5.5c-1.29.93-2.65,1.73-4,2.55-.1.06-2.87,1.15-1,1.19,1.58,0-.15-.55-.93-1.33-1.55-1.52-3-3.11-4.57-4.66l-8.12-8.32c-5.86-6-11.85-11.92-17.44-18.17l-14.29,14.28c3.47,3.64,6.93,7.26,10.58,10.72,9.53,9,24-5.38,14.41-14.41-4.62-4.37-9.35-8.56-13.55-13.35-6.44-7.31-17,2-12.92,10Z"/><path d="M216.36,397.81c19.56,3.85,39.41-1,57.81-7.79a184.21,184.21,0,0,0,44.54-23.73,189.85,189.85,0,0,0,61.64-76.49c8.11-18.22,13.91-37.61,15.73-57.52.26-2.87-4.48-3.52-5.06-.68-6.73,32.86-17.12,64-37.24,91.21a179.55,179.55,0,0,1-74.92,58.64c-19.3,8.07-40.91,14.62-62,12.77-2-.18-2.51,3.19-.49,3.59Z"/><path d="M175,1.21c-28.63,4.16-56.91,11.51-82.13,26.07C68.7,41.21,49.41,61.61,34.35,84.89,18.81,108.9,7,135.45,2.41,163.8a191.71,191.71,0,0,0,4.65,81.8,182.48,182.48,0,0,0,17.86,42.48c8,13.85,16.82,29.09,29.55,39.16,1.87,1.47,4.55-1.11,2.66-2.66-11-9-18.44-21.77-25.8-33.75a181.08,181.08,0,0,1-17.65-37.59,186.32,186.32,0,0,1-8.22-79.81C8.61,145.61,18.74,119.59,33,95.6c13.92-23.5,31.81-45,54.84-60,26.3-17.14,57.35-26,88-31.46,1.94-.35,1.08-3.19-.8-2.92Z"/><path d="M175.35,3.44c58.72-.64,116.87,22.61,160.29,62.11,1.86,1.7,4.64-1,2.78-2.79C316.49,42.24,290,26.67,262.14,15.62,235.2,4.94,204.17-3,175,1.13c-1.33.19-1,2.33.31,2.31Z"/><path d="M147.6,65.65c-4.14,20.15,9.08,40,22.23,53.71,8,8.32,16.12,16.45,24.19,24.66,8.37,8.51,16.41,17.6,25.25,25.61a2.72,2.72,0,0,0,3.85-3.85c-7-8-15-15.35-22.4-22.95s-15-15.28-22.45-22.91c-6.81-7-13.73-13.8-18.61-22.31a63.14,63.14,0,0,1-6.17-14.54c-1.56-5.62-1.68-11.21-2.35-16.94-.21-1.85-3.1-2.66-3.54-.48Z"/><path d="M219.35,168.73c-.47,14.6,1.8,29.52,2.51,44.11S223,242.3,223,257c0,3.74,5.85,3.75,5.81,0-.18-15.07-.54-30.13-1.31-45.18-.74-14.38-.73-29.61-3.87-43.7-.55-2.44-4.16-1.79-4.24.57Z"/><path d="M156.35,68.35c17.08,12,35.07,22.7,52.18,34.68,17.36,12.16,34.19,25.06,50.67,38.39,3.48,2.82,8.48-2.11,5-5-16.41-13.36-33.44-25.93-50.94-37.83S177.4,74.45,158.1,65.36a1.73,1.73,0,0,0-1.75,3Z"/><path d="M260.38,138.84c-.65,13.52,1.05,27.34,1.73,40.86q.5,9.74.81,19.48c.22,6.68-.25,13.72.92,20.3.51,2.85,5.41,2.93,5.83,0,1-6.62.22-13.62,0-20.3s-.51-13.64-.86-20.46c-.69-13.38-1-27.38-4-40.48-.59-2.59-4.35-1.88-4.47.6Z"/><path d="M141,145c6.75-1.2,13.64,9.12,17.7,13.33l13.81,14.34c2.73,2.82,4.38,4.55,4.57,8.63.16,3.24-.15,6.57-.21,9.82q-.19,10.8-.2,21.6-.06,20.63.43,41.23c.12,4.79-.84,11.06,2.5,15,4.08,4.8,10.4,8.59,15.29,12.54,3,2.44,7.37-1.86,4.31-4.31l-9-7.24c-3.05-2.45-6.2-4.12-6.84-8.13-1.15-7.17-.3-15.3-.38-22.57q-.27-23.08-.15-46.15c0-5.57,1.52-13.14-1.09-18.31s-8.52-9.44-12.56-13.51c-5.25-5.3-10.33-10.89-15.83-15.93-3.74-3.42-8.34-6.16-13.47-4.39A2.11,2.11,0,0,0,141,145Z"/><path d="M135.4,146.39c-1.05,6.94-.51,14.34-.54,21.35q-.06,10.94-.09,21.86c-.06,14.9.07,29.81.09,44.71,0,7.29.07,14.58.15,21.87.07,6.31-.45,12.95.43,19.21.78,5.5,3.8,9.55,7.58,13.43,5.27,5.4,10.75,10.61,16.13,15.91,2.8,2.76,7.16-1.61,4.31-4.31l-14.61-13.78c-2.38-2.26-5-4.52-6.68-7.38s-1.75-5.94-1.78-9.17c-.16-13.91,0-27.83-.13-41.74-.12-13.58-.14-27.16-.33-40.74q-.15-10.43-.3-20.86c-.11-6.7.33-13.75-.75-20.36-.27-1.71-3.21-1.73-3.48,0Z"/><path d="M31.65,130.63c-7.9,27.8-8.66,57.83-4.13,86.27s14.55,58.36,31.78,81.69c.93,1.26,3,.17,2.15-1.25-7.36-12.78-14.49-25.4-19.79-39.21a214.81,214.81,0,0,1-11.14-40.36c-5-29-3.39-58,3.1-86.6a1,1,0,0,0-2-.54Z"/><path d="M51.25,174.25c-4.47,44.61,12.24,94.41,47,123.89,1.23,1,3-.63,1.8-1.81-16.29-16.4-29.47-34.43-37.7-56.2a148.13,148.13,0,0,1-9.08-65.88c.12-1.32-1.93-1.31-2.06,0Z"/><path d="M81,57.53c-3.56,11.76-4.88,23.58-3,35.78.18,1.16,2.19.9,2.07-.28-1.13-11.76-.53-23.61,2.78-35A1,1,0,0,0,81,57.53Z"/><path d="M173.89,26.25a155.1,155.1,0,0,1,62.82,7.29c21.12,7,38.51,18.6,55.74,32.35,1.42,1.14,3.4-.69,2.05-2.06-14.93-15.09-35.6-25.62-55.58-32.24a159.68,159.68,0,0,0-65-7.38c-1.3.12-1.31,2.16,0,2Z"/><path d="M254,61.33c18.09,7.26,31.64,19.63,43.86,34.46.93,1.13,2.82-.34,2-1.56C289.38,78.1,272.12,66.48,254.5,59.46c-1.17-.46-1.67,1.41-.52,1.87Z"/><path d="M39.28,291.06c5.18-.55,10-2.7,14.8-4.62l18.18-7.28C83.86,274.52,95.7,270.24,107,265c1.2-.56.35-2.57-.9-2.14C83.42,270.63,62,282.26,39,289.17c-1,.3-.87,2,.25,1.89Z"/><path d="M21.68,250.6c14.64.67,28.45-4,41.91-9.21,14-5.43,28.09-10.79,41.61-17.25,1.21-.58.35-2.67-.92-2.18-13.63,5.21-27,11.23-40.5,16.68s-27.31,10.69-42.1,10.23c-1.12,0-1.11,1.68,0,1.73Z"/><path d="M17,196.84c24.74,3.87,50.72-8.28,70.21-22.56,1.21-.88.15-2.84-1.19-2.05-10.4,6.1-20.41,12.62-31.7,17a84.32,84.32,0,0,1-37,5.62c-1.11-.08-1.39,1.8-.27,2Z"/><path d="M61.7,81.47A124.51,124.51,0,0,1,85.6,71c8.13-2.59,16.38-3.89,24.65-5.86a1.24,1.24,0,0,0-.33-2.42c-17,1.2-34.51,8.71-49.15,17.13a.93.93,0,0,0,.93,1.6Z"/><path d="M101.85,48.14c-4.77,15.41-3.48,33.41,2.41,48.31.59,1.49,3,.91,2.46-.68C101.47,80,101,65,104,48.74a1.14,1.14,0,0,0-2.19-.6Z"/><path d="M94.39,90.37c10.34-4,20.89-5.81,31.92-6.54a1,1,0,0,0,0-2.06c-11.14-.15-22.17,2.5-32.45,6.68-1.16.48-.67,2.39.53,1.92Z"/><path d="M220.78,21.25c7.07,6.65,10.26,15.37,10.12,25,0,1.69,2.47,1.65,2.6,0a32,32,0,0,0-11.24-26.45c-1-.87-2.46.55-1.48,1.48Z"/><path d="M264,34.58c5.06,7.2,9.1,15.18,10.77,23.88,1.95,10.18.63,20.51-.92,30.64-.25,1.63,2.19,2.38,2.53.7,2-9.9,3.17-20.24,1.44-30.27-1.66-9.66-6.21-18.2-11.86-26.1-.84-1.17-2.81,0-2,1.15Z"/><path d="M314.1,80.62a105.94,105.94,0,0,1-9.2,30.81c-4.25,9.07-9.93,16.83-15.64,25-.78,1.11.91,2.34,1.84,1.42C306,123,313.37,101,316.05,80.62c.16-1.24-1.79-1.22-1.95,0Z"/><path d="M354.15,270c4.22,9,4.65,17.94,3.33,27.66-.2,1.47,1.88,2.17,2.3.63,2.69-9.79.57-20.36-4-29.22-.55-1.07-2.1-.13-1.6.93Z"/><path d="M257.54,376.42c16.47-4.7,33.27-12.49,45.76-24.46,1.21-1.16-.54-2.76-1.79-1.79-13.73,10.72-27.56,19.6-44.44,24.58a.87.87,0,0,0,.47,1.67Z"/><path d="M272.17,377.87c7.27-8.87,11.35-21.54,8.11-32.87-.42-1.45-2.85-1.24-2.72.36,1,11.43-.38,21.58-7.07,31.21-.68,1,.91,2.24,1.68,1.3Z"/><path d="M292.73,369.17c5.07-12.09,6-27-.37-38.81a1.26,1.26,0,0,0-2.29,1c3.87,12.6,5.16,24.62.53,37.26-.49,1.36,1.59,1.86,2.13.59Z"/><path d="M363.36,272.47c7.67-15.31,13.34-32.94,13-50.24a1.27,1.27,0,0,0-2.53,0c-1.41,17.36-4.21,33.56-11.95,49.36-.49,1,1,1.88,1.5.88Z"/><path d="M374.31,262.39c-1.57-11.2-8.23-22.75-18.61-27.94a1.39,1.39,0,0,0-1.4,2.39c9,6.92,15.43,14.83,17.95,26.12.31,1.37,2.24.75,2.06-.57Z"/><path d="M381.87,241.63c-5.42-11.86-15.81-22.69-28.77-26-1.33-.34-2.29,1.66-1,2.29,11.89,5.64,21.69,12.86,27.84,24.83.65,1.27,2.48.15,1.9-1.12Z"/><path d="M352.49,291.81c5.25-7,11-15.11,13.77-23.45.47-1.4-1.51-2.06-2.27-1-5,7.28-8.82,15.71-13.32,23.34-.71,1.21,1,2.12,1.82,1.07Z"/><path d="M226,252.14l.05-.75a1.61,1.61,0,0,0-1.59-1.6,1.63,1.63,0,0,0-1.6,1.6l0,.75a1.55,1.55,0,1,0,3.09,0Z"/><path d="M197.7,282.45c2,2.15,4,4.18,7,3,4.12-1.65,8.11-5.72,11.58-8.48s7.55-5.24,10.22-8.66c3.05-3.92,1.69-7.7,2-12.25.19-3.25-4.61-3.11-5,0-.42,3.63.3,6.7-2.33,9.65-1.82,2-4.65,3.68-6.79,5.35s-4.49,3.52-6.7,5.34c-2.5,2.07-4.32,4.74-7.68,3.05a1.93,1.93,0,0,0-2.33,3Z"/><path d="M194.59,279.67c1.93,2.08,4,4.22,6.77,5.05,3.25,1,5.29-3.82,2.31-5.48-2.09-1.17-4.38-1.7-6.35-3.1-2.16-1.54-4.4,1.73-2.73,3.53Z"/><path d="M193.58,280.29c.39,2.17,2.93,3.65,4.78,4.46,2.07.9,4.88,1.87,7,.61a2.45,2.45,0,0,0,0-4.17c-1.49-1-3.53-.7-5.2-1.34s-3-1.8-4.68-2c-1.35-.14-2.05,1.34-1.86,2.43Z"/><path d="M178.91,268.83c2.87,5.15,9.34,9.27,13.87,12.95,3.36,2.73,7.78,5.31,11.45,1.7,2.6-2.56-.69-6-3.64-4.71-2.61,1.13-8.8-5.07-10.68-6.48-2.9-2.18-5.61-4.79-9.09-5.94a1.71,1.71,0,0,0-1.91,2.48Z"/><path d="M149.57,292.82C157.9,306.13,170,317,181.21,327.75c4.91,4.71,10,10.31,16.71,12.32,6.12,1.81,12.73.34,18.22-2.64,6.17-3.34,10.92-8.69,15.48-13.88,5.56-6.32,11.26-12.5,17.17-18.5,5.73-5.82,12.1-11.13,17.67-17.1,4.7-5,5.57-10.9,5.7-17.58.37-19.33-1.25-38.83-1.83-58.14-.13-4.34-6.9-4.35-6.75,0,.66,19,2,38.22,1.6,57.24-.1,4.56-.09,9.24-3.19,12.9-2.61,3.09-5.94,5.66-8.86,8.45q-10.19,9.71-19.72,20.08c-5.95,6.48-11.41,14.4-18.77,19.35-8.08,5.44-15.91,4.41-23-1.81-13.66-12-25.67-25.7-39-37.94-1.56-1.43-4.22.4-3,2.32Z"/><path d="M346.8,71.53c16.32,22.38,28,48.8,35.08,75.51a260.15,260.15,0,0,1,7.7,42.45c.63,6.77,1,13.57,1.07,20.38.11,7.36-.71,14.76-.52,22.1.09,3.32,5.42,4.37,6,.82,2.44-13.91,1.19-29.33-.23-43.3a241,241,0,0,0-8.22-43.19A234.76,234.76,0,0,0,349.36,70c-1.13-1.5-3.69-.06-2.56,1.49Z"/><path d="M72.33,346.63c20,22,45.46,36.77,74.06,44.66a244.69,244.69,0,0,0,49.36,7.9c16.22,1,33,1.57,49-1.48,18.56-3.54,37.08-11.19,54.3-18.83,2.07-.92.57-4.09-1.51-3.56-15.6,4-30.55,10-46.08,14.25-15.71,4.25-32.14,4.23-48.3,3.67-30.84-1.06-62-6.66-89.7-20.81-14.39-7.35-27.73-16.31-38.73-28.24-1.5-1.63-3.92.8-2.43,2.44Z"/></g></g></svg>