<svg xmlns="http://www.w3.org/2000/svg" viewBox="0 0 830.58 1022.7"><defs><style>.cls-1{fill:#11117c;}.cls-2{fill:#ededed;}.cls-3{fill:#d3d3d3;}.cls-4{fill:#fff;}</style></defs><title>logo_back</title><g id="Layer_2" data-name="Layer 2"><g id="voorstuk"><ellipse class="cls-1" cx="420.63" cy="511.35" rx="555.29" ry="192.57" transform="translate(-219.36 681.12) rotate(-65.42)"/><path class="cls-2" d="M266.54,389.59c-12.2,13.11-18.18,32-24.11,48.59-6.35,17.72-11.37,35.88-13.54,54.61-4,34.76,5.53,68.88,22.76,99,9.61,16.77,21.56,32.19,34.54,46.48,2,2.18,6.5,3.06,9,1.16a386.83,386.83,0,0,1,74.68-44.76L358.59,586c-3.55,8.87-14,13.54-22.09,17.25-11,5.06-23.75,11.14-36.22,9.33-19.65-2.87-30.95-24.29-39.38-40l-13.44,7.86c10.76,14.1,23.91,25.83,40.67,32.23,16.58,6.32,35.46,5.64,51.12-2.85,6.91-3.74,3.66-14.6-3.95-14.58a92.09,92.09,0,0,1-70-32.21,88.4,88.4,0,0,1-17.84-35.4c-3.42-13.46-3.14-27.08-1.57-40.8,1-8.37-12.36-9.78-14.46-1.95-8.16,30.44,2.33,65,22.12,88.8s50.84,37.51,81.76,37.21l-3.95-14.58c-25.88,14.29-54.58-2.65-70.45-23.73-5.89-7.84-18.24-1.23-13.44,7.86,11.56,21.91,27.13,46.11,54.26,48.33,15.41,1.26,30.54-6.08,44-12.62,12-5.8,22.59-13.34,27.62-26.1,2.72-6.9-5.91-11.13-11.26-8.66a394.91,394.91,0,0,0-75.92,46.36h10.48C275.8,605,257.33,578.69,248,549c-10.45-33.21-6.31-66.81,4.09-99.49,3-9.44,6.46-18.73,9.87-28,3.3-9,6.95-17.87,12.62-25.71,3.41-4.72-4.12-10.4-8-6.19Z"/><path class="cls-2" d="M360.45,598.55c18.36-8.79,35.28-20.39,52.32-31.44,15.81-10.26,33-19.83,46.35-33.37,6.38-6.48,11.61-14,17.37-21s12.43-13.52,18.94-20c12.84-12.81,23.64-26.77,31.87-43a283.1,283.1,0,0,0,11.75-27c3.51-9.17,9.33-20,7.93-29.92-.81-5.73-8.68-6.65-12.22-3.23-6,5.76-7.64,16.17-10.46,23.8-2.89,7.82-6,15.57-9.57,23.11a151.88,151.88,0,0,1-28.86,41.61c-6.24,6.36-12.73,12.48-18.55,19.24s-10.81,13.9-16.56,20.57c-11.95,13.88-27.47,23.51-42.4,33.83-18.2,12.58-37,24.72-53.47,39.58-4.1,3.69,1.1,9.34,5.56,7.21Z"/><path class="cls-2" d="M440.83,702.76c6.89,3.1,15.37,1.46,22.58.17a182.84,182.84,0,0,0,23.72-6.17c15.38-4.93,31.06-10,45-18.23,13.38-7.84,25-18.49,36.43-28.85a154.93,154.93,0,0,0,15.23-15.41c4.44-5.31,9.73-11.48,10.9-18.48.68-4.07-4.11-7.84-7.44-4.33-4.49,4.74-7.48,10.67-11.87,15.56a171.78,171.78,0,0,1-14.4,13.9c-11,9.74-22.16,19.76-35,27.07s-27.25,11.79-41.39,16.15c-7.2,2.23-14.46,4.38-21.81,6.05-7.05,1.6-15.54,1.53-22,4.8-2.83,1.43-3,6.4,0,7.77Z"/><path class="cls-2" d="M447.37,701a164.07,164.07,0,0,0,32.5-25.24c9.87-9.66,18.5-19.86,29.76-28,11.55-8.38,21.25-17.81,30.76-28.41,9.66-10.77,20.47-20.87,29.07-32.51,3.41-4.61-3.66-9.12-7.51-5.79-10.86,9.37-20,21-29.92,31.3a197.22,197.22,0,0,1-15.33,14.86c-5.17,4.31-10.88,7.91-16.3,11.88-10.56,7.74-19.12,17.11-28.12,26.53-9.64,10.08-19.57,19.79-29.11,30-2.66,2.83.72,7.48,4.2,5.45Z"/><path class="cls-2" d="M464.52,689.24c11.37,4,24.44,3.35,36.15,1.13a88.63,88.63,0,0,0,17.5-5.41c5.23-2.18,12.11-4.65,15.72-9.19s.41-11.67-5.88-10.11c-5.28,1.31-9.91,5.11-14.91,7.27A86.45,86.45,0,0,1,498,677.71c-10.76,2.47-21.31,2.11-32.26,2.23-5.52.07-6.19,7.55-1.26,9.3Z"/><path class="cls-2" d="M478.66,676.87c7.54,2.85,15.47,4.73,23.24,6.85L503.62,671c-5.07-.32-7.93-5.53-7.51-10.13.52-5.67-7.06-7.91-10.69-4.43-4.81,4.61-8.68,11-7.08,17.95,1.54,6.67,6.65,10.69,13.26,11.44,7,.79,8.07-10.2,1.63-12.05-2.74-.78-8.26-1.78-6.78-5.68H475.28c2.54,11,11.48,19.29,23.06,19.12,3.58-.05,7-3.77,5.69-7.48-2.92-8.14-7.69-20,.23-26.84L496.39,645c-4.26,5.38-8.39,11.09-8.54,18.26a16.77,16.77,0,0,0,8.35,15.2c5.61,3.19,12.61,3.44,18.91,3.27,7.86-.21,16.2-1.31,23.56-4.15,7.82-3,4.86-15.28-3.54-12.84-9.15,2.66-18.76,5.5-28.42,4.3-11.19-1.4-5.55-11.11-1.58-17.29,3.51-5.46-4.23-11-8.74-6.75-11.07,10.34-8.32,25.11-3.75,37.86l5.7-7.48c-5.22.3-11.47-3-11.68-8.84a5.84,5.84,0,0,0-10.79-2.93c-6.83,11,4.73,19.24,14.09,22l1.64-12c-4.32-.51,1.78-7.53,2.68-8.26l-10.47-6.1A20.73,20.73,0,0,0,503.62,684c7.13.28,9-11.7,1.72-12.71-8.45-1.17-17-2.68-25.51-3-5.27-.21-5.56,7-1.17,8.66Z"/><path class="cls-2" d="M330,339.85c16.59-7.26,32.38-14.21,50.38-17.36,17.56-3.08,35.63-2.42,53.12,1,18.1,3.5,35.3,10.44,51.71,18.71,8.67,4.36,17.18,9,25.68,13.75,7.07,3.92,14.51,7.9,18.79,15.07,4.47,7.49,5.47,16.8,3.65,25.26-2.19,10.15-7.69,18.21-13,26.89-4.14,6.73,5.58,14.43,11,8.52,13.19-14.26,20.32-35.65,15.8-54.8A42.81,42.81,0,0,0,533,353.7c-7.87-6.52-17.46-10.89-26.46-15.61-18.81-9.88-38.3-19.4-59.13-24.18-19.61-4.5-39.26-4.65-59.15-2.06-21.07,2.73-44.51,9.07-61.82,21.93a3.52,3.52,0,0,0,3.55,6.07Z"/><path class="cls-2" d="M488.94,334.17c11.36,6.52,22.58,13.56,33.41,20.93,5.33,3.63,11,7.31,15.71,11.75,4.89,4.63,5.54,10.43,4.87,16.87-1.33,13-7.85,24.64-14.45,35.6-3.51,5.84-7.22,11.56-10.79,17.36s-8.5,11.51-10.47,18c-1.31,4.3,3.95,8.65,7.85,6,6.26-4.19,10.7-11.79,15.09-17.81A227.26,227.26,0,0,0,543,422.64c7.32-12.63,14.46-27.19,14.06-42.17-.18-6.89-2-13.72-6.4-19.13-4.66-5.69-11.71-9.65-17.86-13.55a188.91,188.91,0,0,0-41.33-19.7c-3.61-1.21-5.8,4.23-2.57,6.08Z"/><path class="cls-2" d="M255.41,517.15a100.22,100.22,0,0,0,11.91,52,103.49,103.49,0,0,0,15.34,21.36c5.83,6.26,13.62,14.13,21.87,16.91,4.77,1.61,7.84-4.74,4.7-8.06-2.75-2.92-6.55-4.72-9.75-7.11a86.13,86.13,0,0,1-9.34-8.15,93,93,0,0,1-15-19.54,96.14,96.14,0,0,1-13-47.36c0-4.36-6.56-4.33-6.75,0Z"/><path class="cls-2" d="M262.33,402.42c4,0,4-6.19,0-6.19s-4,6.19,0,6.19Z"/><path class="cls-2" d="M270,402.76c8.49-16.14,21.15-29.19,34.68-41.22a235,235,0,0,1,20.78-17,78,78,0,0,1,11.33-6.75c4.13-2,8.6-3.07,12.74-5,4.54-2.17,1.91-8.57-2.39-8.82-9.12-.54-18.61,5.19-25.88,10.14a235.7,235.7,0,0,0-23.1,18.62c-14.61,12.9-28.06,27.45-36.83,45-2.87,5.75,5.64,10.82,8.67,5.07Z"/><path class="cls-3" d="M232,533.77c.08,7.32,2.61,14.93,4.86,21.86,2.21,6.77,4.73,13.45,7.46,20a279.17,279.17,0,0,0,19.92,39.39c6.06,9.85,14.59,20.52,27.22,20.77,14.24.29,27.41-10.14,38.87-17.25,3.74-2.31.48-7.7-3.4-5.83-6.15,3-12.5,4.76-19,6.74-5.28,1.6-11.54,5-17.16,4.62-10.53-.8-17-14.39-21.55-22.28a283.46,283.46,0,0,1-16.82-33.9c-2.51-6-4.69-12.21-6.9-18.38-2.11-5.87-3.69-12.14-6.68-17.63-1.74-3.2-6.86-1.73-6.81,1.85Z"/><path class="cls-3" d="M485.34,328c18.52,9.89,39.59,19.43,54.45,34.67,7.5,7.69,9.6,16.35,9.73,26.87,0,3.19.19,6.54-.6,9.62a51.48,51.48,0,0,1-3.19,8.33c-2.36,5.22-5.16,10.26-7.75,15.38a3.38,3.38,0,0,0,5.83,3.41,124.52,124.52,0,0,0,9.67-17.38c2.41-5.43,5-11.29,6.43-17,2.81-11.62-1.17-23.32-8.65-32.31-6.79-8.15-16-13.39-25.25-18.29-12.34-6.55-24.75-13-37.55-18.59-3.55-1.56-6.71,3.42-3.12,5.34Z"/><path class="cls-3" d="M555,371.46,556.91,383l8.41-2.32a40.35,40.35,0,0,0-4.89-10.5c-2-3.07-4.45-6.67-7.7-8.5-3.47-1.94-7.61,2-5.51,5.52,1.58,2.67,4,4.74,5.68,7.38a41.68,41.68,0,0,1,4,8.42c1.9,5.24,9.64,3.22,8.41-2.32l-2.51-11.4c-1.14-5.15-8.59-2.88-7.78,2.14Z"/><path class="cls-3" d="M235.77,443.67c-3.45,18.82-4,38.49-4.92,57.58-.83,17.46-3.28,36.28,3.68,52.8s17.65,32.33,27.6,47.35c4.12,6.23,8.23,13.06,14.62,17.22,6.68,4.37,15.05,5.6,22.86,6.06a72.6,72.6,0,0,0,27.88-3.6c8.25-2.88,17.46-7.59,23.47-14,3.21-3.44-.8-7.93-4.77-6.18-6.83,3-13,6.39-20.25,8.34s-14.6,3.57-22.16,3.79c-6.84.21-14.78,0-21-3.13-6.54-3.29-10.34-10.64-14.26-16.5-8.94-13.36-18.34-27.16-25.09-41.78-6.86-14.88-4.57-32.46-4-48.37.65-19.54,3-39.08,3.29-58.6.06-3.87-6.18-4.91-6.91-.94Z"/><path class="cls-3" d="M309.93,623.47c20.52-9.28,41.22-18.8,60.75-30.05,18.79-10.82,36.31-23.62,53.38-36.94,16.71-13,34.93-25.9,48.88-42,6.76-7.78,12.16-16.58,18.21-24.89A239.47,239.47,0,0,1,511,466.33c15.1-16,31.92-31.43,42.77-50.8,1.91-3.41-3.13-6.33-5.22-3-10.74,16.81-24.22,30.92-38,45.26-6.66,6.94-13.25,14-19.27,21.47-6.17,7.68-11.41,16-17.25,23.92-12.7,17.24-30.64,30-47.17,43.29-16.94,13.64-34.26,26.92-52.74,38.44-21.22,13.23-44,23.75-65.88,35.82-1.85,1-.22,3.63,1.64,2.79Z"/><path class="cls-3" d="M486.53,500.78c6.43-9.07,12.58-18.35,19.28-27.22,6.84-9,14.27-17.53,21.71-26.07,6.54-7.51,12.83-15.27,18-23.83s10.77-18.87,12.18-28.71c.4-2.83-3.65-5.34-5.14-2.17-2.21,4.71-3.51,9.82-5.61,14.59a125.83,125.83,0,0,1-6.73,13.19c-5.57,9.47-12.63,17.8-19.72,26.14C506.69,462.92,493.22,480,483.54,499a1.73,1.73,0,0,0,3,1.75Z"/><path class="cls-3" d="M443.66,702c5.91-7.85,14.36-13,21.93-19,8.42-6.7,14.22-15.43,21.23-23.45,15.22-17.41,35.41-29.67,52.5-45.06,1.71-1.54-.57-4.59-2.5-3.24-10,7-19.32,14.87-28.87,22.37-9,7-18,14.17-25.39,22.92-7,8.34-13,17.09-21.64,23.93-7.49,5.94-15.38,11.35-20.38,19.7-1.22,2,1.76,3.63,3.12,1.83Z"/><path class="cls-3" d="M442.68,701.87c14.37,2.6,29.23-.75,42.95-5,14.48-4.54,28.34-10.71,42.22-16.7,1.65-.71.47-3.54-1.22-2.91-13.38,4.95-27.08,9.3-40.65,13.71-14.12,4.59-27.85,7.63-42.77,7-2.2-.09-2.77,3.51-.53,3.91Z"/><path class="cls-3" d="M447.68,698a9.85,9.85,0,0,0,7.64,4.39c2.39.26,3.05-3.26,1.17-4.35-.55-.32-5.18-2.72-3-4.1l-3.22-1.31c2.46,6.48,8.27,10.66,15.33,10.14a2.68,2.68,0,0,0,0-5.36c-4.17-.45-6.75-5.8-4.66-9.35l-4.21-.55a20.45,20.45,0,0,0,9.62,12.6c4.2,2.43,10.67,4.29,15.13,1.68,2.15-1.26,1-4.14-1.18-4.37-4.1-.42-7.5.36-11.4-1.68a15.44,15.44,0,0,1-7.72-9.46,2.34,2.34,0,0,0-4.22-.55,10.92,10.92,0,0,0,8.64,17l-.71-5.26a9.86,9.86,0,0,1-10.39-6,2.23,2.23,0,0,0-3.22-1.31c-6.06,3.36-1.63,9.72,2.83,11.92l1.18-4.35a4.83,4.83,0,0,1-4.77-1.94c-1.4-1.46-4.1.5-2.87,2.22Z"/><path class="cls-3" d="M463.79,681.36c-5.46,1.38-7.22,7.54-5.42,12.43,2.09,5.7,10,9.68,15.9,9.05a2.5,2.5,0,0,0,.66-4.88c-3.81-1.44-8.32-1-11.1-4.61-2-2.61-1.81-7,1.4-8.56,2-.95.56-3.93-1.44-3.43Z"/><path class="cls-3" d="M272.82,585.89a57.83,57.83,0,0,0,12.37,24c5.23,6.14,13.79,14.38,22,15.83a2.29,2.29,0,0,0,1.76-4.16c-3.07-2.29-6.87-3.62-10.09-5.76a55.29,55.29,0,0,1-10-8.61A59.82,59.82,0,0,1,276.17,585a1.74,1.74,0,0,0-3.35.92Z"/><path class="cls-3" d="M299.58,580.36c7.81,13.3,19.18,25.32,33.25,32,3.19,1.53,5.95-3,2.81-4.82-13-7.63-24.28-16.57-32.94-29-1.31-1.88-4.31-.21-3.12,1.82Z"/><path d="M667.67,330.46c22.86-22.81,45.39-47.18,54.62-78.93,3.27-11.24-4-24.87-15.63-27.53-12-2.73-24,3.6-27.53,15.63-.46,1.58-.93,3.15-1.47,4.7-.2.6-2.64,6.6-1.21,3.4s-.94,1.89-1.24,2.5c-.72,1.45-1.48,2.89-2.26,4.31-1.71,3.09-3.57,6.1-5.54,9q-1.38,2-2.82,4l-1,1.32c-1.47,2-1.31,1.76.5-.6.15,1.65-5.17,6.31-6.34,7.65-2.18,2.51-4.42,5-6.69,7.4-4.91,5.26-10,10.35-15.07,15.43-8.3,8.28-8.91,23.48,0,31.65s22.8,8.84,31.65,0Z"/><path d="M513.58,296.81c28.9-18.71,58-37.14,87.59-54.82,28.94-17.33,58.21-34.68,88.31-49.92,1.87-.94,3.74-1.86,5.63-2.74.53-.25,4.37-2,2.5-1.19a98.43,98.43,0,0,1,11.67-4.1q2.54-.72,5.11-1.28c1.14-.25,2.28-.47,3.43-.67-.37.07-2.14.24-.13,0,1.75-.19,3.51-.3,5.27-.34,1.11,0,2.21,0,3.32,0,.3,0,3.55.19,1.82,0s.82.14,1,.18c.79.17,1.58.35,2.36.56s1.55.45,2.32.69c-2.44-.78-.16-.11.41.22,1,.6,3.47,2.8,1.72.94.51.54,1.06,1.12,1.61,1.63.78.88.68.75-.31-.39l.77,1.3c-.21-.2-.66-2.46-.19-.56.17.72.41,1.43.59,2.16-.06-.24-.36-2.77-.24-.77.15,2.53.57-2.47-.06,0-.46,1.81.17-.18.33-.49-.35.68-.72,1.34-1.12,2s-.83,1.3-1.27,1.92c1.36-1.92-.08,0-.82.8-2.37,2.61-4.9,5.08-7.5,7.46-1.21,1.11-2.45,2.21-3.71,3.28l-1.9,1.58c-.36.3-3.2,2.49-1.16.95a136.13,136.13,0,0,1-18.12,11.49c-1.7.91-3.43,1.77-5.17,2.6l-2.25,1s-2.52,1.12-1,.48-1,.4-1.05.42c-1,.39-2.06.79-3.09,1.17-1.81.67-3.64,1.29-5.47,1.88-1.33.42-8.21,3.44-9.51,2.58-.13-.08,3.46-.13,1.36-.17-.82,0-1.69.08-2.51.13a7.24,7.24,0,0,1-1.87,0c.68,1.13,3.15-.44.87.11l-.56-.15c-.89-.27-.76-.18.39.28l1,.44q-1.86-1.12-.09.13c1.34,1.61,2.71,2.76,2.83,5.07a18.12,18.12,0,0,0-.21,2c-.18-.31.88-2.94.9-3-.92,2.52.87-1.42,1.32-2.2s.79-1.26,1.18-1.9c.05-.08,1.43-2.12.49-.81s.85-1,1.11-1.28c.5-.56,1-1.11,1.52-1.64,1.05-1.07,2.15-2.07,3.28-3-1.82,1.56,2.21-1.48,2.93-1.91,1.28-.77,2.59-1.46,3.93-2.11-2.17,1,2-.68,2.66-.89a19.34,19.34,0,0,0,2.13-.66c0,.2-1.56,0-1.69-.09a34.79,34.79,0,0,1-6.6-6.41c-.11-1.69-.17-2-.18-.86,0,.82,0,.83,0,0-.8-.79.63-.14-.33.67.11-.09.94-1.82.12-.35s-1.79,2.91-2.77,4.32a43.09,43.09,0,0,1-5.38,6.43A56.57,56.57,0,0,1,667.61,230a77.66,77.66,0,0,1-8.61,4.54c-2.25,1,1.55-.57-.76.31-.7.27-1.4.54-2.1.78-1.66.58-3.32,1.08-5,1.49s-3.42.76-5.14,1.06c-.12,0-2.55.45-.93.15s-.56,0-.77,0c6.23,2-7.65-7.92,7.79,11.4-.31-.39,1.16-2,.34-1s.58-.8.65-.9c.59-.84,1.06-1.77,1.62-2.63,1-1.5,2.06-3,3.1-4.44.44-.63.88-1.26,1.36-1.87-.22.28-1.21,1.5,0,.16a83.26,83.26,0,0,1,7.55-7.71c.58-.51,1.17-1,1.76-1.5-.51.42-2.08,1.45.49-.38,1.26-.89,2.53-1.76,3.84-2.58s2.64-1.6,4-2.33c.82-.43,1.64-.81,2.46-1.24-1.16.6-2,.69-.3.22l3.66-1c2.8-.74.19,0-.46,0l1.85-.1c.58,0,1.24.11,1.82,0-.3,0-2.78-.79-1.27-.18a20,20,0,0,0,2.18.59c.49.14,2.64,1.21.71.19s-.27-.06.09.14c-.06,0-2.23-1.7-.92-.6s-.65-1.1-.82-1.26c.21.2-.38,3,.16.72.5-2.1-.29.3-.52.65-1.18,1.82-2.16,3.74-3.47,5.48a58.61,58.61,0,0,1-13.18,12.6c-1.51,1-16.1,8.32-16.2,7.15,0-.5,2.44,3.31,2.08,3-3.21-2.85-.29-5.19-.3-2.92,0-.74,0-1.46,0-2.2s.37-4.94.09-2.8a54.85,54.85,0,0,1,2.2-9.38c.18-.57,1.67-4.59.9-2.76.67-1.59,1.47-3.14,2.29-4.66a70.08,70.08,0,0,1,5.18-8.15c-1.15,1.56,1.52-1.74,1.93-2.19,1.16-1.28,2.38-2.52,3.64-3.7.54-.51,1.1-1,1.66-1.49.22-.19,2.59-2.09,1.39-1.18-.43.32,2.09-1.42,2.76-1.84.47-.3,4.52-2.39,4.51-2.6,0,.46-4.09.09-2.47.18a8.08,8.08,0,0,1-7.61-5.26c.57,1.19-.4,1.76,0-.47a11.34,11.34,0,0,0,0,1.75c0,1.62,0-.65.1-.85-.21.47-1.12,3-.37,1.44a46.52,46.52,0,0,1-2.82,4.76c-1.21,1.92.33-.11-1.18,1.57-1.07,1.2-2.13,2.38-3.28,3.5-1,1-2,1.88-3.06,2.77-.52.45-1,.9-1.6,1.32,1.56-1.19-.87.54-1.15.73a82.75,82.75,0,0,1-7.88,4.75c-1.27.67-2.56,1.32-3.85,1.94-.65.31-4.82,2.14-3.33,1.53a135.81,135.81,0,0,1-18.59,5.94c-1.3.33-2.61.63-3.92.92-.63.15-1.26.25-1.9.36.63-.11,2.75-.13-.07,0-1.3.06-2.61.07-3.91.12-.25,0-2.44-.1-.57.06,2.14.19-1.08,0-1.05-.27l-.58-.16c1.56.78,1.86.91.89.41-1.39-1,.7.73.74.78.28.36.94,2.25.57.89s-.28.43,0,.65-.67,3.42,0-.58c-.06.37-.24,1.82.15.07a10.23,10.23,0,0,1,1.33-3,28.2,28.2,0,0,1,11.11-10.4c.65-.35,1.31-.69,2-1-1.67.8.49-.2.73-.29,1.4-.48,2.8-.92,4.24-1.27.71-.17,1.43-.33,2.16-.46,2.35-.44-1.68,0,.72-.07a46.59,46.59,0,0,1,5.15.09L628.21,200a21,21,0,0,1-.6,2.7c.62-1.94-.36.48-.69.95-1.2,1.72,1.1-1-.47.41a32.83,32.83,0,0,1-2.63,2.38c1.14-.85-.39.18-.75.39-.84.49-1.65,1-2.49,1.52-2,1.18-4.13,2.23-6.23,3.27a248.11,248.11,0,0,1-28.55,12,360.29,360.29,0,0,1-62.52,15.68l12.2,21c8.89-8.87,18.76-15.86,28.3-23,5.86-4.38,9.27-7.37,14.5-11.26s10.81-7.85,16.34-11.59a503.74,503.74,0,0,1,65.25-37.33q8.31-4,16.77-7.58c-2.77,1.19,2.28-.94,2.25-.93,1.55-.64,3.1-1.26,4.65-1.88q4.66-1.86,9.36-3.6c12.44-4.63,25.13-9.08,38.09-12a58.42,58.42,0,0,1,17.38-1.89c1.55,0,3.08.15,4.63.28-.71-.06-3.06-.59.21.06,1.52.3,3,.61,4.54,1,.59.16,6.39,2.18,3.31.88a51.82,51.82,0,0,1,6.7,3.67c3.64,2.23-1.47-2,1.43,1.18,1.07,1.16,2.24,2.18,3.23,3.41-1.56-1.94.08.19.28.56.8,1.41,1.62,2.81,2.4,4.23,2.31,4.13-.56-2.51.87,2,.57,1.83,1.19,3.64,1.67,5.5a78.49,78.49,0,0,1,1.78,8.86c-.43-3,.25,2.75.24,2.66.1,1.18.18,2.36.25,3.54a134.61,134.61,0,0,1-.63,21.15c-.56,5.61.65-3-.36,2.54-.31,1.74-.58,3.49-.94,5.22-.59,2.9-1.29,5.78-2.05,8.63a195.46,195.46,0,0,1-6.71,20.45c-3.85,9.95-10.71,23.73-17,35.3s-13.14,22.94-20.11,34.17q-20.58,33.19-43.73,64.69-5.58,7.61-11.32,15.11s-3.45,4.47-1.49,1.95c-.7.9-1.4,1.81-2.11,2.71q-3.69,4.73-7.45,9.43-12.07,15.07-24.72,29.68-28.65,33.11-60.13,63.61Q565.43,517,549.06,531.5c-5.57,4.93-11.22,9.77-16.86,14.62s-10.32,10.75-16,15.37c-6.45,5.22-5.43,16.29,0,21.72,6.37,6.37,15.24,5.23,21.71,0-1.77,1.43,2.8-1.64,2.51-1.44l4.2-2.9c3.52-2.44,7-4.9,10.34-7.61,5.31-4.35,10.47-8.9,15.64-13.42Q586,544.26,601,530.05q29.84-28.42,57.25-59.23A1024.29,1024.29,0,0,0,758.94,337.21c31.3-49.5,62.8-106.06,52.38-166.8-2.4-14-8.37-28.51-19.21-38.09-11.41-10.08-25.61-15-40.66-16-15.26-1.06-30.73,2.92-45.16,7.49-12.76,4-25.32,8.7-37.67,13.85-28.66,12-56,26.32-81.58,44q-19.47,13.5-37.62,28.84c-11.53,9.75-21,21.45-31.67,32.07-7.33,7.31-2.24,22.11,8.86,21.41a249.58,249.58,0,0,0,72.57-15.67,271,271,0,0,0,33.44-15.05c10-5.5,20.08-14,22.06-25.94,1.52-9.11-3.66-16.8-13.24-17.38-21.05-1.27-43,9.74-53.13,28.63-6,11.29-6.85,26.52,3.69,35.53,8.83,7.55,20.06,8.06,31,6,8.15-1.51,16.25-4.83,24-7.82,8.88-3.44,17.69-7.37,25.46-13,14.44-10.36,31.85-29.69,25.37-49.08a20.76,20.76,0,0,0-13.48-13.45c-6.85-2-13.57.24-19.59,3.48a74.24,74.24,0,0,0-23.18,20.07,75.48,75.48,0,0,0-13.6,27.55c-2.62,10.33-4.19,23,1,32.72,12.94,24.15,43.42,7.74,58.8-4.34C703.47,244,723.92,217,705,198.56c-16.86-16.44-42.46-4-57.64,8a76.31,76.31,0,0,0-19.9,23.55c-2.75,5.19-5.47,11-5.35,17,.16,8.34,4.82,15.81,12.65,18.91,10.12,4,22.05-.32,31.66-4.17A100,100,0,0,0,693.22,246c13.68-11.2,36.16-37.63,18.29-54.45-10.09-9.49-25.47-4.93-36.46.36a62.55,62.55,0,0,0-23.76,20.8c-7.21,10.28-10.71,23.74-3.66,35.07,6.29,10.1,19,13.46,30.22,12.31s21.89-5.32,32.18-9.79a138.4,138.4,0,0,0,26.5-15.12c17.75-12.95,41.05-32.17,33.9-57.07-7.94-27.61-38.83-32.9-63.28-28.21-22,4.21-42.32,16.74-61.58,27.63C605.12,200.45,564.84,224.5,526.65,251q-14.17,9.84-28.21,19.89c-6.58,4.72-9.75,13.07-5.38,20.53,3.95,6.76,13.69,9.8,20.52,5.38Z"/><path d="M772,156.51a8.66,8.66,0,0,1,1.75,0c-1.7-.29-2.08-.34-1.15-.13q1.67.43-1.43-1c-4.63-2.69.5.78,1.31,1.3.61.39,1.3.71,1.93,1.06,1.82,1-.68-.14-.81-.65a6,6,0,0,0,1.24,1.27c-.83-.47-2-2.62-.58-.5a22.51,22.51,0,0,0,3.29,4c4.76,4.35,12.47,6,18.2,2.34a15.48,15.48,0,0,0,6.91-17c-2.1-8-9.58-13.44-17.25-15.64-6.49-1.86-13.49-.16-19.38,2.83-10.37,5.25-5.6,22.69,6,22Z"/><path d="M761.56,144.91c-.7-4.41.23,1.27.48,2.11a14.77,14.77,0,0,0,3.32,5.7c.49.53,4.71,4,2.89,2.53,1.18,1,2.34,1.93,3.51,2.89,3.75,3.05-.78-1,1.66,1.39.82.81,1.66,1.57,2.45,2.41s1.54,1.73,2.29,2.61c-3.44-4.09,3.85,5.63.79,1.1,1.31,1.93,2.41,3.93,3.61,5.93,1.63,2.72-.34-1.47.24.36.34,1.1.78,2.17,1.09,3.28.39,1.34.6,2.71,1,4.05-.58-2.16-.19-2.13-.05.11.16,2.54-.19,5.08,0,7.61.51,8.93,6.4,16.31,15.47,17.53,8.3,1.11,17.72-4.07,19.58-12.79,3.56-16.67-4.29-36-16.12-47.79-5.4-5.38-13.39-10.63-20.9-12.37-5.15-1.19-10.48-1.71-15.2,1.12-4.53,2.7-6.86,7-6,12.22Z"/><path d="M773.3,155.1a21.75,21.75,0,0,1,2.23,2.17q-1-1.49.49.75a63.37,63.37,0,0,1,2.86,5.71q1.08,2.64.32.62c.41,1,.79,2.09,1.13,3.16.7,2.14,1.16,4.32,1.66,6.51s.39,2.22.12.43c.11,1.12.2,2.24.25,3.36.12,2.26.08,4.52,0,6.79s-.24,4.54-.42,6.81-.24,2.27,0,.34c-.14.84-.29,1.68-.45,2.51A102.78,102.78,0,0,1,778,207.17c-.77,2.31-1.64,4.57-2.51,6.85-.82,2-.91,2.25-.29.74-.49,1.12-1,2.23-1.49,3.34-5.37,11.74-15.46,24.05-8.29,37.09,2.49,4.53,8.76,8.83,14.17,8.13,6.13-.8,11-2.12,14.91-7.18a47.85,47.85,0,0,0,4.91-8.23q4.19-8.43,7.85-17.09a131.56,131.56,0,0,0,10-36c2.68-22.45-4.65-51.5-26.85-61.91-6.36-3-13.78-2.31-18.23,3.64-4,5.38-4.19,13.75,1.11,18.56Z"/><path d="M751.62,226A448.89,448.89,0,0,1,723.39,274a364.57,364.57,0,0,1-32.74,42.35l22.8,22.8c19.94-24.16,40.66-51.09,55.73-80.63a270.51,270.51,0,0,0,19.1-47.1c5.18-17.79,6.47-38.83-5.47-54.28-11.45-14.82-34.62-22.94-51.1-11l25.65,19.72c.29-.92.58-1.81.91-2.71-1.19,3.26-.39,1,.05.27s1-1.64,1.47-2.46c1.6-2.69.33-.46-.16.09,1.29-1.43,2.73-2.68,4-4.08-2,2.11-1,.67-.11.09s2-1.28,3.06-1.85c.5-.27,3.25-1.43,1.16-.66s.79-.15,1.31-.29c.92-.26,1.86-.41,2.79-.64,2.43-.59-2.85-.13-.38.14.93.1,1.92-.05,2.86,0,.64,0,3.59.52,1.21,0s.59.22,1.16.36c1.16.29,2.28.77,3.43,1-3-.71-1.37-.68-.31-.11.84.46,1.69.89,2.51,1.38s1.59,1.07,2.4,1.58c-2.9-1.83-1-.82-.31-.12.93.93,4.06,4.84,1.89,1.65.54.79,1.07,1.57,1.56,2.4.24.4,2.11,4.37,1.25,2.24s.32,1.16.47,1.65c.32,1.05.59,2.1.83,3.17.12.56.72,4,.37,1.59s.06,1.08.1,1.65a90.45,90.45,0,0,1-.44,14.25c-.36,3.75-.07.63,0-.11-.17,1.08-.33,2.17-.51,3.26-.36,2.16-.8,4.3-1.23,6.46-.9,4.55-1.89,9.07-3.1,13.56q-1.7,6.3-3.83,12.47-1.07,3.09-2.23,6.13c-.39,1-.78,2-1.18,3-.66,1.64-1.33,3.17-.24.66a294.34,294.34,0,0,1-26.55,47.59c-5.17,7.65-10.61,15.13-16.21,22.47l-1,1.37-1.06,1.36q-2.09,2.65-4.18,5.29-4.46,5.58-9,11.1c-12.85,15.62-25.92,31.05-38.91,46.55l-84,100.17c-26.77,31.94-53.35,64.12-81.82,94.59-13.83,14.81-28.17,29.17-43.29,42.67q-11.07,9.87-22.7,19.07l-2.77,2.17c-2.44,1.92,2.42-1.81-.07,0-1.64,1.22-3.26,2.47-4.91,3.7q-6.33,4.73-12.82,9.25c-31.71,22.22-65.72,41.27-100.46,58.3-17.43,8.55-35.13,16.53-53,24.2-.71.3-3.69,1.5-.07,0l-3.4,1.4q-3.42,1.38-6.87,2.69c-4.6,1.74-9.26,3.35-14,4.72S241.74,733.11,237,734c-4,.76-.64.12.17,0-1.18.14-2.37.28-3.56.39a82.39,82.39,0,0,1-8.89.37,66.78,66.78,0,0,1-7.07-.47c4.43.55-2.31-.66-3.42-1q-2.43-.64-4.78-1.49c-.68-.25-3.49-1.51-.92-.3,2.79,1.3-.92-.5-1.48-.79-3.16-1.61-7-3.49-9.58-6,3.47,3.42-.55-.61-1.52-1.51a60.29,60.29,0,0,1-5-5.09c-.35-.41-1.8-1.84-1.83-2.21,0,.14,2.61,3.7.4.44-.94-1.4-1.91-2.78-2.81-4.21-1.94-3.08-5.06-7.26-5.8-10.87.91,4.44-.25-.72-.75-2.15-.64-1.82-1.23-3.66-1.75-5.52s-1-3.71-1.39-5.59c-.26-1.22-.47-2.44-.71-3.66-1.13-5.81.23,3.67-.34-2.21a135.63,135.63,0,0,1,.46-29.6c-.42,3.38,0,.2.09-.42.21-1.22.4-2.45.62-3.68q.67-3.69,1.48-7.34c1.22-5.49,2.67-10.93,4.28-16.31,2.78-9.24,5.93-18.4,9.4-27.4.85-2.23,1.74-4.44,2.64-6.65,1.42-3.46.51-1.19.19-.45l1.44-3.3q3.28-7.38,6.93-14.6a273.53,273.53,0,0,1,14.26-24.89l-31.36-18.33-32.4,56.36c-10.44,18.17-21.49,36.13-31.1,54.76-9.45,18.32-17.35,38.85-15.9,59.85a90,90,0,0,0,22.59,53.4c12.72,14.52,31.28,24.8,50.21,28.41,21.85,4.16,42.93,1.21,63.26-7.55,17.56-7.57,33.65-18.43,49.64-28.81q24.41-15.84,47.94-32.95C403.83,666.82,463,615.58,519.1,561.19c55.48-53.82,108-110.6,159.22-168.46,26.45-29.88,52.32-60.85,65.74-99,11.74-33.39,10.93-73.32-7-104.43a96.74,96.74,0,0,0-16.28-20.85l-24,31.14a48.28,48.28,0,0,1,5.53,3.1c2.85,1.78-1.64-2.1-.55-.34a20.43,20.43,0,0,0,2.25,2.21,13.1,13.1,0,0,1,1.65,1.91c-.13.23-2.29-3.58-.51-.33.51.92,1,1.86,1.57,2.76,1.76,2.92-.57-2.68-.17-.54.34,1.84,1.21,3.64,1.6,5.5.14.62.25,1.24.34,1.87q.25,1.57-.09-.66c-.21-1.7-.26-1.71-.16,0v1.27c0,.73.07,4.44,0,1.23-.05-2.88-.14.33-.36,1.17s-.49,1.61-.72,2.42c-1.16,4.1,1.86-3.74-.1.06L742.18,236c1.13-4.23,2.23-8.46,3.41-12.66a19.37,19.37,0,0,0-35.34-14.9C672.55,274,636,340.13,598.13,405.58,581.62,434.16,565.34,462.9,548,491c-8.2,13.3-16.66,26.45-25.54,39.32q-6.75,9.76-13.84,19.3c-1,1.3-2,2.61-2.95,3.91l-2,2.59c.18-.23,1.72-2.19.4-.54-2.53,3.19-5,6.39-7.62,9.53a390.45,390.45,0,0,1-35.42,37.78c-6.1,5.69-12.41,11.18-18.93,16.41-.84.68-1.7,1.34-2.53,2-2.25,1.83,2.39-1.78.07-.05-1.73,1.3-3.45,2.6-5.19,3.88-3.73,2.72-7.54,5.3-11.35,7.89-8.46,5.74-13,17.48-7,26.78,5.42,8.41,17.71,13.17,26.77,7,53.59-36.4,94-89.05,128.26-143.25,17.37-27.49,33.37-55.8,49.52-84q28.55-49.84,57.57-99.43C700,302.76,722.05,265.48,743.64,228l-35.34-14.9c-1,4.25-2.12,8.48-3.19,12.72a19.31,19.31,0,0,0,11.13,22.67c8.28,3.5,19.72.73,24-7.86,13-26,4.22-62.4-23.45-75.26-9.06-4.22-19.18-3.19-25.58,5.1a19.82,19.82,0,0,0,1.55,26c1.37,1.36,2.71,2.73,4,4.18.25.28,1.78,2.2,1.86,2.19-.08,0-2.2-3.05-.92-1.21a97.61,97.61,0,0,1,6,9.62c.9,1.67,1.67,3.39,2.5,5.1,1,2-.65-1.39-.63-1.49a14.81,14.81,0,0,0,1,2.67,91.76,91.76,0,0,1,3.2,11c.43,1.88.74,3.78,1.12,5.68.26,1.32,1.2,3.17-.1-1a15.23,15.23,0,0,1,.32,2.9,111.26,111.26,0,0,1,.51,11.69c0,3.43-.21,6.87-.54,10.29a14.18,14.18,0,0,1-.31,2.93c1.34-3.56.4-2.58.11-1-.38,2.18-.74,4.35-1.2,6.51a134.7,134.7,0,0,1-7.15,22.81c1.51-3.7-.48,1-1,2.2q-1.46,3.09-3,6.12c-2.09,4.05-4.34,8-6.7,11.91-4.62,7.59-9.65,14.92-15,22-.69.92-1.39,1.83-2.09,2.75.47-.61,2.4-3,0,0q-1.87,2.39-3.78,4.74-4.35,5.39-8.85,10.66c-47.39,55.8-97.36,109.79-149,161.71S407.34,613,349.54,658l-2.78,2.17c-2.4,1.87,2.15-1.65-.27.2-1.63,1.25-3.26,2.51-4.9,3.75q-5.61,4.27-11.26,8.49-11.29,8.43-22.79,16.62c-14.85,10.58-29.86,20.94-45.13,30.92-7.65,5-15.31,10-23.24,14.58-3.83,2.2-7.73,4.29-11.73,6.18-1.06.5-2.13,1-3.21,1.45.36-.15,2.38-.85.37-.19-2.51.82-5,1.82-7.5,2.57-1.87.56-3.77,1-5.67,1.46-1.07.24-2.14.45-3.22.64-.55.1-4,.51-1.6.27,2.2-.22-.54,0-.81,0-1.09.07-2.18.17-3.28.22-2.45.11-4.91.1-7.37,0-1.91-.09-3.81-.27-5.71-.45,3.78.36-2-.43-3.22-.69a75.23,75.23,0,0,1-12.47-3.84c3.31,1.36-2.39-1.27-3.07-1.64-1.68-.9-3.31-1.89-4.9-2.94-1-.66-4.49-3.44-1.94-1.25-1.74-1.5-3.48-3-5.11-4.59q-2.17-2.15-4.16-4.47c-.5-.58-1-1.17-1.47-1.76,2.17,2.64.48.6.08,0A97.91,97.91,0,0,1,147,715.22c-1.52-3-.26-.53,0,.12-.37-.94-.73-1.89-1.06-2.85-.58-1.67-1.1-3.37-1.54-5.09-.52-2-.85-3.95-1.27-5.94s.12.81.13,1c-.08-1.52-.26-3-.31-4.55-.06-2,0-4,.09-5.92.07-1.17.19-2.33.29-3.49.18-2.16,0,.14-.05.49A111.57,111.57,0,0,1,147,674.65c.67-1.95,1.39-3.87,2.16-5.78-1.17,2.9,1.5-3.29,1.74-3.82,2-4.31,4.26-8.53,6.55-12.71,4.69-8.54,9.64-16.93,14.5-25.37l30.49-52.92,15.24-26.46c4.74-8.24,2.19-20.25-6.52-24.85a18.55,18.55,0,0,0-24.84,6.52c-24.42,37.84-43.84,80.06-48.78,125.22-4.53,41.52,10.54,86,47,109.06,42.23,26.69,90.81,3.82,131.31-14.17,37.88-16.83,75-35.57,109.74-58.21a575.86,575.86,0,0,0,100.51-82.85c30.57-31.69,58.11-66.15,86.52-99.76L703.53,401c27.69-32.76,56.53-65,80.68-100.53A297.55,297.55,0,0,0,812.27,250a224.83,224.83,0,0,0,10.92-30.86c1.18-4.48,2.22-9,3-13.58.3-1.76,1.18-8.64.7-5-.52,4,.6-4.47.77-5.81.33-2.75.63-5.49.81-8.25,1.57-23.16-5.35-46.41-25.55-59.59-18.86-12.3-43.49-10.36-61,3.17a53.65,53.65,0,0,0-18.25,26.48c-2.13,6.64,1,14.26,6.26,18.35,5.13,4,13.74,5.39,19.39,1.37a14.8,14.8,0,0,1,2.08-1.35q-3.54,1.32-.83.44,2.86-.6-1.12.1a19.24,19.24,0,0,1,2.4.06q-3.95-.6-1,0,1.2.33,2.37.78c-3.44-2.51-.74,0,.34.56q2.37,1.65-.47-.41a24,24,0,0,1,1.85,1.79c1.26,1.46,1.15,1.28-.35-.55a21,21,0,0,1,1.31,2.18c-.74-2-.74-2,0,.13.35,1.08.64,2.17.88,3.27,1,3.61.35-1.42.19,2.06-.1,2.3,0,4.57-.23,6.87.3-3.35-.64,3.28-.78,3.95-.83,4-1.88,7.9-3,11.79q-2,6.59-4.32,13.05c-1.18,3.26-3.45,9.08-4.16,10.74A325.39,325.39,0,0,1,720.64,276a341.07,341.07,0,0,1-30,40.33c-5.5,6.38-6.74,16.61,0,22.8,6.24,5.73,16.67,6.6,22.8,0a258,258,0,0,0,36.24-48.77A254.28,254.28,0,0,0,773,235c3.68-12.51-15.37-21.08-21.42-9Z"/><path d="M485.24,311.73c10.54,9.84,23.92,15.58,36.06,23.13,6.14,3.81,12.13,7.88,18.14,11.89,2.65,1.76,5.27,3.56,7.85,5.43l2,1.47q-2.17-1.71-.58-.45c1.27,1.06,2.56,2.09,3.81,3.17a86,86,0,0,1,6.52,6.28c1.1,1.2,2.19,2.43,3.2,3.72-2.6-3.33.51,1,.77,1.43.87,1.39,1.6,2.85,2.4,4.28,1.9,3.43-.43-2.37.67,1.7.81,3,1.54,6,2.26,9,.52,2.21-.11-3,.07.77.08,1.71.24,3.42.3,5.13.1,3.47,0,6.94-.2,10.39-.45,7.8-2.9,16.45-.59,24,4.72,15.43,25.8,18.48,34.27,4.48,4.66-7.71,4.62-19.5,5.08-28.5a115.41,115.41,0,0,0-1.59-25.71c-2.82-16.2-11.64-30.76-23.67-41.83A171.36,171.36,0,0,0,542.94,305c-14.92-7.48-31.43-15.94-48.5-15.47-10.85.29-17.71,14.26-9.2,22.2Z"/><path d="M524.68,297.7a168.55,168.55,0,0,1,27.11,15.07c4.15,2.8,8.39,5.41,12.43,8.36,1,.7,2.84,2.14.9.63,1,.8,2,1.62,3,2.44q3,2.49,5.9,5.12c7.61,6.91,15,13.82,21.54,21.79.31.39,3,3.84,1.43,1.77s1.33,1.83,1.32,1.83c1.56,2.16,3.11,4.34,4.47,6.63.57,1,1,2,1.62,2.94-1.85-2.93-.21-.59.15.68.63,2.26.63,2.89.24.18l0,1.53q.59-4-.42-.71L640,361.3c-9.4-19.91-28.17-35.35-46.56-46.63-9.22-5.66-18.89-10.53-28.23-16-5-2.89-9.89-5.9-14.61-9.19-2.12-1.48-4.18-3-6.23-4.59-1-.73-.91-.68.15.14L543.22,284c-.9-.77-3.34-4.12-1.69-1.09l2.36,8.72-9.07,12.51-2.22.22c.36-.34,2.44.06,2.87.09a68,68,0,0,1,7,.62c-1.82-.29,0,.08.76.25,1.42.32,2.85.6,4.27.92,2.27.53,4.53,1.1,6.78,1.73,4.51,1.25,9,2.71,13.34,4.32,2.21.81,4.39,1.66,6.57,2.54,2.73,1.1-1.9-.84.8.33,1.35.59,2.69,1.18,4,1.79a376.73,376.73,0,0,1,51.06,28.87c7.64,5.05,18.4,2.12,23.7-4.74a18.45,18.45,0,0,0-1.43-24.13c-25.88-27.12-63.81-44.49-100.5-50.21l12.48,12.48q-20.64,15.94-9.18,15.24c1.84.19,2.21.21,1.12.06l1.43.2,4,.54,11.87,1.63c8.89,1.22,17.75,2.61,26.61,4,17.22,2.76,35.1,4.43,52,8.65a18.87,18.87,0,0,0,22.14-10.87c3.25-7.7.92-19.77-7.68-23.43-8.87-3.77-18-6.66-27-9.93-4-1.46-8-3-12-4.58q-3.09-1.28.28.14c-1-.42-1.95-.84-2.91-1.27-2-.9-4.09-1.78-6.16-2.62q3,1.29,1,.44a167.73,167.73,0,0,1-21.54-11.28c-1.75-1.12-3.47-2.27-5.15-3.48-.85-.6-1.68-1.21-2.5-1.83q3.87,3-2.45-1.91c3.38,2.72-1.75-1.53-2.31-2-1.58-1.38-3.09-2.82-4.59-4.29L564,262.41c19.07,2.76,37.9,7.63,56.85,11.16q14,2.6,28,4.93,6.76,1.13,13.55,2.19c2.59.4,5.17.83,7.76,1.19q-2-1.58.87,0l3.36,1.44c7,3,13.78,4.06,20.7,0a20.81,20.81,0,0,0,4.15-32.21c-5.69-5.69-12.43-6.31-20-5.27l-3.61.49c1.93-.16,1.7-.27-.67-.32l-1-.13-2.92-.4q-7.3-1-14.6-2.09-13.6-2-27.18-4.29c-18.61-3.11-37.72-5.77-55.86-11.07-7.28-2.13-16.52,1.34-20.14,8.2-4,7.55-2.42,15.17,2.79,21.61,11.51,14.22,27,24.9,43.29,33.05a222.07,222.07,0,0,0,52.73,18.67l5-36.86c-11.19-.5-22.45-2.63-33.56-4.09s-22.41-2.71-33.55-4.41c1.75.27-.91-.19-1.27-.25l-3.94-.61-7.88-1.21c-5.92-.92-11.84-1.89-17.78-2.69-8.22-1.1-16.26.38-22.62,6a23.08,23.08,0,0,0-6.68,23.25c1.47,5.57,6.56,11.42,12.48,12.48a176.51,176.51,0,0,1,25.32,6.42q5.43,1.83,10.73,4c-3.71-1.51,2.48,1.14,3.11,1.44,2,.92,3.93,1.87,5.87,2.87a196,196,0,0,1,21,12.56c1.8,1.23,3.55,2.53,5.33,3.78s1.74,1.31.14.07c.86.67,1.71,1.35,2.56,2,3.38,2.76,6.6,5.71,9.91,8.55l22.27-28.86c-16.54-8.71-32.72-18.17-49.84-25.72-17.91-7.9-36-13.67-55.33-16.67-12.15-1.88-26.67-2-32.35,11.47-6.09,14.42,5.72,24.94,16.14,32.86,14.42,11,31,18.59,46.35,28,3.8,2.33,7.48,4.83,11.12,7.4,2.77,2,.74.51.17.07,1,.8,2,1.63,3,2.47q2.7,2.26,5.24,4.69c.74.72,1.48,1.45,2.2,2.2.3.31,3.21,3.37,1.66,1.64-1.32-1.47.26.37.44.63.87,1.26,1.72,2.52,2.52,3.82,1.07,1.75,2,3.56,2.94,5.37,1.65,3.09.2.33-.06-.35.55,1.44,1,2.88,1.52,4.35a19.65,19.65,0,0,0,16.22,14c7.12,1,16.15-2.33,19.44-9.31,4.25-9,5.66-18.51,2-28.06-3.15-8.3-7.88-14.74-13.39-21.64a157.8,157.8,0,0,0-25-24.94,141.9,141.9,0,0,0-70.15-29.64c-5.67-.77-11.22.87-13.54,6.65-1.93,4.78-.62,12,4.7,14.34Z"/><path d="M588,382.18s-.32,2.55-.08,1.21-.37,1.14-.36,1.11c-1,3.15-.21,1.08,0,.4-.61,1.68-1.45,3.25-2,5s-1.08,3.26-1.46,4.87c-.62,2.7,1.08-2-.15.51-.51,1-1,2.09-1.54,3.12-3.59,6.93-7.78,13.62-11.66,20.4q-11.7,20.44-24.86,40-6.33,9.42-13,18.61-3.31,4.59-6.73,9.13-1.83,2.44-3.69,4.87c-.1.14-1.86,2.42-.63.83s-1,1.24-1.18,1.5q-14.54,18.54-30.27,36.1-8.73,9.75-17.85,19.15c-6.89,7.1-14.42,13.89-19.15,22.67-3.44,6.39-3,15.3,2.63,20.45,5.88,5.4,13.38,6,20.45,2.64,8.21-3.88,14.79-10.61,21.14-17q8.91-9,17.48-18.28,16.85-18.32,32.12-38a686.42,686.42,0,0,0,56.59-84.42c10.2-18.09,23.95-42.24,9.7-61.81-3.63-5-9.2-8-15.48-6.3-6,1.65-9.73,7.16-10.07,13.22Z"/><path d="M278.83,666.61c6.9,5.86,14.78,8.23,23.76,5.87,6.94-1.82,13.51-6.06,19.48-9.92a156.14,156.14,0,0,1,17.37-10.14s2.58-1.11,1.08-.5,1.11-.4,1.13-.41c1.6-.57,3.21-1.15,4.82-1.7,3.51-1.19,7-2.29,10.53-3.51,7.75-2.71,15.58-5.83,22.25-10.69s12.58-10.5,18.53-16.23c2.46-2.37,5-4.68,7.55-6.89q2.28-1.93,4.62-3.79c-1.9,1.51,2-1.48,2.62-2,6-4.39,12.18-8.48,18.42-12.5,13-8.41,26.09-16.69,38.36-26.24s22.77-20.61,32.84-32.27c10.81-12.53,21.4-25.25,32.09-37.89,11-13,22.24-25.77,32.3-39.48,10.76-14.66,18.5-31.05,24.8-48.06s12.16-35,14.35-52.95c1.07-8.69-7.55-16.33-15.34-17.38-9.34-1.25-16.06,4.38-19.42,12.68-5.46,13.5-7.88,28.37-12.56,42.2q-1.68,5-3.56,9.91c-.63,1.63-1.27,3.26-1.94,4.88,1.39-3.36-.87,1.93-.95,2.1a161.85,161.85,0,0,1-10.73,20c-2,3.13-4.09,6.18-6.28,9.17.08-.11-3.57,4.74-1.66,2.26-1.14,1.47-2.31,2.92-3.47,4.36-4.77,5.9-9.68,11.69-14.54,17.51q-15.61,18.69-31.23,37.37c-9.56,11.43-19.2,22.88-30.26,32.91q-3.23,2.92-6.6,5.68c-.08.06-4.5,3.52-1.83,1.48q-2,1.56-4.13,3.06c-6,4.37-12.23,8.46-18.46,12.52-12.73,8.31-25.41,16.6-37.27,26.14-5.32,4.28-10.24,9-15.11,13.74-2,2-4,4-6.1,5.85-1.25,1.13-2.51,2.27-3.84,3.29,2.24-1.71-2.93,1.81-3.45,2.11-6.16,3.58-11.16,4.78-19.59,7.71-8.14,2.83-16.1,6-23.16,11-5.82,4.12-11.21,8.86-17.25,12.67-2.84,1.79-5.89,3.19-8.78,4.9a45.26,45.26,0,0,0-5.06,3.74q2.2-2.07-1.89,1.33c.94-.55.8-.43-.43.35-4.89,3.31-7.22,11.23-2,15.65Z"/><path d="M274.15,665.55c5,11.14,21.06,10.79,29,3.42a20.59,20.59,0,0,0,6.89-14.39c.22-6.07-2.14-10.14-5.83-14.86l-7.38,27.95c17.18-6.4,34.27-13.49,51-21a221.44,221.44,0,0,0,21.69-11c7.87-4.62,18.81-10.47,22.93-18.83,5.94-12.09-3.88-27-17.87-23.24-8.26,2.2-15.36,9.26-22.75,13.52a225.22,225.22,0,0,1-21,10.48c-5.83,2.59-12,5.05-19.66,8.16-9.11,3.69-18.26,7.3-27.25,11.27-10.52,4.65-9.75,19-3.39,26.27l.74.85-4.29-7.37a6.9,6.9,0,0,1,2.35-6.6q4.85-6.37,1.12-3.48c-1.92.9-3.65,2.9-4.93,4.53-3.42,4.39-3.73,9.18-1.44,14.25Z"/><path d="M198.65,755.29c8.55-3.15,17.59-4.19,26.12-7.25,9.21-3.31,18.59-6.72,27.33-11.14,14.61-7.39,28.42-16.49,41.9-25.75,27-18.57,52.7-39.15,82.93-52.49,7.23-3.19,14.68-6,21.38-10.27,10.66-6.74,23.33-18.08,18.65-32.21-2-6.15-8.49-12.82-15.7-12-6.78.81-11.72,2.86-16.54,7.82-1,1-2,2-3,3-2.42,2.26-.21.14.36-.23-.81.53-1.59,1.1-2.41,1.62-5.85,3.72-12.31,6.37-18.66,9.12a276.38,276.38,0,0,0-41.78,23c-26.73,17.58-51.4,38.3-78.88,54.73-8.06,4.82-16.15,9.64-24.42,14.09-9.08,4.91-17.35,11-26.81,15.21-5.57,2.48-7.32,10.41-5.08,15.52s8.76,9.36,14.65,7.19Z"/><path d="M195.5,551.76c.17.18,3.15,3.92,1.35,1.41a41,41,0,0,1,2.35,3.73c1.22,2.16,2.27,4.43,3.27,6.69-1.45-3.29.43,1.31.55,1.65.51,1.43,1,2.88,1.46,4.32.93,2.92,1.73,5.87,2.65,8.79A179.76,179.76,0,0,0,247,647.41a174.92,174.92,0,0,0,12.87,12.53c1.87,1.65,3.67,3.49,5.64,5l.9,1q-5.26-5.77-2-13.5,2.11-2.68.06-.43l-2.42,2.37c-4.45,4.31-8.93,8.62-13.56,12.75-2.1,1.88-4.24,3.72-6.4,5.53-1.3,1.09-2.6,2.16-3.92,3.23L235.58,678q2.4-1.85-.19.14C225,685.9,214,692.74,202.89,699.47c-2.41,1.46-4.85,2.88-7.3,4.26s-6.82,2.75-8.94,4.78c2.39-2.29,20.27,2,12,2.82l1.16,1.37q-1.29-2.66-.05.15a95.16,95.16,0,0,1-3.4-9.27A137.46,137.46,0,0,1,192.12,686q-.44-2.43-.78-4.86c.57,3.9-.14-1.48-.18-1.87q-.51-4.9-.7-9.83a158.36,158.36,0,0,1,.61-21.34c.15-1.64.33-3.27.54-4.9-.48,3.67.36-2,.48-2.69q.93-5.26,2.19-10.45a162.79,162.79,0,0,1,6.5-20.32c1.24-3.18.44-1.09.15-.42.87-2,1.8-4,2.76-6,1.69-3.44,3.52-6.81,5.46-10.12H179.39a602.62,602.62,0,0,0,67.3,104.81L255,666.56c-10,3.85-20.34,7.07-30.71,10-5.18,1.43-10.58,2.27-15.7,3.82-1.33.24-1.24.26.25.06q3.84-.81,6.59,3.23c3.07.49,5,2,5.87,4.37.48,1.23.57,1.34.26.33-.12-2.6-1.46-5.72-2.1-8.24-5.46-21.5-11-42.92-17.09-64.22l-32.48,13.7c9.07,12.17,17.31,25,25.8,37.55s17,25.14,24.88,38.1c5.13,8.43,17.13,12.37,25.81,6.77,7.7-5,13.21-17.45,6.77-25.81-9.3-12.08-18-24.52-26.75-37s-17.71-24.71-25.82-37.54a17.9,17.9,0,0,0-22.2-7.28c-8.44,3.57-12.09,12.17-10.29,21,2.64,12.8,5.32,25.52,8.36,38.24l4.54,19c1.6,6.7,2.69,13.81,5.37,20.16,3.92,9.3,12.52,16,23,15.79,6.84-.12,14-2.07,20.6-3.67,13.69-3.32,26.67-8.28,39.61-13.82,12-5.14,10.81-21.52,3.81-29.62-3.16-3.67-6.29-7.36-9.36-11.11-1.53-1.87-3.05-3.76-4.56-5.65l-2.25-2.85c-.56-.7-1.67-2.13-.49-.6-6.12-7.93-12-16.07-17.64-24.35a463.49,463.49,0,0,1-29.91-51c-6-11.77-23.48-10.63-29.76,0A174.3,174.3,0,0,0,161.31,709c2,7.58,4.06,16.34,8.21,23.06,6.67,10.78,19.58,14.54,31.19,9.82,29.48-12,55.78-30.24,78.78-52.16,5.72-5.46,12-11.42,16.16-18.2a25.15,25.15,0,0,0-4.29-31.41c-1.75-1.65-3.77-3-5.66-4.5s1.89,1.72-.14-.13c-.61-.55-1.25-1.06-1.87-1.59q-4-3.5-7.78-7.24t-7.28-7.72c-1.08-1.23-2.15-2.47-3.19-3.73-.52-.62-1-1.28-1.55-1.89-1.94-2.23,2.3,3.15-.77-1a165.71,165.71,0,0,1-12.78-19.93c-2-3.6-3.72-7.27-5.43-11,0-.11-1.13-2.58-.42-.93s-.57-1.44-.68-1.72q-1-2.6-2-5.24c-5.6-15.69-11.2-32.62-24.64-43.45-6.45-5.2-15.41-6.3-21.71,0-6,6-5.69,15.64,0,21.71Z"/><path d="M189.35,531.43c-11.63,10.08-24,20.21-33.79,32.11-10.42,12.66-20.38,25.74-29.74,39.21q-13.32,19.17-25,39.43c-8.08,14-16,28.46-21,43.92-5.65,17.46-6,35.81,1.46,52.74,6.51,14.78,19.51,26.58,32.82,35.23,25.07,16.28,57.62,22.4,87.12,19.36,38.37-3.95,73.48-19.17,108.08-35.39,6.8-3.19,10-12.14,9.11-19-1-7.28-6.31-14-13.67-15.87-18.1-4.5-35.15.59-52.36,6a187.78,187.78,0,0,1-22.91,5.66c-1.79.32-3.59.6-5.39.88,2.91-.46-1.46.17-2.34.26-4.22.44-8.44.72-12.68.81-3.61.08-7.23,0-10.84-.16-1.79-.1-3.59-.23-5.39-.4-.89-.08-1.79-.2-2.68-.28-3-.28,2.38.5-.56-.09-7.42-1.5-14.74-2.93-21.89-5.47q-2.41-.86-4.78-1.83c2.85,1.18,0-.08-1.18-.63q-4.31-2.08-8.41-4.55c-2.73-1.64-5.3-3.48-7.92-5.29,2.35,1.62-.33-.26-1.18-1q-2-1.65-3.84-3.39a90.6,90.6,0,0,1-7.54-7.89c-.47-.55-.91-1.12-1.38-1.68-1.59-1.89,1.27,2-.06-.12-.91-1.42-1.95-2.77-2.86-4.19a92.8,92.8,0,0,1-4.88-8.85c-1.35-2.76-.37-.76-.12-.14-.36-.9-.7-1.8-1-2.72-.66-1.82-1.26-3.67-1.75-5.55-3.54-13.59-21.8-15-28.92-3.78-18.16,28.62-11.72,66,9,91.35s56.25,36.3,88.1,33.51c9.55-.84,18.85-7.85,18.37-18.38-.41-9.35-8.11-19.14-18.37-18.38-15.44,1.15-31.1,2.59-46.55,1,3.16.33-2.29-.36-2.71-.44-1.49-.28-3-.59-4.45-.94-2.71-.65-5.4-1.43-8-2.35-.52-.18-5-2-2.74-1s-2.12-1.07-2.6-1.32c-2.71-1.4-5.13-3.14-7.75-4.68-1.84-1.08,2.15,2-.4-.29-1.11-1-2.24-2-3.31-3s-2-2.18-3-3.29c-2.78-3,1.25,2.23-.7-1-.73-1.21-1.5-2.37-2.16-3.63-.33-.6-.63-1.22-.91-1.84q-.86-1.86.54,1.27c-.19.09-2.09-7.13-2.25-7.9-.93-4.31,0,3.85,0-.57,0-1.36-.1-2.72-.06-4.09l.06-1.35q.29-3.11-.19.78c-.21-1.06.58-2.95.85-3.94.35-1.29.79-2.54,1.25-3.8-.78,2.12-1,1.93.18.09.27-.43,2.59-4.23,1.16-2.09s1.72-1.81,2.15-2.24L79.58,698.86c-16.17,27.76-16.84,65.93.51,93.36,16.85,26.62,49.59,44.21,81.35,40.81,9.66-1,19.11-7.83,18.63-18.63-.42-9.3-8.24-19.63-18.63-18.64-13.89,1.33-27.87,2.65-41.82,1.55-1.53-.12-3.07-.25-4.59-.45,3.59.46-1.61-.34-2.32-.48a81.53,81.53,0,0,1-10.32-2.7c-.51-.17-4.38-1.53-1.83-.6s-1.25-.59-1.75-.83a66.09,66.09,0,0,1-7.57-4.37c-.43-.29-3.73-2.72-1.65-1.1s-1.6-1.43-2-1.8c-1.95-1.77-3.74-3.68-5.51-5.63-3-3.36,1.83,3.09-.55-.75-.62-1-1.28-2-1.86-3-.27-.46-2.48-4.57-1.27-2.2s-.41-1.18-.59-1.74c-.42-1.35-.73-2.7-1.07-4.07-1-4.22-.1,3.77-.1-1a47.88,47.88,0,0,1,.33-7.85c-.62,3.94.32-.66.55-1.49.06-.25,1.68-5.06.39-1.84A31.53,31.53,0,0,1,80,751.2c-1.35,2.3.89-.93,1.41-1.48L53.52,733.46c-4.47,25.47-9.43,53.46,0,78.45,8.18,21.58,25,41.57,48.67,46l4.87-36a57.48,57.48,0,0,1-11,.4c-.91-.05-1.83-.14-2.74-.24,2.6.37,2.87.39.8,0-1.79-.42-3.59-.75-5.37-1.25s-3.5-1.14-5.24-1.74q-2.86-1.14.57.26c-.84-.39-1.67-.79-2.5-1.21a74.48,74.48,0,0,1-9.44-5.84c4,2.81-.92-.84-1.64-1.49q-2.08-1.83-4-3.84c-1.28-1.34-2.47-2.74-3.65-4.16,3.06,3.66-.65-1.07-1.17-1.89q-1.48-2.32-2.76-4.78c-.42-.81-.82-1.64-1.2-2.47q1.35,3.36.24.52a67,67,0,0,1-2.76-10.7C54,776.13,45,770,37.78,770.31s-16.32,5.29-17.41,13.25c-2.23,16.46-4.53,33-.33,49.38,3.74,14.58,12.69,27.8,25.77,35.46V837.23l-1.21.64a5.81,5.81,0,0,1,4-1.07c-.42.24-2.55-.19-2.68.06.33-.63,3.9.91.18-.13s-.19.21-.1.09a20.53,20.53,0,0,1-2.4-1.41c-3.63-2,1.42,1.77-.06-.12-.64-.82-2.54-3.23-.39,0-.9-1.33-1.62-2.68-2.42-4.07,1.81,3.15.19.45-.17-.68s-.67-2.56-1-3.84c-.91-3.33-.23-.64-.12.2-.21-1.6-.31-3.22-.37-4.82-.1-2.52,0-5,.1-7.56.09-1.52.23-3,.36-4.55.35-4-.51,2.06.35-2.27a175.09,175.09,0,0,1,10.85-34.92c-1.11,2.6.14-.26.31-.66.64-1.4,1.25-2.82,1.88-4.22,1.14-2.53,2.3-5,3.47-7.55q4.35-9.34,8.76-18.64c10.47-22.13,21.27-44.15,33.83-65.18q9.39-15.72,20.08-30.61,5.28-7.39,10.83-14.59c-.49.63-1.83,2.33.44-.57l2.82-3.57q3.1-3.92,6.28-7.78c17.33-21.14,35.9-41.22,54.64-61.1,6.65-7,7.52-19.28,0-26.19-7.21-6.62-19.08-7.52-26.18,0-37.28,39.55-74.07,80.37-101.91,127.31-14.1,23.77-26,48.77-37.74,73.75C15.85,759.36,3.28,786,1.84,815.39c-.78,16.21,3,34,14.82,45.77A40.43,40.43,0,0,0,64,868.4c12.15-6.4,11.3-24.55,0-31.17-.41-.24-3.83-2.47-1.84-1s-1.4-1.37-1.49-1.46c-.69-.69-1.32-1.43-2-2.16,1.63,1.84.74,1-.2-.53-.66-1-1.23-2.14-1.83-3.23-.91-1.63-.58-1.28,0,.23a57.81,57.81,0,0,1-2.19-7.15c-.22-1-.4-1.95-.57-2.92.49,2.79-.05-1.16-.09-1.7a83.83,83.83,0,0,1-.1-8.39c.11-3.13.36-6.24.69-9.35.13-1.25.27-2.49.42-3.74,0,0,.77-5.81.34-2.65H20.37c3.25,20.73,15.93,38.47,32.53,50.75,17.18,12.72,38.21,16.84,59.07,14,7.54-1,13.76-10.44,13.44-17.66-.34-7.55-5.37-16.21-13.44-17.65a44,44,0,0,1-6.11-1.51c-.88-.3-1.74-.63-2.59-1-2.27-.92,2.58,1.55.59.12-1.64-1.18-3.56-2.2-5.29-3.28,1.19.75,1.91,1.64.38.24-.7-.63-1.4-1.24-2.08-1.89-1.54-1.48-2.89-3.1-4.31-4.67-1.67-1.85,1.49,2.36.2.22-.49-.82-1.09-1.58-1.6-2.38a63.54,63.54,0,0,1-3.2-5.62c-.43-.85-.83-1.73-1.24-2.59,1,2.19.52,1.26-.1-.44-6.37-17.71-3.57-39.19-.87-57.48,1.06-7.18-.63-15.15-7.68-18.87-6.32-3.34-15.21-3.06-20.26,2.61-2,2.24-3.77,4.64-5.59,7,2.29-3-2.09,2.74-2.8,3.83a59.23,59.23,0,0,0-5.94,12.57c-3,8.55-3.14,17.45-1.78,26.29C44,790.45,52.63,804.33,64,813.7c27.9,23,63.26,22.6,97.46,19.33V795.76a84.93,84.93,0,0,1-8.87.52c-1.47,0-2.95,0-4.42-.15-1.9-.13-4.17-.52-1,0a79.67,79.67,0,0,1-8.67-1.89c-1.43-.41-2.84-.85-4.23-1.34-.63-.22-5-2.19-1.19-.37-2.68-1.29-5.33-2.57-7.89-4.11-1.26-.76-2.51-1.56-3.73-2.39-.52-.36-4-3.36-1.14-.78-2.21-2-4.45-3.88-6.49-6-1-1.08-1.93-2.23-2.93-3.32,2.49,2.71-.48-.68-.84-1.2a63.18,63.18,0,0,1-4.62-7.92c-.34-.7-1.93-4.82-.73-1.53-.52-1.45-1-2.89-1.5-4.36a88.43,88.43,0,0,1-2.14-9c-.71-3.58,0,2.36-.18-1.64-.06-1.54-.21-3.07-.24-4.62s.09-3.08,0-4.61c-.1-3.5-.63,2,.12-1.7.56-2.77,1.15-5.5,2-8.2.45-1.48,1-2.9,1.48-4.37q.67-1.72-.27.54c.3-.7.63-1.4,1-2.08a70,70,0,0,1,5-8.63c4.9-7.28,2-17.66-4.53-22.7-7.21-5.57-16.41-4.45-23.11,1.38C56,718.16,62.38,761.21,86.85,782.62c28.52,24.94,66.43,25.19,102.07,21V766.88a103.83,103.83,0,0,1-19.86.75c-1.52-.1-3-.24-4.57-.39-5-.5,3.59.76-1.33-.23-3-.6-6-1.19-8.93-2q-2.56-.72-5.08-1.58c-.48-.17-4.78-1.77-2.88-1s-3-1.39-3.44-1.64c-1.35-.68-2.68-1.39-4-2.15a71.05,71.05,0,0,1-7.53-5c2.69,2.06-.73-.72-1.27-1.19-1.31-1.18-2.58-2.39-3.79-3.67-1-1-1.89-2.17-2.85-3.25-.74-.9-.61-.74.39.5-.57-.78-1.12-1.57-1.65-2.38a83.7,83.7,0,0,1-4.28-7.55c-2.13-4.06.94,2.92-.65-1.39-.5-1.36-1-2.73-1.42-4.11a92.2,92.2,0,0,1-2.16-9.12c-.19-1.2-.15-1,.1.75-.08-.71-.14-1.43-.19-2.15-.12-1.66-.18-3.33-.17-5,0-1.43.12-2.84.19-4.27.2-4.47-.72,3,.14-1.36.56-2.8,1.37-5.47,2.14-8.22,1-3.43-1,1.48.55-1.45.88-1.7,1.76-3.38,2.76-5L90.23,691c7.56,28.9,27.63,52.95,53.9,67,31.39,16.81,68,18,102.24,10.93,8.94-1.84,17.62-4.56,26.43-6.93,2.36-.63,4.72-1.23,7.11-1.74.89-.19,1.78-.37,2.68-.53s4.67-.31,1.19-.2c2.08-.07,4.12-.26,6.2-.2.54,0,4.23.26,1.86,0s2.71.64,2.71.64L290,725.07c-6.63,3.12-13.27,6.22-20,9.21l-5,2.21c-.19.09-5.75,2.44-2.19,1-3.95,1.64-7.92,3.23-11.92,4.74a242.45,242.45,0,0,1-42,12.09c-1.8.32-3.6.6-5.4.9-5.9,1,3.88-.28-1.51.18-3.19.28-6.38.56-9.58.76a150.79,150.79,0,0,1-19.25,0c-1.59-.11-3.18-.3-4.78-.42-5.26-.4,3.78.73-1.43-.16-3.14-.54-6.28-1.1-9.39-1.83s-6.13-1.57-9.15-2.56c-1-.32-2-.66-3-1-.68-.24-6.67-2.78-3-1.12A121.36,121.36,0,0,1,126,739.68c-4.22-2.78,2.4,2.25-1.56-1.17-1.25-1.08-2.52-2.14-3.72-3.28s-2.38-2.3-3.49-3.53c-.75-.8-1.47-1.64-2.14-2.51q1.55,1.95-.21-.5c-.68-1.19-1.45-2.32-2.11-3.53-.35-.65-1.79-3.87-.68-1.1a38.79,38.79,0,0,1-1.56-4.94c-.07-.27-.93-5.68-.54-2.12a55,55,0,0,1,0-10.18c.39-5.15-.9,2.79.39-2.27.58-2.27,1-4.55,1.67-6.81,1-3.42,2.18-6.78,3.5-10.08-1.11,2.76,1.16-2.63,1.11-2.51.49-1.08,1-2.16,1.52-3.23,3.32-6.89,7-13.6,10.78-20.25q10.38-18.42,22.13-36,6.85-10.26,14.15-20.2c5.08-6.91,7.38-9.9,12.41-16.14,10.49-13,19.57-26.83,30-39.66,4.38-5.41,5.29-12.94,0-18.23s-13-4.57-18.23,0Z"/><path d="M24.07,846.65c-1.28,7.51-2.19,15.49,2.49,22.1l-1.34-10.29c-2.36,10.9,3.32,19.41,14.62,20.8,4.88.6,9.79,1,14.7,1.24A213.9,213.9,0,0,0,84,879.86a208.14,208.14,0,0,0,59.75-14.09,226.26,226.26,0,0,0,54.78-31.67c8.44-6.61,16.24-14,24.2-21.14,8.73-7.88,13.89-12.12,23.23-18.27a296.46,296.46,0,0,1,30.66-17.38c10.72-5.35,22.27-9.76,32.54-15.91A16.81,16.81,0,0,0,316,740.48c-3.11-7.36-11.77-12.28-19.77-9.71-10.26,3.31-20.24,8.47-30,13.1-9.29,4.42-18.41,9.27-27.25,14.56-18.6,11.12-34.53,25.09-50.46,39.66-3.54,3.24-7.11,6.43-10.81,9.49l-2.54,2.06c-.33.27-2.53,1.94-.45.37q-3.27,2.46-6.63,4.8A200.47,200.47,0,0,1,144.19,829c-3.9,2-7.85,3.84-11.87,5.53,2.42-1-.15,0-.55.19l-3.05,1.19q-3.82,1.46-7.71,2.76A237,237,0,0,1,94.2,846.1c-2.67.57-5.34,1.08-8,1.54l-3.22.52c-5.25.84,3-.31-2.26.32-4.88.58-9.78,1-14.7,1.24-5.45.24-10.91.21-16.36,0-8.08-.35-14.62-1.57-21.23,4.44l23.2,6.13L51,858.46l-1.35,10.29c3.92-7.17,3.36-14.51,1.11-22.1a14.15,14.15,0,0,0-13.33-10.16c-5.65,0-12.33,4.25-13.34,10.16Z"/><path d="M109.54,854.11c8.22-3.72,16.88-6.12,25.44-9,9-3,17.73-6.66,26.5-10.14,18.25-7.22,36-15.88,53.5-24.64,16.81-8.41,33.23-17.53,49.33-27.23q12.29-7.39,24.3-15.21,5.61-3.64,11.16-7.39c5.75-3.88,12.11-7.43,15.36-13.83,2.95-5.81,3.38-12.31,0-18.1-2.9-4.94-9.43-9.62-15.49-8.88-4.74.59-8.56,1.21-12.71,3.73-2.17,1.32-4.2,2.92-6.29,4.36q-5.52,3.78-11.1,7.47-12,7.92-24.2,15.41c-16,9.8-32.39,19-48.89,27.95s-33.37,17.05-49.8,26.05c-8.32,4.57-16.82,8.88-25,13.78s-16.21,9.83-24.94,13.77c-6.23,2.82-7.73,11.86-4.54,17.32,3.75,6.4,11.06,7.36,17.32,4.54Z"/><path d="M72.73,863.14c2.73,2.21,4.14,4.87,7.49,6.87,3.88,2.31,8.24,2.87,12.64,3.37a71,71,0,0,0,21.8-1.15c12.25-2.38,24.36-6.38,36.06-10.64,24.54-8.94,48.25-20.39,71-33.1,46.4-25.87,90.11-56.86,132.05-89.38q35.47-27.52,69.13-57.28c7.69-6.8,7.46-20.83,0-27.67-8.12-7.46-19.58-7.37-27.68,0q-28.33,25.76-58.05,50Q330,710,322.64,715.81q-3.66,2.9-7.34,5.77l-2.95,2.29c2.33-1.81-3.1,2.39-3.61,2.78-3.87,3-7.7,5.94-13.38,10.23q-8.22,6.2-16.53,12.28c-39.63,29-80.84,56.53-125.8,76.62-5.75,2.56-9.31,4-15.88,6.65s-13.37,5.14-20.17,7.37a173.8,173.8,0,0,1-19.17,5.05,49.88,49.88,0,0,1-8.45.8,32.12,32.12,0,0,0-5.27.52,13.82,13.82,0,0,0-4.56,1.62q2.72-.07-.42-.06c-7.24-.05-12.66,10.31-6.38,15.41Z"/><path d="M110,864.52c11.92,7.61,26.77,5,39.94,2.48a184.56,184.56,0,0,0,33.35-9.79c22.47-8.82,43.34-21,63.57-34.08,22-14.19,43.58-29,65.32-43.53,21.26-14.23,42.77-28.08,64-42.43q18.33-12.4,35.67-26.15c10.57-8.41,21.56-17.25,30.24-27.65,6.52-7.8,8.22-20,0-27.51a19.87,19.87,0,0,0-27.51,0c-8.72,8.09-16.94,16.61-26.06,24.29q-6.13,5.18-12.48,10.09c3.15-2.44-1.52,1.16-1.76,1.34l-2.86,2.15q-3.95,2.94-7.92,5.86c-20.13,14.77-40.76,28.9-61.35,43-21,14.4-41.93,28.88-63,43.17-19,12.86-38.29,25.36-59,35.27q-4.26,2-8.57,4c-1,.47-2.08.93-3.13,1.38,2.65-1.14-2.45,1-3,1.2a180.35,180.35,0,0,1-17.71,5.93,153.36,153.36,0,0,1-18.15,3.88c-3,.45-6.1,1-9.07,1.7-1.17.3-2.06.67-3.17,1.06a39.66,39.66,0,0,0-4.9,2q-4.26,3.68-2.43,1.75a12.11,12.11,0,0,0,0,20.65Z"/><path d="M462.35,306.15c8.76,12,20.29,17.36,33.92,22.31,2.71,1,5.42,2,8.11,3,1.23.48,2.45,1,3.67,1.46.44.17,5.28,2.27,1.43.57,5.07,2.25,10.11,4.54,15,7.09A156.81,156.81,0,0,1,538.81,349c2.18,1.44,4.3,3,6.42,4.49,4.21,3-2.92-2.49,1,.8,1,.83,2,1.64,3,2.48a117,117,0,0,1,11.54,11.38c.85,1,1.64,2,2.5,2.95,1.59,1.79-2-2.81.19.25a90.74,90.74,0,0,1,5,7.88c5.25,9.3,18.74,13.22,27.9,7.32,8.59-5.54,13.94-18.62,7.31-27.9-14.48-20.3-32.72-35.57-54.65-47.36a272.46,272.46,0,0,0-33.33-14.82c-5.11-1.92-10.27-3.71-15.43-5.48-3.28-1.13,1.26.76-.64-.21-1.13-.57-2.3-1.08-3.41-1.71-.78-.44-4.11-3.14-1.26-.52-.7-.64-3.59-3.87-1.21-.71-5.71-7.56-15.94-12.26-24.85-6.51-7.59,4.89-12.51,16.64-6.52,24.85Z"/><path d="M190.85,536.12l.09-.14c4.92-7.31-6.8-14-11.75-6.87l-.31-.26,8.7,6.63-.18-.59c2.42-4.73-1.78-12.71-7.83-10.18-2.17.91-4.34,1.84-6.5,2.77l9.43,9.43c11.77-18.34,24.27-37.14,42.51-49.69l-10.19-7.83c-9.34,23.85-8.26,50.59,2,73.91,3.45,7.88,15,1.07,11.58-6.76-8.94-20.33-8.58-43.11-.16-63.47,2.29-5.53-5.46-11.13-10.18-7.83-20.24,14.14-33.88,34.49-47.41,54.71-3.15,4.7,2.18,12.41,7.78,10.13l4.88-2-7.83-10.17a12.75,12.75,0,0,0-1.59,7.58c.6,4.5,3.89,7.73,8.7,6.63a13.05,13.05,0,0,0,8.4-6.13l-11.75-6.87a11.2,11.2,0,0,0-1,8.73c1.85,6.89,13.12,5.72,12.7-1.72Z"/><path d="M203.65,502.84c-1.53,4.92-2.18,10.2-3.31,15.23s-2.75,10.11-4.36,15.12l11.43,1.54.85-27.56c.19-6.23-7.87-7.53-11-3-5.32,7.72-8.52,16.59-11.61,25.37l11.13,1.51a13.89,13.89,0,0,1,3.09-9.22l-10-4.23c-2.12,7.12-5.33,14.65-5.94,22.07-.4,4.87,6.65,6.31,8.91,2.41,3.7-6.39,5.31-14.56,7.61-21.56,1.63-5-5.73-9.71-9.17-5.34a24.82,24.82,0,0,0-5.8,15.87c0,6.72,9,7.26,11.13,1.51,2.95-7.88,6-15.49,10.87-22.43l-11-3-.67,27.56c-.17,6.66,9.58,7.77,11.42,1.55,3.05-10.32,5.5-22.71,3.59-33.44-.68-3.8-6.14-3.23-7.14,0Z"/><path d="M215.26,487.28c-9.76,19.61-6,43.21,5.38,61.42,3.85,6.15,12.15,1.91,11.11-4.68-2.7-17.16-9.84-33.82-7.06-51.47l-10.79-1.46a94.28,94.28,0,0,0,4.43,40.35c2,5.85,11,5.08,11-1.49q0-12.6-.29-25.19c-.21-8.12.15-16.66-1.59-24.62-1.36-6.23-9.71-4.08-10.31,1.39-.88,7.92.28,16.25.52,24.2s.39,16.14.43,24.22l11-1.5a86.33,86.33,0,0,1-4.28-37.36c.62-6.1-9.87-7.59-10.8-1.46-2.93,19.35,2.65,38.65,5.94,57.62l11.11-4.69c-10.2-15.67-11.79-34.19-8.94-52.35.61-3.89-4.85-7.11-6.94-2.93Z"/><path d="M226.07,477.34c1.62-1.66,3.87-3.36,4.27-5.74a4.46,4.46,0,0,0-1.1-4.14,4.41,4.41,0,0,0-4.13-1.09c-2.41.45-4,2.67-5.67,4.34a4.69,4.69,0,0,0,6.63,6.63Z"/><path d="M412.27,309.25a128.27,128.27,0,0,1,37.87-3.05c6,.34,7.56-9.85,1.44-10.68a78.84,78.84,0,0,0-42.45,6.28c-4.35,2-1.18,8.47,3.14,7.45Z"/><path d="M420.55,310.66c9.06,1.23,18,1.88,27.1,2.72,4.59.43,9.16,1,13.72,1.71s9.07,2.23,13.75,1.21c5.16-1.12,5.43-8.15,1.4-10.71s-9.64-2.53-14.43-3c-4.48-.47-9-.83-13.48-1.05a104.86,104.86,0,0,0-28.06,2c-3.39.74-3.68,6.65,0,7.15Z"/><path d="M423.9,306.79c29.89-16,56.77-37.37,84.77-56.39q20-13.59,40.81-26c6.86-4.06,13.15-8.57,20.36-12.08,7.42-3.62,16.23-6.36,23-11.05,6-4.14,2.42-13.64-5-11.91-7.94,1.85-15.84,7-22.92,10.9-6.93,3.84-14.12,7.13-21,10.92-14.61,8-28.49,17.76-42.19,27.21s-27.12,19.1-40.43,29c-14.43,10.72-28.78,21.14-41.95,33.4-3.24,3,.89,8,4.6,6Z"/><path d="M452.88,302.15C470,289.44,487.79,277.5,505.74,266q13.15-8.46,26.78-16.15,7-3.94,14.13-7.69c4.87-2.56,10.6-4.66,15-8,6.14-4.62,2.94-15.77-5.6-13.28-5.11,1.49-9.87,4.58-14.53,7.13q-7.44,4.08-14.76,8.4-14.25,8.4-28,17.66a386.79,386.79,0,0,0-51,41.53c-3.33,3.19,1.17,9.43,5.05,6.55Z"/><path d="M458,304.16c17.95-8,36.48-15.6,53.77-25l-9.12-11.82a56.24,56.24,0,0,1-25.92,12.9l7,12.06c1.82-2.32,3.66-4.6,5.58-6.85,4.56-5.35-1.68-15.54-8.16-10.57A81.32,81.32,0,0,1,457.1,288l6.77,8.81a18.51,18.51,0,0,1,5.9-7.22l-7.23-9.37A34.08,34.08,0,0,1,443.88,289l5.74,9.87c22.78-21.45,47.22-41.09,72.42-59.62q18.71-13.74,38.22-26.34c13.26-8.55,27.14-16.1,40.44-24.56,7.59-4.82,1-16-7-12-14.31,7.11-27.92,16.16-41.29,24.89q-19.81,12.93-38.8,27.08c-25.54,19-49.4,40.11-72.34,62.18-4.66,4.48.36,10.66,5.75,9.87a44.78,44.78,0,0,0,24-11.7c4.9-4.51-1.61-13.3-7.23-9.37a30.84,30.84,0,0,0-10.22,11.47c-2.22,4.39,1.49,10.5,6.77,8.81a109.38,109.38,0,0,0,27.68-13l-8.16-10.57c-2.05,2.1-4.13,4.14-6.27,6.15-5.58,5.29.35,13.36,7,12.07A70.77,70.77,0,0,0,513.29,278c6.75-5.79-1.85-15.6-9.12-11.83-17.39,9-33.94,20.13-50.57,30.47-4.86,3-.63,9.78,4.4,7.53Z"/><path d="M74.19,870.64c5.57,1.43,11.13,2.62,16.55,4.58v-10a40.6,40.6,0,0,1-13,2.6c-6.3.14-7.67,9.27-1.49,11,18.18,5.22,37.32,1.19,52.93-9.09,8.7-5.74-1.24-18.52-8.7-11.27-10.82,10.52-27,13.31-41.24,9.52l-1.5,11a40.74,40.74,0,0,0,17-4.34c3.76-1.88,3.19-8.83-1.24-9.5-6.48-1-12.81-1.53-19.31-.53-3.11.48-2.78,5.25,0,6Z"/><path d="M75.22,876.45c6.28,2.56,12.34,5.52,18.68,8l3.49-12.66a110.72,110.72,0,0,0-23-2.06l1.81,13.41a154.45,154.45,0,0,1,23.21-2.34c7.64-.18,15.31.59,22.88-.8,6.91-1.27,13.14-4.79,19.68-7.19a106.47,106.47,0,0,1,22.44-5.63c9.76-1.29,8.1-14.77-1.82-13.44a114.3,114.3,0,0,0-22.5,5.29c-6.83,2.38-13.39,6.29-20.53,7.68s-14.84.29-22.09.53A179.4,179.4,0,0,0,72.59,870c-7.68,1.35-5.74,13.5,1.82,13.42a158.74,158.74,0,0,1,21.24,1.29c8.31,1,8.39-12.25,0-13.13a180.22,180.22,0,0,1-18.42-2.44c-4.88-1-6.47,5.51-2,7.33Z"/><path d="M25.22,874.63c6.26,4.67,19.75,9.58,26.08,2.69A5.32,5.32,0,0,0,49,868.55c-3.24-1.08-6.44.14-9.77.13a19.06,19.06,0,0,1-9.12-2.39c-5.61-3-9.75,4.69-4.87,8.34Z"/><path d="M99.91,879.33c4.86.49,9.84,1.13,14.71.66,4.2-.4,8.41-1.16,12.54-2A202,202,0,0,0,154,870.76c16.65-5.61,32.92-12.42,49-19.46,32-14,62.74-30.51,90.07-52.37,2.9-2.33,2.38-7.24,0-9.68-2.82-2.88-6.81-2.29-9.68,0-26.09,20.87-55.83,36.72-86.24,50.3-15.55,7-31.32,13.61-47.46,19.11-8.18,2.79-16.5,5.24-24.91,7.25-8.57,2.05-17.27,4-25.9,5.78-4.6.94-3,7.23,1,7.64Z"/><path d="M269.17,818.73c3.17-2.91,7.14-4.54,10.65-7,3-2.12,6-4.39,9-6.54,7.17-5.13,14.35-10.25,21.48-15.44L331,774.66c7-5.08,15-9.76,21.18-15.77,5.55-5.39-1.51-14.14-8.12-10.52-7.89,4.3-15.08,11-22.29,16.34l-21.38,15.95Q290,788.49,279.71,796.6c-3.27,2.6-6.86,5.08-9.52,8.33a65.45,65.45,0,0,0-6.18,9.83,3.3,3.3,0,0,0,5.16,4Z"/><path d="M307.37,793.06c12.42-3.5,22.9-13.63,33.07-21.28,10.78-8.12,21.36-16.53,31.95-24.9q31.19-24.63,61.69-50.08c38.77-32.48,77.75-65.18,113.07-101.46,19.25-19.79,38.4-40.9,53.46-64.13,2.26-3.49.68-8.4-2.74-10.45-3.89-2.33-8-.54-10.45,2.74-14.64,19.38-29.52,38.16-46.26,55.81s-34.48,34.32-52.6,50.53c-38.69,34.62-78.64,67.89-118.76,100.83-11.46,9.42-23.05,18.69-34.57,28q-8.25,6.69-16.47,13.44c-5.81,4.78-11.45,9.27-15.31,15.82a3.51,3.51,0,0,0,3.92,5.09Z"/><path d="M545.2,588.53C558.63,581.07,570.36,571,582,561c11.26-9.72,22.57-19.44,33.48-29.55a872.27,872.27,0,0,0,63.6-65c20.18-23.06,38.48-47.69,56.43-72.51,18.11-25.05,36.32-49.94,50.25-77.64,15.12-30.07,26.44-61.86,37.68-93.53,3.58-10.08-12.45-14.42-16-4.41-9.76,27.46-19.5,55-32,81.36-13,27.36-29.9,52-47.56,76.48-17.86,24.82-35.92,49.5-55.69,72.86a855.83,855.83,0,0,1-61.36,64.55c-12.07,11.57-24.13,23.15-36.36,34.55-12,11.19-24.28,22.17-34.06,35.44-2.23,3,2,6.47,4.87,4.88Z"/><path d="M542.83,590.48c6.7-2.21,12.42-8.17,17.69-12.66,6-5.1,11.45-10.72,17-16.3l-10.21-7.87c-5.95,8.37-13,15.92-20,23.42-5.72,6.14,2.73,14.06,9,9a248.22,248.22,0,0,0,39.92-40.36c5.86-7.47-4.51-15.62-10.38-8a240.85,240.85,0,0,1-38.56,39.35l9,9c7.94-8.21,15.65-16.49,22.2-25.88,4.27-6.12-5.13-13.09-10.2-7.88-5.47,5.63-11.1,11.09-16.36,16.9-4.7,5.19-10.67,10.44-13.38,17-1,2.45,2,5,4.27,4.26Z"/><path d="M576.54,563.29c7.77-6.32,15.66-12.3,23.21-18.92l-10.54-6.13a40.47,40.47,0,0,1-8.1,12.9c-3.65,3.89-9,6.1-10.92,11.21-1.44,3.87,2.18,6.92,5.56,7.3,6,.68,12.52-6.6,16-10.86a53.1,53.1,0,0,0,9.57-17.2c2.08-6.18-6.21-10.31-10.54-6.13-7.18,6.94-13.75,14.28-20.65,21.47-4.1,4.26,2,10,6.36,6.36Z"/><path d="M97.65,883.79c14.29,2,29.11-3.36,42.64-7.5,14-4.28,27.79-9.32,41.32-14.95a482.38,482.38,0,0,0,77.7-40.94c3.83-2.49.26-8.67-3.6-6.15a496.09,496.09,0,0,1-74.2,39.91c-12.93,5.58-26.13,10.5-39.47,15-14.27,4.79-28.94,9.86-44,11.48-1.63.17-2.39,2.9-.42,3.17Z"/><path d="M257,825.38c9.83-3.53,18.72-9.5,27.56-15,9.25-5.74,18.38-11.7,27.41-17.79q13.17-8.86,26-18.25,6.79-5,13.48-10c3.89-3,8.41-5.66,11.3-9.61,1.64-2.25-1.12-6-3.76-4.89-4.56,1.85-8.24,5.47-12.15,8.44q-6.33,4.8-12.73,9.49-13.2,9.66-26.67,18.92c-8.72,6-17.56,11.83-26.46,17.57S262.85,815,255,821.89c-1.54,1.35.08,4.18,2,3.49Z"/><path d="M359.81,757.11c10.22-7.41,21.61-13,31.85-20.4,10.56-7.59,17-19.43,27.6-26.8,3.89-2.7.2-9.12-3.74-6.4-11.15,7.7-17.7,20-28.8,27.82-10.21,7.15-22.83,12.23-29.38,23.31-.87,1.47,1,3.57,2.47,2.47Z"/><path d="M412,713.46c12-6.22,22.3-14.38,32.41-23.35,5-4.45,9.94-9,14.81-13.64s10.42-8.89,14.15-14.3c2-2.9-1.95-6.76-4.84-4.84-5.24,3.47-9.5,8.78-14,13.16-4.8,4.69-9.65,9.33-14.6,13.86-9.84,9-20,17.62-29.92,26.54-1.44,1.29.39,3.4,2,2.57Z"/><path d="M470.51,665.25c5.74-3.13,10.79-8.16,15.62-12.5,5.27-4.73,10.38-9.62,15.41-14.58,10.12-10,19.88-20.31,30.07-30.23a825.94,825.94,0,0,1,65.1-56.75c3.7-2.91-1.51-8.06-5.17-5.17a798.66,798.66,0,0,0-64.24,56.29c-9.94,9.73-19.53,19.81-29.18,29.82-4.7,4.87-9.44,9.7-14.3,14.4-5.22,5.06-11.36,9.61-16.09,15.11a2.31,2.31,0,0,0,2.78,3.61Z"/><path d="M561.54,580.24c15-12.57,29.69-25.09,43.92-38.55,14-13.24,28.93-26.42,41.46-41.08,3-3.53-1.66-8.34-5.14-5.14-14.27,13.13-27.24,27.85-41.16,41.38s-27.78,27.27-42,40.51c-1.95,1.81.9,4.55,2.88,2.88Z"/><path d="M644,501.59c4.68-2.57,8.16-7.25,11.73-11.12,3.75-4.08,7.54-8.13,11.25-12.25,7-7.84,14-15.78,20.28-24.29s11.31-18.08,17.92-26.46c6.74-8.55,14.52-16.24,22.22-23.91,3.1-3.09-1.69-7.89-4.81-4.81-7.73,7.66-15.46,15.36-22.2,23.93-6.41,8.15-11.33,17.24-17.28,25.7-6.27,8.92-13.54,17.05-20.74,25.23-3.89,4.41-7.7,8.89-11.55,13.35-3.39,3.93-7.37,7.81-9.37,12.67-.61,1.49,1.35,2.62,2.55,2Z"/><path d="M698,437.68c22.77-21.09,41.34-46.23,57-72.92,2.27-3.86-3.76-7.38-6-3.5-15.22,26.48-33.85,50.62-53.74,73.73a1.9,1.9,0,0,0,2.68,2.69Z"/><path d="M728,399.19c9.65-12.52,19-25.25,29.53-37.07,8.54-9.6,17.18-19.28,22.08-31.33,1.39-3.41-4.51-5.93-6-2.53-5.47,12.5-14.5,22.15-23.24,32.4-9.73,11.39-17.52,24.07-25.65,36.62-1.36,2.11,1.84,3.79,3.28,1.91Z"/><path d="M824.85,178a276.14,276.14,0,0,1-10.2,50.83c-4.93,16.4-12.44,31.55-19.88,46.91C780.51,305.2,767,335.18,748.28,362.1c-2.58,3.71,3.44,7.15,6,3.53,19.74-27.67,33.42-59.4,48-89.94,7.3-15.29,14.54-30.52,19-46.94,4.49-16.59,6.24-33.59,7.11-50.72.12-2.33-3.33-2.24-3.56,0Z"/><path d="M815.82,238.53c-6.92,9.64-12.15,20.82-17.67,31.31-5.75,10.91-11.44,21.85-16.68,33-1.78,3.8,3.86,7.13,5.67,3.31,5.41-11.4,11.17-22.63,16.83-33.91,5.29-10.53,11.32-21.17,15.14-32.34.71-2.07-2.18-2.95-3.29-1.39Z"/><path d="M813.26,249.24c-8.62,14.87-16.8,30-25.21,45Q782,305,775.69,315.76q-3.37,5.76-6.82,11.5c-2.07,3.46-4.8,6.85-5.68,10.81a2.89,2.89,0,0,0,4.78,2.79c3.08-2.59,4.84-6.67,6.87-10.11q3.4-5.76,6.74-11.55,6.21-10.77,12.2-21.64c8.32-15.1,16.23-30.4,23.13-46.19,1.06-2.43-2.25-4.55-3.65-2.13Z"/><path d="M442.42,704.86c19.56,3.84,39.41-1,57.81-7.8a184.23,184.23,0,0,0,44.54-23.73,189.84,189.84,0,0,0,61.64-76.48c8.1-18.22,13.9-37.62,15.72-57.52.26-2.88-4.48-3.52-5.06-.68-6.73,32.85-17.11,64-37.24,91.21a179.6,179.6,0,0,1-74.91,58.64c-19.31,8.06-40.92,14.61-62,12.76-2-.18-2.5,3.2-.48,3.6Z"/><path d="M401,308.26c-28.62,4.16-56.9,11.51-82.13,26.06-24.15,13.94-43.43,34.34-58.5,57.62-15.54,24-27.33,50.56-31.93,78.91a191.5,191.5,0,0,0,4.65,81.79A182.12,182.12,0,0,0,251,595.13c8,13.85,16.82,29.08,29.55,39.15,1.87,1.48,4.54-1.11,2.66-2.66-11-9-18.44-21.76-25.8-33.74a180.81,180.81,0,0,1-17.65-37.59,186.2,186.2,0,0,1-8.22-79.81c3.15-27.82,13.27-53.84,27.48-77.83,13.92-23.5,31.82-45,54.85-60,26.29-17.15,57.35-26,88-31.47,1.93-.34,1.08-3.19-.81-2.91Z"/><path d="M401.41,310.49c58.71-.64,116.87,22.61,160.28,62.11,1.87,1.7,4.64-1.05,2.78-2.79-21.93-20.52-48.41-36.09-76.27-47.14-26.94-10.68-58-18.67-87.11-14.49-1.33.19-1,2.33.32,2.31Z"/><path d="M230.45,461.86c-49.26,45.07-93.14,96.52-132.11,150.66A956.53,956.53,0,0,0,44,696.72c-16,28.09-33.13,57.65-40.73,89.35-7.25,30.22-3.58,66.31,21,87.95,2.2,1.93,5.42-1.23,3.24-3.23C5.26,850.3.73,818.33,6.87,789.84c6.74-31.26,23.38-60.39,39-88,31.95-56.49,70-109.49,112.33-158.67,23.64-27.48,48.76-53.59,74.61-79,1.52-1.5-.78-3.77-2.34-2.34Z"/><path d="M824.93,172.57c1-13.26-4.87-26.11-12.79-36.45-8.85-11.57-20.66-17.48-35-19.72-16.42-2.58-33.38-.74-49.66,2a270.43,270.43,0,0,0-49,13.28c-31.18,11.57-60.23,27.95-88.83,44.74-30.66,18-60.84,36.47-89.7,57.3-32,23.09-62.69,47.92-93.66,72.35-2.21,1.74.9,4.8,3.08,3.08C462.36,267.43,514.82,225.67,573,191.38c55.32-32.61,112.16-67,177.84-71.55,17.2-1.2,37.83-.55,51.37,11.6,11,9.82,21,25.92,20.38,41.14-.06,1.5,2.21,1.47,2.32,0Z"/><path class="cls-4" d="M33.71,878.8c51.12,13.13,102.86-3.51,149.44-24.32,48.41-21.63,94.71-46.59,138.23-76.94,64.93-45.28,125-97.27,182.93-151.08C526.39,605.94,548,584.49,571,565c.68-.58-.31-1.56-1-1-39.81,33.67-76,71.5-115.35,105.7-36.85,32-74.85,63.19-114.18,92.14a807.23,807.23,0,0,1-132.63,79.59C154.15,866.92,94.47,893,34,877.78a.53.53,0,0,0-.28,1Z"/><path class="cls-4" d="M492.23,639.58c25.41-24.5,51.32-48.47,77.08-72.61,28.22-26.44,56.43-53.13,81.79-82.38,27.09-31.22,54-62.86,78.61-96.07a616.93,616.93,0,0,0,34.92-52c11.11-18.67,20.76-38.11,30.19-57.67A369.12,369.12,0,0,0,816.19,225c5.46-18.22,9.75-37.5,8.55-56.63-.06-.87-1.43-.88-1.37,0,1,17.41-2.53,34.91-7.2,51.6a334.53,334.53,0,0,1-18.73,50.34c-17.44,37.61-37.18,73.61-61.39,107.3s-51.45,65.5-78.44,97.19c-25.29,29.68-53,56.93-81.27,83.73S519,611.33,491.61,639a.44.44,0,0,0,.62.62Z"/><path d="M42.43,882.82c49.2,12.93,99.3-1.78,144.51-21.46,46.62-20.28,91.62-43.81,133.8-72.25,40.83-27.54,79.22-58.55,117-90.12,23-19.23,45.29-39,67.33-59.32q20-18.43,40-36.86c9-8.22,17.63-17,26.9-24.81,2.06-1.74-.91-4.69-3-3-40,33.83-76.72,71.4-116.81,105.14C414.6,711.82,376.86,743.37,336.88,772a809.73,809.73,0,0,1-127.65,74.44c-51.32,24.12-108.41,47.46-166,33.36-2-.49-2.82,2.53-.84,3.05Z"/><path d="M501.85,643.2c28.6-26.45,57-53.15,85.42-79.78q21.63-20.26,42.58-41.24c17.09-17.14,32.89-35.33,48.56-53.76,29.55-34.75,58.84-70,83.85-108.19A593.86,593.86,0,0,0,797,298.84c7.55-15.2,15-30.36,20.6-46.4,6.29-18,11.1-36.77,12.58-55.81,1.27-16.38.12-34.45-9.91-48.15-1.54-2.1-5.09-.1-3.55,2.08,8.83,12.46,10.16,28.59,9.35,43.41-.94,17-4.87,33.85-10,50.06-4.84,15.34-11.28,29.8-18.26,44.27-10.16,21.1-21,41.78-33.54,61.55C739.91,388.12,711,423,681.74,457.63c-15.09,17.87-30.06,35.85-46.3,52.69-13.94,14.45-28.33,28.46-42.83,42.34-30.82,29.51-63.19,57.78-92.62,88.68a1.32,1.32,0,0,0,1.86,1.86Z"/><path d="M285.05,640c12.43-1.61,23.75-7.86,35-13.09q19.26-9,37.78-19.43a550.3,550.3,0,0,0,68.62-46,527,527,0,0,0,113.1-121.88c8.21-12.32,16.32-24.95,22.28-38.54,3.4-7.78,5.57-15.93,8.58-23.85,1.12-3-3.83-5.07-5.14-2.17-2.84,6.32-4.69,13-7.21,19.4-4.42,11.3-10.7,21.82-17.14,32.06a505.11,505.11,0,0,1-49.54,66,544.38,544.38,0,0,1-125,104.18q-19.54,11.87-40,22.05c-7,3.46-14.11,6.59-21.09,10-6.77,3.35-13.17,6.38-20.7,7.58-2,.33-1.58,3.91.49,3.64Z"/><path class="cls-4" d="M228.88,592.06a140.16,140.16,0,0,0-19.8,37.73c-4.31,12.65-8.69,28.28-6.39,41.73,2,11.49,11.19,19.21,22.11,22.13,13.76,3.67,28.89-.62,41.77-5.59.69-.27.43-1.35-.31-1.13-13.15,3.83-26.52,9-40.4,5.61s-22.6-13.78-22.39-28.16c.38-25.41,11.51-51.54,26.1-71.92.3-.41-.39-.81-.69-.4Z"/><path class="cls-4" d="M464.66,552.47c44.15-44.68,87.49-90.51,124.86-141.11,9.78-13.24,20.27-26.86,24.05-43.2a.62.62,0,0,0-1.2-.33c-5.08,19-18.06,34.86-29.7,50.26-12.13,16.06-24.87,31.67-38,46.93-25.76,30-53.08,58.53-80.57,86.89-.35.36.2.92.56.56Z"/><path class="cls-4" d="M531.77,316.88c13.07-8.61,28.79-14.94,43.88-19,9.16-2.47,17.92-1.08,26.77,1.91,9.22,3.1,18.72,7.6,19.76,18.49a.66.66,0,0,0,1.32,0c.28-7.72-5.74-13.37-12.21-16.53-8.19-4-18.1-7-27.29-6.6s-18,4.55-26.46,7.77c-9.18,3.53-18.11,7.57-26.2,13.22-.46.31,0,1.06.43.75Z"/><path class="cls-4" d="M180,561.05c-45.09,50.67-78.08,113.48-91.79,180.09-.14.71.92,1,1.09.3C105,674.91,135.36,613.16,180.62,561.7c.39-.44-.25-1.09-.64-.65Z"/><path class="cls-4" d="M51.31,739.16c-9.2,14.5-12.72,34.12-4.84,50,8.17,16.46,26.25,22.65,43.51,23.56,20.09,1.06,40.91-2.94,60.31-7.79a299.91,299.91,0,0,0,61.22-22.69,290.11,290.11,0,0,0,61.14-40.91c.62-.55-.28-1.44-.9-.91A302.15,302.15,0,0,1,166,799.08,280.94,280.94,0,0,1,107,811c-17.7,1.53-38.4.62-52-12.37-16.2-15.45-13.92-41.37-2.9-59,.32-.5-.47-1-.79-.46Z"/><path class="cls-4" d="M512.2,576.87A843.62,843.62,0,0,0,677.86,401.68q19.92-28.31,37.39-58.21a.56.56,0,0,0-1-.56,857.18,857.18,0,0,1-151,188.68Q538.36,555,511.63,576.3c-.41.32.17.89.57.57Z"/><path class="cls-4" d="M498.71,268.38A432.28,432.28,0,0,1,637,186.89c17-6.11,34.28-10.54,51.71-15.12.71-.19.4-1.24-.31-1.1-27.16,5.13-54,14.92-79.23,26.06a426.81,426.81,0,0,0-111,71.1c-.38.33.17.89.55.55Z"/><path class="cls-4" d="M767.83,159.2c13.63,8.51,16.29,25.17,15.54,40-.77,15.28-3.23,30.48-8.47,44.88-.21.57.75,1,1,.42,6.5-15.35,8.89-33.49,9-50.09,0-13.88-3.94-28.5-16.54-36a.47.47,0,0,0-.47.81Z"/><path class="cls-4" d="M685.65,204.25c10-1.72,19.25,4.34,24.23,12.81s5.24,18.62,4.17,28c-2.24,19.85-8.9,39.49-17.2,57.56-.27.59.6,1.11.88.52A206.87,206.87,0,0,0,710,270.61c3.11-11,5.93-22.65,5.84-34.16-.14-16.54-11.16-36.37-30.42-33-.54.09-.31.91.23.82Z"/></g></g></svg>